<?xml version="1.0" encoding="utf-8"?>
<!-- Generator: Adobe Illustrator 24.2.1, SVG Export Plug-In . SVG Version: 6.00 Build 0)  -->
<svg version="1.1" id="Layer_1" xmlns="http://www.w3.org/2000/svg" xmlns:xlink="http://www.w3.org/1999/xlink" x="0px" y="0px"
	 viewBox="0 0 1024 225" style="enable-background:new 0 0 1024 225;" xml:space="preserve">
<g>
	<path d="M254.8,1870.2c-6.7-23.8-31-38-55-32.1c-23.1,5.8-38.1,28.9-34.1,52.7c4.3,25.4,28.3,42.9,54.2,37.7
		c8.4-1.7,15.7-5.6,21.9-11.3c1.3-1.2,1.7-2.7,1.3-4.4c-0.5-1.6-1.5-2.6-3.1-2.9c-1.7-0.4-3,0.3-4.3,1.5
		c-11.7,10.6-28.4,12.7-42.3,5.3c-4-2.1-7.4-4.8-10.4-8.2c6.4-10.3,12.8-20.5,19.2-30.7c0.3,0.5,0.3,0.9,0.3,1.2
		c0,4.2-0.1,8.3,0.1,12.5c0.1,1.9,0.3,4,0.9,5.8c1.5,4.6,6.2,5.9,9.8,2.7c1.3-1.2,2.5-2.7,3.5-4.2c1.8-2.7,3.4-5.5,5.2-8.3
		c2.1-3.3,4.2-6.7,6.2-10.1c0.1,0,0.2,0.1,0.3,0.1c0,1.7-0.1,3.3,0,5c0.1,2.8,0.1,5.7,0.7,8.4c1.7,7.9,8.8,12.2,16.2,10.2
		c6-1.6,10.6-7.5,11.1-14.3C256.9,1881.1,256.2,1875.6,254.8,1870.2z M248.1,1885.7c-0.2,2.3-1.1,4.5-3,6c-3,2.3-6.5,1.3-7.7-2.3
		c-0.4-1.2-0.5-2.5-0.5-3.8c-0.1-4.2-0.1-8.2-0.3-12.4c-0.1-1.3-0.6-2.8-1.2-4c-1.7-3.3-5.4-4.3-8.6-2.5c-2.1,1.1-3.6,2.9-4.9,4.8
		c-3.3,5.2-6.5,10.4-9.8,15.6c-0.3,0.5-0.7,1.1-1.3,1.5v-1.2c0-5.6,0.1-11.1,0-16.7c0-1.5-0.3-3-0.6-4.5c-0.5-2.1-1.7-3.5-3.9-4.1
		c-2.2-0.5-4.1,0.3-5.6,2c-0.7,0.9-1.4,1.8-2,2.7c-6.8,10.8-13.6,21.7-20.4,32.6c-0.2,0.3-0.4,0.6-0.8,1.1c-0.9-2.1-1.7-4.1-2.3-6
		c-7-21.2,5.6-43.6,27.3-48.8c16.1-3.9,33.6,4.3,41.3,19.3C247.1,1871.8,248.6,1878.6,248.1,1885.7z"/>
	<path d="M451.3,1902.3c-0.1,1.7-0.9,3-2.5,3.7c-1.5,0.6-3.1,0.3-4.3-0.8c-1-0.9-1.4-2-1.4-3.3c0-5.7,0-11.3,0-17v-1.4
		c-2.8,3-5.4,5.8-8,8.6c-0.5,0.5-0.9,1-1.3,1.5c-1.7,1.8-3,1.9-4.7,0.1c-2.8-3.1-5.6-6.1-8.5-9.2c-0.2-0.2-0.4-0.5-0.9-0.9v1.5
		c0,5.6,0,11.2,0,16.7c0,2.5-1.7,4.4-4,4.5c-2.4,0.1-4.3-1.8-4.3-4.4c0-5.8,0-11.6,0-17.3c0-6.1,0-12.1,0-18.2
		c0-0.9-0.1-1.7,0.9-2.1c1-0.4,1.7,0.2,2.3,0.8c2.7,3,5.4,6.1,8.2,9.1c2.3,2.6,4.7,5.3,7,7.9c1.3,1.5,1.8,1.5,3.1,0
		c4.8-5.4,9.5-10.6,14.3-16c0.4-0.5,0.8-1.1,1.3-1.3c0.6-0.3,1.4-0.5,2-0.4c0.8,0.1,0.9,1,0.9,1.7c0,9.9,0,19.8,0,29.7
		C451.4,1898,451.5,1900.1,451.3,1902.3z"/>
	<path d="M703.7,1884.6c-2.3-5.5-7.4-8.6-13.3-8.4c-3.3,0.1-6.4,1.3-8.8,3.8c-0.1-0.3-0.1-0.5-0.2-0.7c-0.6-2-1.9-2.9-3.6-2.7
		c-1.7,0.3-2.7,1.6-2.7,3.6c0,11.4,0,22.8,0,34.2c0,2.5,1.8,4.4,4.2,4.5c2.3,0,4.2-1.9,4.2-4.4c0-1.3,0-2.7,0-4v-6.2
		c0.5,0.3,0.8,0.5,1.1,0.6c7.4,3.6,15,1.5,18.8-5.8C705.6,1894.4,705.8,1889.5,703.7,1884.6z M694.9,1896.8
		c-2.3,2.9-6.2,3.2-8.9,0.8c-3.1-2.7-3.6-8-1-11.2c1.7-2.1,4.6-3,7-2.2c2.5,0.8,4.4,3.2,4.7,6.2c0,0.3,0.1,0.7,0.1,1.1
		C696.7,1893.4,696.2,1895.2,694.9,1896.8z"/>
	<path d="M633.8,1901c-6.4,5.3-13.5,7.2-21.4,4.4c-7.8-2.8-12.3-8.6-13.9-16.7c-0.2-1.1-0.3-2.3-0.3-3.1
		c0.1-12.9,10.2-22.6,22.4-21.9c3.9,0.2,7.5,1.4,10.7,3.5c1.5,1.1,2.3,2.5,2,4.4c-0.5,2.6-3.5,3.9-5.8,2.5c-2.9-1.9-6.2-2.9-9.7-2.5
		c-4.4,0.5-7.6,2.8-9.6,6.7c-2.4,4.8-2.5,9.6,0,14.3c3.8,7.2,12.7,8.9,19.4,4c0.5-0.3,0.9-0.7,1.3-1.1c1.6-1.3,3.9-1.1,5.2,0.4
		C635.4,1897.3,635.3,1899.7,633.8,1901z"/>
	<path d="M322.7,1900.9c-8.4,7.4-19.8,7.5-27.8,0.9c-5.6-4.6-8-10.6-7.9-17.9c0.9-8.9,5.3-15.5,13.9-19c6.6-2.5,13.1-1.7,19.1,2.1
		c1.7,1.1,2.5,2.7,2.1,4.4c-0.3,1.5-1.6,2.9-3.3,3c-0.9,0.1-1.9-0.2-2.7-0.7c-4.4-2.6-8.8-3.5-13.6-1.2c-4.9,2.3-7.9,8.1-7.3,13.7
		c0.5,5,2.5,9.1,7.1,11.4c5.3,2.6,10.2,1.6,14.8-1.9c0.7-0.6,1.7-1.1,2.6-1.3c1.5-0.3,3,0.6,3.7,2
		C324.2,1898.1,324,1899.9,322.7,1900.9z"/>
	<path d="M486.4,1879.7c-0.1-1.7-1.5-3.1-3.2-3.1s-2.9,1.2-3.1,2.9c-0.1,0.3-0.1,0.6-0.2,1.1c-0.4-0.4-0.6-0.5-0.8-0.7
		c-5.1-4.9-12.9-5-18.1,0c-4.9,4.7-6.1,12.7-2.8,19.2c2.5,5,6.6,7.8,12.3,7.6c3.5-0.1,6.8-1.2,9.4-4.3c0.1,0.6,0.1,1,0.2,1.3
		c0.2,1.2,1.2,2.3,2.4,2.5c1.3,0.3,2.5-0.1,3.2-1.2c0.4-0.7,0.7-1.6,0.7-2.5c0.1-7.4,0-14.7,0-22.1
		C486.4,1880.2,486.4,1879.9,486.4,1879.7z M476.5,1896.4c-2.9,4-8.4,3.6-10.7-0.8c-0.7-1.3-0.9-2.7-1.3-4.2
		c0.3-2.5,0.9-4.7,2.9-6.2c3.3-2.5,8.1-1.3,9.9,2.5C478.7,1890.7,478.4,1893.8,476.5,1896.4z"/>
	<path d="M667.5,1880.2c0-0.3,0-0.6-0.1-0.9c-0.3-1.5-1.5-2.7-3.1-2.7c-1.5,0-2.8,1.1-3.1,2.6c-0.1,0.5-0.1,0.9-0.3,1.7
		c-0.4-0.5-0.5-0.8-0.7-1c-5.2-5-13.1-4.9-18.2,0.2c-5.5,5.4-6,14.9-1.2,21.3c5,6.6,14.5,7.2,20.3,1c0.1,0.6,0.1,1,0.3,1.4
		c0.3,1.3,1.3,2.2,2.5,2.4c1.3,0.2,2.5-0.2,3.1-1.3c0.4-0.7,0.6-1.5,0.6-2.2C667.5,1895.2,667.5,1887.7,667.5,1880.2z M656.9,1897.2
		c-3,3-7.4,2.5-9.7-0.9c-1.5-2.2-1.9-4.7-1.1-7.2c0.9-3.2,3.5-5.3,6.4-5.2c3.3,0.2,6,2.6,6.6,6c0.1,0.5,0.1,1.1,0.1,1.4
		C659.1,1893.7,658.5,1895.6,656.9,1897.2z"/>
	<path d="M540.5,1905.1c-1.7,1.5-3.8,1.6-5.4-0.1c-2-2.1-4-4.4-5.9-6.7c-1.5-1.7-2.9-3.4-4.6-5.4c0,3,0,5.7,0,8.4
		c0,0.5,0,1.1-0.1,1.7c-0.5,2.1-2.3,3.4-4.4,3.2c-2-0.2-3.5-1.7-3.8-3.8c0-0.3,0-0.5,0-0.7c0-11,0-22,0-32.9c0-2.7,1.7-4.7,4.2-4.6
		c2.4,0,4.2,2,4.2,4.7v20.1c0.1,0.1,0.2,0.1,0.3,0.1c2.9-3.3,6-6.6,8.9-9.8c0.5-0.5,1-1.1,1.6-1.6c1.6-1.3,3.7-1.2,5.1,0.3
		c1.5,1.5,1.5,3.8,0.2,5.3c-2.3,2.5-4.7,5.1-7,7.7c1.6,1.9,3.1,3.8,4.7,5.7c0.9,1.1,1.7,2.1,2.5,3.1
		C542.2,1901.3,542.1,1903.5,540.5,1905.1z"/>
	<path d="M567.9,1894c2.2,0,3.6-1.4,3.6-3.5c-0.1-7.8-4.7-13.2-12.3-14.1c-6.5-0.8-12.5,1.7-14.9,8.6c-1.3,3.8-1.5,7.6-0.5,11.5
		c1.1,4.4,3.8,7.4,8,9c3,1.1,6.2,1.3,9.4,1c2.3-0.2,4.5-0.9,6.4-2.2c0.9-0.7,1.7-1.5,1.7-2.7c0.2-2.8-2.5-4.4-5.2-3.2
		c-3.2,1.5-6.6,1.9-9.8,0.2c-1.8-0.9-2.6-2.5-2.7-4.7h1.3C557.9,1894,562.9,1894,567.9,1894z M557,1884c2.9-0.1,6.4,1.4,6.4,4.5
		h-11.8C551.6,1886.1,553.9,1884.2,557,1884z"/>
	<path d="M341.4,1876.2c-8.2,0.1-15.1,6.9-15.1,15.1c0,8.4,7,15.3,15.4,15.3c8,0,14.7-7.1,14.6-15.4
		C356.3,1882.8,349.6,1876.1,341.4,1876.2z M346.9,1895.8c-2.3,4.2-7.4,4.6-10.4,0.9c-2.1-2.6-2.5-5.6-1.2-8.6
		c1.2-2.9,4.2-4.5,7.2-4c2.9,0.5,5.2,2.9,5.5,6.2c0,0.3,0.1,0.7,0.1,1.1c0.1,0,0.2,0.1,0.3,0.1
		C347.9,1892.9,347.6,1894.4,346.9,1895.8z"/>
	<path d="M404.5,1902.3c0,2.2-1.9,4-4.1,4c-2.1,0-4-1.5-4.1-3.8c-0.1-3.9-0.1-7.8-0.1-11.7c0-0.9,0-1.8-0.1-2.7
		c-0.3-2.2-1.5-3.5-3.5-4c-2.7-0.6-5,0-6,1.9c-0.7,1.3-1.1,2.9-1.1,4.4c-0.1,3.8,0,7.4-0.1,11.2c0,2.7-1.5,4.4-3.8,4.6
		c-2.4,0.2-4.4-1.6-4.4-4.1c-0.1-2.4,0-4.8,0-7.2v-14.5c0-2.3,0.9-3.6,2.7-3.9c1.8-0.3,3,0.7,3.8,3c2-1.7,4.2-2.9,6.8-3.3
		c7.6-1.1,13.5,3.4,14,11C404.7,1892.3,404.6,1897.3,404.5,1902.3z"/>
	<path d="M594.9,1903.3c-0.1,1.7-1.5,3.3-3.2,3.3c-1.9,0.1-4,0-5.9-0.3c-3.1-0.5-5.1-2.5-5.8-5.4c-0.5-2.1-0.8-4.4-0.9-6.7
		c-0.1-2.9,0-6,0-8.9v-1.4c-0.8,0-1.5,0-2.1,0c-2.1-0.1-3.7-1.7-3.7-3.7c0-2.1,1.5-3.8,3.5-3.9c0.7-0.1,1.4,0,2.3,0
		c0-2.6,0-5.1,0-7.6c0-1.9,0.7-3.4,2.5-4.2c2.7-1.2,5.6,0.8,5.8,3.8c0.1,1.3,0,2.6,0,4v4.1c1.3,0,2.3,0,3.3,0
		c2.2,0.1,3.8,1.7,3.8,3.9c0,2.1-1.6,3.7-3.8,3.8c-1.1,0-2.1,0-3.1,0c-0.1,0.2-0.2,0.3-0.2,0.4c0.1,4,0,8,0.2,12
		c0.1,2.5,0.7,2.9,3.1,2.9C593.5,1899.2,595.1,1900.9,594.9,1903.3z"/>
	<path d="M513.1,1880c0,2.1-1.7,3.8-3.8,3.8c-0.3,0-0.7,0-1.1,0.1c-4.2,0.5-6,2.3-6,6.6c0,3.8,0,7.4,0,11.2c0,2.7-1.6,4.6-4,4.6
		c-2.4,0.1-4.2-1.8-4.3-4.6c0-5.5,0-10.9,0-16.4c0-1.8-0.1-3.5,0-5.4c0.1-1.6,1-2.9,2.3-3.2c1.3-0.3,2.7,0.1,3.4,1.1
		c0.3,0.5,0.5,1.1,0.8,1.7c0.6-0.4,1.1-0.9,1.7-1.3c2.1-1.5,4.6-2.1,7.2-2C511.5,1876.3,513.1,1878.1,513.1,1880z"/>
	<path d="M369.6,1901.9c0,2.5-1.9,4.4-4.2,4.4c-2.3,0-4.1-1.9-4.1-4.5c0-3.5,0-6.9,0-10.4s0-6.9,0-10.4c0-2.6,1.7-4.5,4.1-4.5
		c2.3,0,4.2,1.9,4.2,4.4C369.7,1887.9,369.7,1894.9,369.6,1901.9z"/>
	<path d="M370.4,1868.5c0.1,2.7-2.1,4.9-4.9,5c-2.7,0-4.8-2.1-4.8-4.9c0-2.7,2.1-5,4.8-5C368.1,1863.6,370.3,1865.8,370.4,1868.5z"
		/>
</g>
<g>
	<path d="M268.3,2029.2c-2.3-21.5-18.2-40.4-39.1-46.6c-3.4-1-7-1.5-10.4-2.3h-11.6l0,0l0,0c-3.4,0.9-7,1.3-10.4,2.3
		c-21,6.2-36.7,24.9-39.1,46.6c0,0.3-0.2,0.6-0.3,0.9c0-0.9,0-1.9,0-2.9c-0.1,0.9-0.2,1.7-0.2,2.5l0,0c0,0.3,0,0.6,0,0.9v10.5
		c0,0.3,0,0.5,0.1,0.8c0.1,0.6,0.1,1.2,0.2,1.9c0-0.7,0-1.5,0-2.1c0.9,4.7,1.7,9.5,3.5,14c5.8,14.7,15.9,25.3,30.6,31.5
		c5.5,2.3,11.3,3.5,17.3,4v0.1c0,0.1,0,0.2,0,0.3h8.4l0,0c0-0.1,0-0.3,0-0.3c1-0.1,2.1-0.3,3.2-0.4c6.4-1,12.7-2.5,18.3-5.5
		c18.9-10.1,30-28.6,30-49.6C268.7,2033.7,268.6,2031.5,268.3,2029.2z M198.7,2023.5c0-3.9,3.1-7.1,7-7.1c3.9,0,7,3.1,7.1,6.9
		c0.1,3.9-3.1,7.1-7,7.1C201.8,2030.4,198.8,2027.4,198.7,2023.5z M176.9,2033.5c-0.5,8.2-1.1,16.5-3.5,24.6
		c-0.7,2.3-1.4,4.5-2.7,6.8c-2.5-3.3-4.3-6.8-5.7-10.5c-11.6-30.6,7.3-63.8,39.5-69.1c16-2.7,30.5,1.4,42.7,12.3
		c12.9,11.6,18.4,26.2,17,43.4c-1.8,21.7-18.8,40.7-40.4,45.2c-1.6,0.3-1.8-0.3-1.8-1.5c-0.4-7.1,2.1-13.3,5.7-19.2
		c4.2-7.1,9.8-13,15.7-18.8c2.5-2.4,5.3-4.7,7.2-7.6c-1.8,0.9-3.3,2.4-5.3,3.2c-6.7,3.5-13.6,6-21.2,5.9c-3.6,0-6.9-1.1-9.6-3.7
		c2.1,0.8,4.3,1.5,6.6,1.8c7.9,0.8,15.3-1,22.4-4c0.4-0.2,0.9-0.3,1.3-0.5l0,0c2.2-1,4.1-2.7,6.5-3.5c1-1.2,1.7-2.5,2.3-3.9
		c2-4.9,0.6-9.1-4.2-12.3c-3.1-2.1-6.6-3.4-10.2-4.4c-3.5-0.9-6.8-2.4-10.3-3.6c-0.7-0.3-1-0.8-1.5-1.3c-1-2.2-2.7-3.7-5.1-4.4
		c-2.7-0.9-5.5-0.7-8.2,0c-1.5,0.3-2.9-0.2-4.3-0.4c-6.2-1.2-11.9,0.6-17.6,2.9C182,2015.1,177.5,2022.8,176.9,2033.5z
		 M239.2,2033.2c0-1.3,0.9-2.1,2.1-2.1s2,0.8,2.1,2.1c-0.2,1.2-0.8,2.1-2.1,2.1S239.2,2034.6,239.2,2033.2z"/>
	<path d="M715.1,2042.9c-2.7-12.2-13.6-18.5-27-15.7c-9.9,2.1-16.2,10.7-16.3,21.4c0,0.7,0,1.5,0.1,2.1c0.6,7.5,2.8,14.1,9.7,18.3
		c13.2,8.2,29.2,1.9,33.5-13.1c0.1-0.3,0.3-0.5,0.5-0.7l0,0l0,0v-11.8C715.4,2043.4,715.1,2043.2,715.1,2042.9z M703.7,2059.1
		c-2.4,3.9-5.9,5.9-10.6,5.7c-4.7-0.3-7.8-3-9.7-7.1c-2.3-5.1-2.3-10.4-0.3-15.7c1.9-4.9,6.1-7.7,11-7.6c4.7,0.1,8.6,2.9,10.6,7.7
		c1,2.4,1.3,5,1.4,7.5C706,2053,705.4,2056.2,703.7,2059.1z"/>
	<path d="M523.6,2039.6c-6,0.1-12,0-18,0c-5.3-0.1-5.3-0.1-5.3,5.5c0,2,0.6,2.7,2.6,2.6c3.7-0.2,7.4,0,11.1-0.1
		c2.1-0.1,2.4,0.7,2.1,2.6c-0.9,6.5-4,11.4-10.6,13.1c-7.1,1.9-13.9,0.9-18.8-5.2c-6.9-8.5-6.8-25.6,0.3-33.9
		c7.1-8.3,22.6-7.2,26.5,2.4c1.5,3.8,3.4,4.4,6.8,4c1-0.1,2.1-0.1,3.1,0c1.6,0.1,2-0.6,1.7-2.1c-0.6-2.8-1.5-5.5-3.2-8
		c-8.1-12.2-28.8-14.6-40.4-4.1c-9.6,8.6-11.8,19.7-9.8,31.8c1.5,9.1,6,16.4,14.3,21.1c10.7,5.8,20.9,4.4,31.8-4.5
		c0.3,0.9,0.5,1.5,0.6,2.1c1,4.7,1,4.6,5.7,4.5c1.6-0.1,2.1-0.6,2.1-2.1c0-9,0-18,0.1-27C526.1,2040.2,525.4,2039.6,523.6,2039.6z"
		/>
	<path d="M341.2,2048.3c-0.6,0-1.2,0.1-1.9,0c-2.7-0.5-3.5,0.8-3.9,3.3c-1.4,6.5-5.1,11-11.9,12.2c-6.4,1.2-12.9-1.6-16.6-7.2
		c-5.7-8.6-5.4-23.1,0.6-31.4c6.4-8.9,21.3-9.2,25.9,0.3c2.4,4.9,5.2,5.7,9.7,5.1c0.3-0.1,0.6-0.1,0.9,0c2.4,0.3,2.6-0.8,2.1-2.7
		c-0.8-3.5-2.1-6.7-4.5-9.3c-5.4-6.2-12.5-8.4-19.6-8.6c-9.2-0.1-16.7,3.1-21.7,8.6c-10.7,11.9-11,32.7-0.6,44.8
		c7.4,8.5,17,10.9,27.6,8.6c9.8-2.1,15.8-8.5,18.3-18.1C346.9,2048.3,346.9,2048.3,341.2,2048.3z"/>
	<path d="M666.6,2027.4c-0.1,0.2-0.3,0.3-0.4,0.4c0.3,0,0.7,0,1,0C667,2027.8,666.9,2027.6,666.6,2027.4z"/>
	<path d="M652.9,2046.1c-1.2-1.7-0.9-2.6,0.4-4.1c4.4-4.6,8.6-9.3,12.9-14.1c-1.3,0.1-2.6,0.1-3.9-0.1c-4.5-0.6-7.9,0.8-10.7,4.5
		c-1.9,2.6-4.4,4.6-6.8,6.8c-1.9,1.8-3.3,4.1-6,5.7v-26.7c0-6.9,0-6.8-6.8-6.8c-2.1,0-2.8,0.4-2.8,2.7c0.1,18.3,0.1,36.6,0,54.9
		c0,1.8,0.3,2.5,2.4,2.5c7.4,0,7.5,0.1,7.3-7.2c-0.2-5.5-0.1-10.6,6-13.4c2.7,4.2,6,8.5,8.1,13.2c2.8,6.2,7.1,8.5,13.6,7.4
		c0.8-0.1,1.9,0.3,2.3-0.4c0.5-0.9-0.5-1.5-0.9-2.1C663,2061.2,658,2053.6,652.9,2046.1z"/>
	<path d="M573.5,2039.1c-3.5-7.5-9.2-12.1-17.7-12.3c-8.2-0.3-14.7,3.1-18.7,10.3c-4.5,8.1-4.5,16.6-0.5,24.9
		c3.3,6.9,9.4,10.1,17,10.4c7.8,0.3,14.5-1.9,18.8-8.8c1-1.7,2.6-3.7,1.9-5.3c-0.6-1.5-3.2-0.3-4.9-0.6c-0.5-0.1-1,0-1.5-0.1
		c-1.5-0.1-2.4,0.3-3.2,1.8c-2.5,4.5-7.1,6.3-12.4,5.1c-4.7-1-8.2-5.2-8.6-10.1c-0.1-1.6,0.3-2.1,1.9-2.1c4.6,0.1,9.3,0.1,14,0.1
		c2.7,0,5.3,0,8,0c8.6,0,9.3-1,7.1-9.7C574.4,2041.4,574.1,2040.2,573.5,2039.1z M563.8,2045.7c-3.1,0-6.2,0-9.3,0c-3,0-6-0.1-9,0
		c-1.2,0-1.9-0.2-1.7-1.7c0.4-5.1,5.7-9.7,11.2-9.6c5.1,0.1,10,4.7,10.4,9.8C565.6,2045.6,564.8,2045.7,563.8,2045.7z"/>
	<path d="M379.5,2027c-10.7-2-20.5,2.1-24.5,10.8c-3.6,7.8-3.5,15.8,0.1,23.6c1.5,3.3,3.9,5.9,6.9,7.7c7.9,4.5,16,4.6,24,0.4
		c7.9-4.2,10.2-11.7,10.3-20.1c0-1,0.1-2.1,0-3.1C395.4,2036.4,388.7,2028.8,379.5,2027z M384.7,2058c-2.2,4.3-5.6,6.8-10.6,6.7
		c-5.1-0.1-8.3-2.7-10.3-7.1c-2.4-5.3-2.4-10.9,0.1-16.2c1.9-4.3,5.3-6.8,10.1-7c5-0.1,8.5,2.3,10.7,6.6c1.5,2.8,1.8,5.9,1.9,8.2
		C386.4,2052.8,386,2055.5,384.7,2058z"/>
	<path d="M462.5,2040.1c-0.1-7-4.3-11.9-11-13.1c-7.1-1.2-13.2,0.3-17.9,6.8c-0.6-6.2-0.6-6.2-6.2-6.2c-0.1,0-0.2,0-0.3,0
		c-2.1-0.3-2.8,0.6-2.8,2.7c0.1,11.5,0,22.9,0,34.3c0,6.4,0.1,6.2,6.7,6.4c2.5,0.1,3.1-0.7,3.1-3.1c-0.2-7.5-0.1-15.1-0.1-22.6
		c0.1-6.7,4.5-11.4,10.6-11.3c5.7,0.1,8,3.3,8,10.7c0,6.2,0,12.6,0,18.8c0,7.5,0,7.5,7.6,7.3c1.8-0.1,2.2-0.6,2.2-2.4
		C462.5,2059.3,462.6,2049.7,462.5,2040.1z"/>
	<path d="M610.4,2039c1.4,3.1,2.9,4,5.4,3.4c1.2,0,2-0.1,2.7,0c2.7,0.3,3.3-0.7,2.5-3.1c-0.9-2.8-2.1-5.3-4.3-7.4
		c-6.5-6.8-24.7-8.3-32.2,3.1c-4.4,6.6-5.1,13.9-3.5,21.4c1.9,9.8,9.5,15.9,19.6,16.1c10.9,0.3,17.5-4.6,20.3-14.5
		c0.8-2.8,0.1-3.5-2.6-3.2c-1.3,0.1-2.7,0.1-4,0c-1.9-0.2-2.6,0.3-3.1,2.4c-1,4.1-3.7,6.8-8.1,7.5c-4.5,0.6-8.4-1-10.4-5.1
		c-3.6-6.8-3.7-14,0.4-20.6C596.8,2032.8,607.6,2032.7,610.4,2039z"/>
	<path d="M414.1,2049.6c0-5,0-9.9,0-14.9c0-7.1,0-6.9-7.1-6.9c-2.2,0-2.7,0.8-2.7,2.9c0.1,11.1,0.1,22.3,0.1,33.5c0,7.1,0,7,7.1,7.1
		c2.5,0.1,2.8-0.9,2.8-3.1C414.1,2062,414.1,2055.8,414.1,2049.6z"/>
	<path d="M410.8,2011.2c-6.7,0.3-6.6,0.1-6.5,6.7c0,1.8,0.5,2.7,2.4,2.5c0.8-0.1,1.6,0,2.5,0c5.1,0,5.1,0,5.1-5c0-0.2,0-0.4,0-0.6
		C414.6,2012.2,413.7,2011.2,410.8,2011.2z"/>
</g>
<g>
	<path d="M252.7,1692.4c-13.1,0.1-26.2,0-39.2,0c-1,0-2,0.1-3-0.3c-1.1-1.6-2.5-2.9-4-4.1c-13.6-11-38.5-10.8-51.8,0.5
		c-4.9,4.1-7.5,9.2-7.4,15.8c0.2,11.9,0.3,23.8,0,35.7c-0.2,8,3.3,13.6,9.6,17.9c6.5,4.5,13.8,6.4,21.5,6.8
		c10.1,0.6,19.5-1.5,27.8-7.5c1-0.7,2.4-1.3,2.7-2.8c0.6,0.8,0.2,1.6,0,2.4c-1.6,6.7-3.2,13.4-4.7,20.1c-0.2,0.5-0.4,1-0.6,1.5
		c-0.4,0.5-0.7,1.1-0.2,1.6c0.4,0.4,0.7-0.2,0.8-0.5c0.2-0.3,0.3-0.7,0.5-1c14-20,27.9-39.9,41.9-59.9c-0.2-0.2-0.3-0.3-0.5-0.5
		c-7.7,3.1-15.3,6.3-23.6,9.7c1.5-3.9,2.8-7.1,3.9-10.5c0.5-1.6,1.3-2.2,3.1-2.1c5.9,0.1,11.9,0,17.8,0.1c1.8,0,2.4-0.5,2.8-2.3
		c1.4-6,2.8-12.1,4.4-18C255.3,1692.8,254.7,1692.4,252.7,1692.4z M155,1692.5c11.8-12.3,38.4-12.7,50.8-0.9c-0.3,0-0.6,0-0.9,0
		c0.4,0.2,0.9,0.4,1.4,0.5c-4.8,0.7-9.7,0.2-14.5,0.3c-5.4,0.1-5.4,0-6.7,5.3c-1.2,5.1-2.4,10.3-3.7,15.3c-0.5,1.7-0.1,2.2,1.7,2.1
		c5.8-0.1,11.5,0,17.3,0c1.3,0,2.6,0,1.3,1.8c-0.2-0.1-0.5-0.1-0.7-0.2c0,0,0,0,0,0.1c0,0.2,0,0.3,0,0.5c-6.7,3.5-13.8,5.7-21.4,5.2
		c-8.7-0.5-16.9-2.8-23.5-8.8C149.1,1707.3,148.7,1699.1,155,1692.5z M150.6,1713c1.5,1.4,2.6,2.7,3.9,3.7
		c13.5,10.2,28.2,11.3,43.8,5.7c0.6-0.2,1.3-0.5,1.9-0.7v0c0.2-0.1,0.4-0.2,0.6-0.3c-0.6,3.6-1.2,7.2-2.7,10.5
		c-0.2,0.1-0.4,0.2-0.6,0.2c-12.2,4.6-24.2,4.2-35.9-1.6c-5.4-2.6-9.5-6.6-10.8-12.8C150.4,1716.4,150.5,1714.9,150.6,1713z
		 M150.6,1726.5c13.4,12.7,29.1,14,45.9,9.5c0.1,0,0.2-0.1,0.3-0.1l0,0c0.9,1.1,0.1,2.2-0.2,3.3c-0.6,2.5-0.8,5-2.1,7.3
		c-0.2,0.1-0.4,0.1-0.7,0.2c-8.8,2.2-17.6,2.3-26.4-0.4c-4.1-1.3-7.9-3.2-11.2-6.1C152.3,1736.6,150,1732.3,150.6,1726.5z
		 M162.4,1757.3c-3.3-1.6-6.2-3.7-8.5-6.5c-2.8-3.4-3.9-7.3-3.2-12.1c1.7,1.7,3,3.3,4.6,4.6c6.3,5.1,13.6,7.4,21.5,8
		c5.5,0.4,10.9,0.2,16.3-0.9c0.2,0,0.5-0.1,0.7-0.1c-0.3,3.4-1.4,6.7-2.3,10.1c-0.1-0.1-0.3-0.2-0.4-0.3c0,0.1,0,0.1,0,0.2
		c0,0.1,0,0.1,0,0.1C181.2,1762.5,171.6,1761.8,162.4,1757.3z M250.8,1697.8c-1.1,3.9-2,7.8-2.8,11.7c-0.4,2.1-1.4,2.6-3.4,2.5
		c-5.5-0.1-11.1,0-16.6-0.1c-1.8,0-2.6,0.6-3.3,2.3c-2.7,6.4-5.5,12.7-8.6,19.8c7.3-3.2,13.9-6,20.5-8.9c0.2,0.1,0.3,0.3,0.5,0.4
		c-8.1,11.9-16.1,23.9-24.2,35.8c-0.7-0.4-0.5-1.1-0.6-1.6c0.7-3.7,1.4-7.4,2.2-11.5c-3.3,1.4-6.2,2.5-9.1,3.8
		c-2.9,1.2-5.8,2.5-9.2,4c1.5-6.4,2.8-12.3,4.2-18.2c1.8-7.8,3.6-15.7,5.6-23.5c0.5-2.1-0.1-2.4-2-2.4c-5.5,0.1-11.1,0-16.6,0.1
		c-1.8,0-2.6-0.2-2-2.3c1.1-3.9,2-8,2.9-12c0.4-1.7,1-2.3,2.8-2.3c19.2,0.1,38.4,0.1,57.6,0C250.6,1695.5,251.4,1695.7,250.8,1697.8
		z"/>
	<path d="M294.1,1736.1c-1.8,5.1-5.8,7.7-11,8.3c-5.2,0.6-9.6-1.2-12.6-5.6c-2.7-3.9-3.7-8.3-3.3-12.7c-0.2-4.7,0.6-8.9,3-12.7
		c2.9-4.7,7.4-6.7,12.7-6.2c5.7,0.6,9.8,3.6,11.5,9.3c0.4,1.2,1.4,3.2-0.6,3.6c-1.9,0.4-4.9,1.6-5.8-1.3c-1.3-3.9-3.6-5.8-7.5-5.2
		c-4.1,0.6-5.4,4-5.9,7.4c-0.5,4.1-0.8,8.4,0.7,12.4c1,2.9,2.9,4.7,6,4.7c3,0,5.5-1.2,6.2-4.3c1-3.9,4.1-2.7,6-2.2
		C296.1,1732.3,294.7,1734.6,294.1,1736.1z"/>
	<path d="M330.9,1715c-2.3-4.9-6.4-7.6-11.8-7.9c-5-0.2-9.2,1.9-11.9,6.3c-2.4,3.8-3.3,7.9-2.9,12.4c0,1.4-0.1,2.9,0,4.3
		c0.8,7.9,6.2,13.7,13.2,14.4c6.4,0.6,12.4-3.6,14.5-10.7C333.9,1727.4,333.8,1721.1,330.9,1715z M324.7,1733.5
		c-1.1,2.7-3,4.4-5.9,4.6c-3.1,0.1-5.3-1.5-6.4-4.4c-1.9-5.2-1.9-10.5,0-15.7c1-2.8,3.3-4.5,6.4-4.4c2.9,0.1,4.8,1.9,5.9,4.5
		c1.1,2.5,1,5.1,1.3,7.5C325.8,1728.4,325.8,1731,324.7,1733.5z"/>
	<path d="M351,1741.5c0.1,2.9-1.3,3.2-3.6,3.1c-2.3,0-3.7-0.3-3.6-3.1c0.1-10.5,0.1-20.9,0-31.4c0-2.9,1.4-3.1,3.6-3.1
		c2.3,0,3.7,0.3,3.6,3.1c-0.2,5.2-0.1,10.5-0.1,15.7S350.8,1736.2,351,1741.5z"/>
	<path d="M390.7,1740.5c0,1.4,1,3.7-1.3,3.9c-2.4,0.2-5.2,1.3-6.9-1.9c-3.4-6.4-7-12.6-10.5-18.9c-0.4-0.7-0.8-1.3-2.1-1.8v14.9
		c0,1.4-0.1,2.9,0,4.3c0.3,2.7-0.7,3.6-3.5,3.6c-3,0-3.4-1.2-3.4-3.8c0.1-10,0-19.9,0.1-29.9c0-1.4-0.9-3.6,1.5-3.8
		c2.3-0.2,5-1.1,6.6,1.9c3.5,6.5,7.1,12.8,10.7,19.2c0.3,0.6,0.7,1.1,1,1.6c0.3,0,0.6-0.1,0.8-0.1c0-6.5,0.1-13-0.1-19.5
		c-0.1-3.1,1.4-3.3,3.8-3.3c2.5,0,3.4,0.6,3.4,3.3C390.6,1720.3,390.8,1730.4,390.7,1740.5z"/>
	<path d="M427.2,1710c0,2.2-0.4,3.3-3,3.4c-7.5,0.2-7.4,0.3-7.4,7.7c0,6.8-0.1,13.6,0.1,20.4c0.1,3-1.4,3-3.6,3.1
		c-2.2,0-3.7-0.2-3.6-3.1c0.2-8.1,0-16.2,0.1-24.3c0.1-2.9-0.7-4.2-3.7-3.8c-1,0.1-2.1-0.1-3.1,0c-2.3,0.2-3.6-0.3-3.6-3.1
		c0-2.7,0.9-3.4,3.4-3.3c3.5,0.2,7.1,0,10.6,0c3.7,0,7.3,0.1,11,0C426.7,1706.9,427.2,1708,427.2,1710z"/>
	<path d="M459.4,1741.5c0,3.3-1.8,3.1-4,3.1c-5.2-0.1-10.5-0.1-15.7,0c-2.6,0.1-3.4-0.9-3.3-3.4c0.2-5.1,0-10.2,0-15.3
		c0-5.4,0.1-10.7,0-16.1c0-2,0.6-2.8,2.7-2.8c5.9,0.1,11.8,0.1,17.7,0c2.7-0.1,2.5,1.5,2.5,3.3c0.1,2-0.3,3.2-2.7,3.1
		c-3.5-0.2-7.1,0-10.6,0c-3.4-0.1-2.5,2.5-2.4,4.2c0.1,1.7-1.4,4.6,2.3,4.6c2.7,0,5.5,0.1,8.2,0c2.4-0.1,2.9,0.9,2.8,3
		c-0.1,1.9-0.1,3.3-2.7,3.2c-2.5-0.2-5,0.1-7.5-0.1c-2.5-0.2-3.5,0.7-3.4,3.3c0.2,8.1-0.8,6.6,6.6,6.8c1.8,0,3.7,0.1,5.5,0
		C458,1738.1,459.4,1738.4,459.4,1741.5z"/>
	<path d="M490.9,1741.5c0,2.5-1,3.1-3.3,3c-5.2-0.1-10.5-0.1-15.7,0c-2.4,0.1-3.2-0.7-3.2-3.1c0.1-5.4,0-10.7,0-16.1
		c0-5,0.1-9.9-0.1-14.9c-0.1-2.8,0.8-3.6,3.6-3.5c2.6,0,3.7,0.5,3.7,3.4c-0.2,8,0.1,16-0.1,23.9c-0.1,3.4,1,4.4,4.2,4
		c2.5-0.2,5,0.1,7.4-0.1C490,1738.1,490.9,1738.9,490.9,1741.5z"/>
	<path d="M523.2,1741.3c0.1,3.1-1.5,3.3-3.9,3.3c-5.2-0.1-10.5-0.1-15.7,0c-2.5,0.1-3.5-0.6-3.4-3.3c0.2-5.1,0.1-10.2,0.1-15.3
		c0-5.2,0.1-10.5,0-15.7c-0.1-2.3,0.5-3.3,3-3.2c5.6,0.2,11.3,0.1,16.9,0c2.2,0,3,0.7,2.9,3c-0.1,2.1-0.1,3.6-2.9,3.4
		c-3.4-0.2-6.8,0.1-10.2-0.1c-3.7-0.1-2.6,2.5-2.6,4.4c0,1.8-1.1,4.5,2.6,4.4c2.5-0.1,5,0.1,7.5,0c2.6-0.1,3.4,0.8,3.4,3.4
		c0,2.8-1.5,2.9-3.5,2.8c-1.6-0.1-3.1,0-4.7,0c-5.3,0-5,0-5.4,5.3c-0.2,3.8,0.9,5.2,4.8,4.8c2.5-0.3,5,0,7.5-0.1
		C521.7,1738.2,523.1,1738.3,523.2,1741.3z"/>
	<path d="M559.5,1732.5c0,7.9-1.1,9.6-7.3,11.2c-7.9,2.1-15-0.3-18-6.5c-3.7-7.6-3.6-15.6,0.1-23.1c2.5-5.1,7.2-7.3,12.7-6.9
		c5.4,0.4,9.9,2.6,11.7,8.3c0.4,1.3,1.7,3.2-0.1,3.8c-1.9,0.6-4.8,1.5-6-0.9c-1.7-3.6-3.9-5.7-7.9-4.6c-4.1,1-5.2,4.6-5.6,8.2
		c-0.4,3.6-0.5,7.3,0.7,10.9c1.4,4.1,4.8,6.1,8.9,5.4c2.8-0.5,3.9-1.9,3.9-4.8c0-3.1-1.8-3-3.8-2.8c-2.2,0.2-2.6-1-2.6-2.9
		c0-2,0.6-3,2.7-2.8c1,0.1,2.1,0,3.1,0C559.5,1724.9,559.5,1724.9,559.5,1732.5z"/>
	<path d="M596.1,1741.8c-1.7-3.4-3.2-6.9-5-10.2c-1-1.8-0.8-2.9,0.9-4.2c4.3-3.6,4.5-8.5,3-13.3c-1.5-4.9-5.7-6.6-10.4-6.9
		c-3.6-0.3-7.3,0-11-0.1c-2.4-0.1-3.2,0.8-3.2,3.2c0.1,5.1,0,10.2,0,15.3c0,5,0.1,10,0,14.9c-0.1,2.8,0.3,4.3,3.8,4.2
		c3.5,0,3.4-1.8,3.3-4.2c-0.1-2-0.1-3.9,0-5.9c0.1-1.4-0.9-3.4,1.5-3.8c2.1-0.3,4.2-0.4,5.2,2.3c0.9,2.4,2.5,4.7,3.3,7.1
		c1.2,3.6,3.4,4.7,7.1,4.4C597.2,1744.4,597,1743.6,596.1,1741.8z M581.4,1724.4c-3.9,0-3.9,0-3.9-7c-0.1-1.6-0.9-4.7,4-4.2
		c5.1,0.5,7.1,1.7,7.1,5.7C588.6,1723,586.7,1724.4,581.4,1724.4z"/>
	<path d="M634.3,1740.5c-3.3-10.1-6.9-20.1-10.2-30.1c-0.7-2.2-1.5-3.5-4.3-3.5c-2.8,0-3.9,1.2-4.7,3.6
		c-3.3,10.1-6.7,20.1-10.3,30.1c-1.2,3.3-0.5,4.4,2.9,3.8c2.6,0.6,4-0.6,4.3-3.1c0.4-3.7,2.3-4.8,6.1-4.7c4.6,0.1,8.6-0.3,9.6,6
		c0.5,3.5,4.3,2.1,6.3,1.7C636.7,1743.8,634.7,1741.7,634.3,1740.5z M621.8,1730.5c-1.3,0-2.6,0-3.9,0c-1.6,0-2.2-0.7-1.7-2.2
		c1-3.4,2-6.7,3.1-10.1c0.3,0,0.6,0,0.9,0c1,3.3,2,6.7,3.2,10C623.7,1729.8,623.5,1730.6,621.8,1730.5z"/>
	<path d="M660.6,1707.5c-4.4-0.9-8.9-0.2-13.3-0.5c-2.5-0.2-3.1,0.9-3.1,3.2c0.1,5.2,0,10.5,0,15.7s0.1,10.5,0,15.7
		c0,2.2,0.7,2.8,2.9,3c3.6,0.3,4.6-1.1,4.3-4.4c-0.2-2.6-0.8-5.7,0.3-7.7c1.5-2.7,5-0.9,7.6-1.2c6.4-0.8,10.7-4.8,11.1-10.7
		C670.7,1713.8,667.1,1708.9,660.6,1707.5z M655.5,1725.1c-5.5,0.5-4-3.1-4.2-5.2c0-3.7-1.2-7.2,4.2-6.7c5.1,0.5,7.7,2.1,7.6,6.3
		C663.2,1723.5,661,1724.7,655.5,1725.1z"/>
	<path d="M708.3,1710.8c-0.2,5-0.1,10-0.1,14.9c0,5.4-0.1,10.8,0,16.1c0.1,2.9-1.5,2.8-3.5,2.7c-1.9,0-3.7,0.2-3.6-2.7
		c0.1-3.4,0.3-6.8,0-10.2c-0.7-6.4-5.7-2.3-8.6-3.1c-2.1-0.6-5.3-1.1-5,3.2c0.2,3.3-0.1,6.6,0.1,9.8c0.2,3-1.5,3-3.7,3
		c-2,0-3.5,0-3.5-2.8c0.1-10.6,0.1-21.2,0-31.9c0-2.7,1.3-3,3.4-2.9c2.1,0,4-0.2,3.8,2.9c-0.2,3.1,0,6.3-0.1,9.4
		c-0.1,2,0.7,2.7,2.7,2.8c10.8,0.7,10.8,0.7,10.8-10.4c0-2.4-0.9-5,3.4-4.9C707.6,1707,708.4,1707.9,708.3,1710.8z"/>
	<path d="M252.7,1692.4c-13.1,0.1-26.2,0-39.2,0c-1,0-2,0.1-3-0.3c-1.5-0.4-3-0.5-4.6-0.5h-0.1c-0.3,0-0.6,0-0.9,0
		c0.4,0.2,0.9,0.4,1.4,0.5c-4.8,0.7-9.7,0.2-14.5,0.3c-5.4,0.1-5.4,0-6.7,5.3c-1.2,5.1-2.4,10.3-3.7,15.3c-0.5,1.7-0.1,2.2,1.7,2.1
		c5.8-0.1,11.5,0,17.3,0c1.3,0,2.6,0,1.3,1.8c-0.2-0.1-0.5-0.1-0.7-0.2c0,0,0,0,0,0.1c0,0.2,0,0.3,0,0.5c0,1.4-0.6,2.8-0.9,4.2
		c0,0.1,0,0.1,0,0.2c0.2-0.1,0.4-0.2,0.6-0.3c-0.6,3.6-1.2,7.2-2.7,10.5c-0.2,0.1-0.4,0.2-0.6,0.2c0.1,1.4-0.6,2.6-1,3.9
		c0.1,0,0.2-0.1,0.3-0.1l0,0c0.9,1.1,0.1,2.2-0.2,3.3c-0.6,2.5-0.8,5-2.1,7.3c-0.2,0.1-0.4,0.1-0.7,0.2c-0.1,1.3-0.5,2.5-0.8,3.7
		c0.2,0,0.5-0.1,0.7-0.1c-0.3,3.4-1.4,6.7-2.3,10.1c-0.1-0.1-0.3-0.2-0.4-0.3c0,0.1,0,0.1,0,0.2c0,0.1,0,0.1,0,0.1
		c0.3,1.2,1.1,1.5,2.2,1c5.2-2.4,10.7-4,15.6-7c0.6,0.8,0.2,1.6,0,2.4c-1.6,6.7-3.2,13.4-4.7,20.1c-0.1,0.6-0.7,1.3,0.5,1.5
		c14-20,27.9-39.9,41.9-59.9c-0.2-0.2-0.3-0.3-0.5-0.5c-7.7,3.1-15.3,6.3-23.6,9.7c1.5-3.9,2.8-7.1,3.9-10.5
		c0.5-1.6,1.3-2.2,3.1-2.1c5.9,0.1,11.9,0,17.8,0.1c1.8,0,2.4-0.5,2.8-2.3c1.4-6,2.8-12.1,4.4-18
		C255.3,1692.8,254.7,1692.4,252.7,1692.4z M250.8,1697.8c-1.1,3.9-2,7.8-2.8,11.7c-0.4,2.1-1.4,2.6-3.4,2.5
		c-5.5-0.1-11.1,0-16.6-0.1c-1.8,0-2.6,0.6-3.3,2.3c-2.7,6.4-5.5,12.7-8.6,19.8c7.3-3.2,13.9-6,20.5-8.9c0.2,0.1,0.3,0.3,0.5,0.4
		c-8.1,11.9-16.1,23.9-24.2,35.8c-0.7-0.4-0.5-1.1-0.6-1.6c0.7-3.7,1.4-7.4,2.2-11.5c-3.3,1.4-6.2,2.5-9.1,3.8
		c-2.9,1.2-5.8,2.5-9.2,4c1.5-6.4,2.8-12.3,4.2-18.2c1.8-7.8,3.6-15.7,5.6-23.5c0.5-2.1-0.1-2.4-2-2.4c-5.5,0.1-11.1,0-16.6,0.1
		c-1.8,0-2.6-0.2-2-2.3c1.1-3.9,2-8,2.9-12c0.4-1.7,1-2.3,2.8-2.3c19.2,0.1,38.4,0.1,57.6,0C250.6,1695.5,251.4,1695.7,250.8,1697.8
		z"/>
	<path d="M208.9,1754.4c-0.4,1.4-1.7,2-2.7,2.8c-8.3,5.9-17.8,8-27.8,7.5c-7.7-0.4-15-2.4-21.5-6.8c-6.2-4.3-9.7-10-9.6-17.9
		c0.3-11.9,0.2-23.8,0-35.7c-0.1-6.6,2.5-11.7,7.4-15.8c13.3-11.3,38.3-11.5,51.8-0.5c1.5,1.2,2.9,2.5,4,4.1c-1.4,0.6-2.7,0.4-4.1,0
		c0,0,0,0,0,0h0c-0.5-0.1-1-0.3-1.4-0.5c0.3,0,0.6,0,0.9,0c-12.4-11.7-39-11.3-50.8,0.9c-6.3,6.6-6,14.8,1,21.2
		c6.6,6.1,14.8,8.3,23.5,8.8c7.7,0.5,14.7-1.8,21.4-5.2c0-0.2,0-0.3,0-0.5c0,0,0,0,0-0.1c0.2,0,0.5,0.1,0.7,0.2
		c0.3,1.6-0.3,3-0.9,4.5c-0.2,0.1-0.4,0.2-0.6,0.3v0c-0.6,0.3-1.3,0.5-1.9,0.7c-15.6,5.6-30.3,4.5-43.8-5.7c-1.3-1-2.4-2.2-3.9-3.7
		c-0.1,1.9-0.1,3.4,0.2,4.8c1.3,6.2,5.5,10.2,10.8,12.8c11.7,5.7,23.8,6.2,35.9,1.6c0.2-0.1,0.4-0.1,0.6-0.2c0.2,1.5,0,3-1.3,4v0
		l0,0c-0.1,0-0.2,0.1-0.3,0.1c-16.8,4.5-32.5,3.1-45.9-9.5c-0.6,5.7,1.8,10.1,5.8,13.7c3.2,2.9,7,4.8,11.2,6.1
		c8.8,2.7,17.6,2.6,26.4,0.4c0.2-0.1,0.4-0.1,0.7-0.2c0.3,1.4-0.3,2.5-0.8,3.7c-0.2,0.1-0.5,0.1-0.7,0.1c-5.4,1.1-10.8,1.3-16.3,0.9
		c-7.9-0.6-15.3-2.9-21.5-8c-1.6-1.3-2.9-2.9-4.6-4.6c-0.6,4.8,0.5,8.7,3.2,12.1c2.3,2.8,5.2,4.9,8.5,6.5c9.2,4.5,18.8,5.2,28.7,3.1
		c0,0,0-0.1,0-0.1c0-0.1,0-0.1,0-0.2c0.1,0.1,0.3,0.2,0.4,0.3c0.2,1.7,1.2,0.7,1.8,0.4c4.4-1.8,8.9-3.8,13.3-5.6
		C207.3,1754.8,208,1754.2,208.9,1754.4z"/>
	<path d="M389.4,1744.4c-2.4,0.2-5.2,1.3-6.9-1.9c-3.4-6.4-7-12.6-10.5-18.9c-0.4-0.7-0.8-1.3-2.1-1.8v14.9c0,1.4-0.1,2.9,0,4.3
		c0.3,2.7-0.7,3.6-3.5,3.6c-3,0-3.4-1.2-3.4-3.8c0.1-10,0-19.9,0.1-29.9c0-1.4-0.9-3.6,1.5-3.8c2.3-0.2,5-1.1,6.6,1.9
		c3.5,6.5,7.1,12.8,10.7,19.2c0.3,0.6,0.7,1.1,1,1.6c0.3,0,0.6-0.1,0.8-0.1c0-6.5,0.1-13-0.1-19.5c-0.1-3.1,1.4-3.3,3.8-3.3
		c2.5,0,3.4,0.6,3.4,3.3c-0.1,10.1,0,20.2-0.1,30.3C390.7,1741.9,391.7,1744.2,389.4,1744.4z"/>
	<path d="M596.1,1741.8c-1.7-3.4-3.2-6.9-5-10.2c-1-1.8-0.8-2.9,0.9-4.2c4.3-3.6,4.5-8.5,3-13.3c-1.5-4.9-5.7-6.6-10.4-6.9
		c-3.6-0.3-7.3,0-11-0.1c-2.4-0.1-3.2,0.8-3.2,3.2c0.1,5.1,0,10.2,0,15.3c0,5,0.1,10,0,14.9c-0.1,2.8,0.3,4.3,3.8,4.2
		c3.5,0,3.4-1.8,3.3-4.2c-0.1-2-0.1-3.9,0-5.9c0.1-1.4-0.9-3.4,1.5-3.8c2.1-0.3,4.2-0.4,5.2,2.3c0.9,2.4,2.5,4.7,3.3,7.1
		c1.2,3.6,3.4,4.7,7.1,4.4C597.2,1744.4,597,1743.6,596.1,1741.8z M581.4,1724.4c-3.9,0-3.9,0-3.9-7c-0.1-1.6-0.9-4.7,4-4.2
		c5.1,0.5,7.1,1.7,7.1,5.7C588.6,1723,586.7,1724.4,581.4,1724.4z"/>
	<path d="M708.3,1710.8c-0.2,5-0.1,10-0.1,14.9c0,5.4-0.1,10.8,0,16.1c0.1,2.9-1.5,2.8-3.5,2.7c-1.9,0-3.7,0.2-3.6-2.7
		c0.1-3.4,0.3-6.8,0-10.2c-0.7-6.4-5.7-2.3-8.6-3.1c-2.1-0.6-5.3-1.1-5,3.2c0.2,3.3-0.1,6.6,0.1,9.8c0.2,3-1.5,3-3.7,3
		c-2,0-3.5,0-3.5-2.8c0.1-10.6,0.1-21.2,0-31.9c0-2.7,1.3-3,3.4-2.9c2.1,0,4-0.2,3.8,2.9c-0.2,3.1,0,6.3-0.1,9.4
		c-0.1,2,0.7,2.7,2.7,2.8c10.8,0.7,10.8,0.7,10.8-10.4c0-2.4-0.9-5,3.4-4.9C707.6,1707,708.4,1707.9,708.3,1710.8z"/>
	<path d="M559.5,1732.5c0,7.9-1.1,9.6-7.3,11.2c-7.9,2.1-15-0.3-18-6.5c-3.7-7.6-3.6-15.6,0.1-23.1c2.5-5.1,7.2-7.3,12.7-6.9
		c5.4,0.4,9.9,2.6,11.7,8.3c0.4,1.3,1.7,3.2-0.1,3.8c-1.9,0.6-4.8,1.5-6-0.9c-1.7-3.6-3.9-5.7-7.9-4.6c-4.1,1-5.2,4.6-5.6,8.2
		c-0.4,3.6-0.5,7.3,0.7,10.9c1.4,4.1,4.8,6.1,8.9,5.4c2.8-0.5,3.9-1.9,3.9-4.8c0-3.1-1.8-3-3.8-2.8c-2.2,0.2-2.6-1-2.6-2.9
		c0-2,0.6-3,2.7-2.8c1,0.1,2.1,0,3.1,0C559.5,1724.9,559.5,1724.9,559.5,1732.5z"/>
	<path d="M330.9,1715c-2.3-4.9-6.4-7.6-11.8-7.9c-5-0.2-9.2,1.9-11.9,6.3c-2.4,3.8-3.3,7.9-2.9,12.4c0,1.4-0.1,2.9,0,4.3
		c0.8,7.9,6.2,13.7,13.2,14.4c6.4,0.6,12.4-3.6,14.5-10.7C333.9,1727.4,333.8,1721.1,330.9,1715z M324.7,1733.5
		c-1.1,2.7-3,4.4-5.9,4.6c-3.1,0.1-5.3-1.5-6.4-4.4c-1.9-5.2-1.9-10.5,0-15.7c1-2.8,3.3-4.5,6.4-4.4c2.9,0.1,4.8,1.9,5.9,4.5
		c1.1,2.5,1,5.1,1.3,7.5C325.8,1728.4,325.8,1731,324.7,1733.5z"/>
	<path d="M634.3,1740.5c-3.3-10.1-6.9-20.1-10.2-30.1c-0.7-2.2-1.5-3.5-4.3-3.5c-2.8,0-3.9,1.2-4.7,3.6
		c-3.3,10.1-6.7,20.1-10.3,30.1c-1.2,3.3-0.5,4.4,2.9,3.8c2.6,0.6,4-0.6,4.3-3.1c0.4-3.7,2.3-4.8,6.1-4.7c4.6,0.1,8.6-0.3,9.6,6
		c0.5,3.5,4.3,2.1,6.3,1.7C636.7,1743.8,634.7,1741.7,634.3,1740.5z M621.8,1730.5c-1.3,0-2.6,0-3.9,0c-1.6,0-2.2-0.7-1.7-2.2
		c1-3.4,2-6.7,3.1-10.1c0.3,0,0.6,0,0.9,0c1,3.3,2,6.7,3.2,10C623.7,1729.8,623.5,1730.6,621.8,1730.5z"/>
	<path d="M459.4,1741.5c0,3.3-1.8,3.1-4,3.1c-5.2-0.1-10.5-0.1-15.7,0c-2.6,0.1-3.4-0.9-3.3-3.4c0.2-5.1,0-10.2,0-15.3
		c0-5.4,0.1-10.7,0-16.1c0-2,0.6-2.8,2.7-2.8c5.9,0.1,11.8,0.1,17.7,0c2.7-0.1,2.5,1.5,2.5,3.3c0.1,2-0.3,3.2-2.7,3.1
		c-3.5-0.2-7.1,0-10.6,0c-3.4-0.1-2.5,2.5-2.4,4.2c0.1,1.7-1.4,4.6,2.3,4.6c2.7,0,5.5,0.1,8.2,0c2.4-0.1,2.9,0.9,2.8,3
		c-0.1,1.9-0.1,3.3-2.7,3.2c-2.5-0.2-5,0.1-7.5-0.1c-2.5-0.2-3.5,0.7-3.4,3.3c0.2,8.1-0.8,6.6,6.6,6.8c1.8,0,3.7,0.1,5.5,0
		C458,1738.1,459.4,1738.4,459.4,1741.5z"/>
	<path d="M523.2,1741.3c0.1,3.1-1.5,3.3-3.9,3.3c-5.2-0.1-10.5-0.1-15.7,0c-2.5,0.1-3.5-0.6-3.4-3.3c0.2-5.1,0.1-10.2,0.1-15.3
		c0-5.2,0.1-10.5,0-15.7c-0.1-2.3,0.5-3.3,3-3.2c5.6,0.2,11.3,0.1,16.9,0c2.2,0,3,0.7,2.9,3c-0.1,2.1-0.1,3.6-2.9,3.4
		c-3.4-0.2-6.8,0.1-10.2-0.1c-3.7-0.1-2.6,2.5-2.6,4.4c0,1.8-1.1,4.5,2.6,4.4c2.5-0.1,5,0.1,7.5,0c2.6-0.1,3.4,0.8,3.4,3.4
		c0,2.8-1.5,2.9-3.5,2.8c-1.6-0.1-3.1,0-4.7,0c-5.3,0-5,0-5.4,5.3c-0.2,3.8,0.9,5.2,4.8,4.8c2.5-0.3,5,0,7.5-0.1
		C521.7,1738.2,523.1,1738.3,523.2,1741.3z"/>
	<path d="M660.6,1707.5c-4.4-0.9-8.9-0.2-13.3-0.5c-2.5-0.2-3.1,0.9-3.1,3.2c0.1,5.2,0,10.5,0,15.7s0.1,10.5,0,15.7
		c0,2.2,0.7,2.8,2.9,3c3.6,0.3,4.6-1.1,4.3-4.4c-0.2-2.6-0.8-5.7,0.3-7.7c1.5-2.7,5-0.9,7.6-1.2c6.4-0.8,10.7-4.8,11.1-10.7
		C670.7,1713.8,667.1,1708.9,660.6,1707.5z M655.5,1725.1c-5.5,0.5-4-3.1-4.2-5.2c0-3.7-1.2-7.2,4.2-6.7c5.1,0.5,7.7,2.1,7.6,6.3
		C663.2,1723.5,661,1724.7,655.5,1725.1z"/>
	<path d="M294.1,1736.1c-1.8,5.1-5.8,7.7-11,8.3c-5.2,0.6-9.6-1.2-12.6-5.6c-2.7-3.9-3.7-8.3-3.3-12.7c-0.2-4.7,0.6-8.9,3-12.7
		c2.9-4.7,7.4-6.7,12.7-6.2c5.7,0.6,9.8,3.6,11.5,9.3c0.4,1.2,1.4,3.2-0.6,3.6c-1.9,0.4-4.9,1.6-5.8-1.3c-1.3-3.9-3.6-5.8-7.5-5.2
		c-4.1,0.6-5.4,4-5.9,7.4c-0.5,4.1-0.8,8.4,0.7,12.4c1,2.9,2.9,4.7,6,4.7c3,0,5.5-1.2,6.2-4.3c1-3.9,4.1-2.7,6-2.2
		C296.1,1732.3,294.7,1734.6,294.1,1736.1z"/>
	<path d="M427.2,1710c0,2.2-0.4,3.3-3,3.4c-7.5,0.2-7.4,0.3-7.4,7.7c0,6.8-0.1,13.6,0.1,20.4c0.1,3-1.4,3-3.6,3.1
		c-2.2,0-3.7-0.2-3.6-3.1c0.2-8.1,0-16.2,0.1-24.3c0.1-2.9-0.7-4.2-3.7-3.8c-1,0.1-2.1-0.1-3.1,0c-2.3,0.2-3.6-0.3-3.6-3.1
		c0-2.7,0.9-3.4,3.4-3.3c3.5,0.2,7.1,0,10.6,0c3.7,0,7.3,0.1,11,0C426.7,1706.9,427.2,1708,427.2,1710z"/>
	<path d="M490.9,1741.5c0,2.5-1,3.1-3.3,3c-5.2-0.1-10.5-0.1-15.7,0c-2.4,0.1-3.2-0.7-3.2-3.1c0.1-5.4,0-10.7,0-16.1
		c0-5,0.1-9.9-0.1-14.9c-0.1-2.8,0.8-3.6,3.6-3.5c2.6,0,3.7,0.5,3.7,3.4c-0.2,8,0.1,16-0.1,23.9c-0.1,3.4,1,4.4,4.2,4
		c2.5-0.2,5,0.1,7.4-0.1C490,1738.1,490.9,1738.9,490.9,1741.5z"/>
	<path d="M347.4,1744.6c-2.3,0-3.7-0.3-3.6-3.1c0.1-10.5,0.1-20.9,0-31.4c0-2.9,1.4-3.1,3.6-3.1c2.3,0,3.7,0.3,3.6,3.1
		c-0.2,5.2-0.1,10.5-0.1,15.7s-0.1,10.5,0.1,15.7C351.1,1744.3,349.7,1744.6,347.4,1744.6z"/>
	<path d="M204.7,1778.4c-0.2,0.3-0.3,0.7-0.5,1c-0.9,0.1-0.7-0.5-0.6-1c0.2-0.5,0.4-1,0.6-1.5C204.4,1777.4,204.2,1778,204.7,1778.4
		z"/>
	<path d="M204.3,1779.5c-0.2,0.4-0.4,0.9-0.8,0.5c-0.4-0.4-0.2-1.1,0.2-1.6C203.8,1778.8,203.8,1779.3,204.3,1779.5z"/>
	<path d="M212.9,1761.4c-1.3-0.1-0.7-1-0.6-1.6C212.4,1760.4,212.2,1761,212.9,1761.4z"/>
	<path d="M205.9,1691.6c-0.3,0-0.6,0-0.9,0c0.4,0.2,0.9,0.4,1.4,0.5C206.2,1691.9,206,1691.7,205.9,1691.6z M201,1716.8
		C201,1716.8,201,1716.8,201,1716.8c0,0.2,0,0.4,0,0.5l0.7-0.3C201.4,1716.9,201.2,1716.8,201,1716.8z"/>
	<path d="M191.1,1760.1c0,0.1,0,0.1,0,0.2c0,0.1,0,0.1,0,0.1c0.1,0,0.3-0.1,0.4-0.1C191.4,1760.2,191.3,1760.1,191.1,1760.1z"/>
	<path d="M212.9,1761.4c-0.1,0.5-0.4,1-1,0.9c-0.9-0.2-0.2-0.8-0.1-1.2c0.1-0.5,0.3-0.9,0.5-1.4
		C212.4,1760.4,212.2,1761,212.9,1761.4z"/>
</g>
<g>
	<path d="M505.9,1578.9c-0.1-4.7-0.6-9.3-2.4-13.6c-2.4-6-6.2-10.9-12-13.9c-6.5-3.4-13.3-2.9-20.1-0.9c-1.4,0.4-2.8,1.1-4.3,1.8
		c0-0.5,0-0.9,0-1.3c0-8.7,0.1-17.3,0.1-26c0-0.5,0-1.1,0-1.6c0-0.4-0.2-0.7-0.7-0.6c-1,0.2-1.9,0.3-2.9,0.5
		c-7.4,1.4-14.7,2.8-22.1,4.2c-1.8,0.3-1.8,0.3-1.7,2.2c0,0.7,0.3,1.1,1,1.2c0.8,0.2,1.6,0.4,2.4,0.6c1.6,0.4,3,1.1,3.6,2.7
		c0.6,1.5,1.2,3.1,1.4,4.6c0.3,3.9,0.5,7.8,0.5,11.8c0,15.4,0,30.8-0.1,46.2c0,4.9-0.1,9.8-0.2,14.7c0,0.6,0.2,0.8,0.8,0.9
		c1.1,0.2,2.1,0.5,3.1,0.6c5.3,0.9,10.5,2,15.9,2c4.2,0,8.4,0.2,12.5-0.8c10.3-2.4,17.9-8.1,22.2-18
		C505.1,1590.9,506,1585,505.9,1578.9z M486.2,1583.4c-0.1,6.4-1.4,12.6-4.2,18.4c-1.2,2.6-2.8,4.8-5.2,6.5
		c-2.6,1.8-5.5,1.9-8.4,1.5c-0.7-0.1-0.8-0.6-0.8-1.2c-0.1-3.7-0.3-7.4-0.3-11.1c-0.1-4.7,0-9.5,0-14.2h-0.1c0-8.2,0-16.4,0-24.7
		c0-1.2,0-1.2,1.2-1.6c2-0.7,4.1-0.8,6.2-0.5c2.1,0.3,3.9,1.5,5.4,3c2.3,2.3,3.6,5.2,4.6,8.3
		C486.2,1572.9,486.3,1578.2,486.2,1583.4z"/>
	<path d="M338.8,1549.4c0,0.4-0.1,0.6-0.5,0.7c-0.9,0.2-1.7,0.5-2.5,0.7c-1.1,0.3-1.5,0.1-1.9-1c-0.8-1.9-1.5-3.8-2.3-5.6
		c-1.5-3.3-3.3-6.3-6.1-8.7c-2.8-2.4-6-3.9-9.7-3.9c-5.2-0.1-10.4,0-15.7,0c-0.6,11.5-0.8,23.1-0.7,34.8c1.7,0,3.4,0,5.1,0
		c1.6,0,3.3-0.2,4.9-0.3c3.1-0.3,5.3-2,6.8-4.6c1.2-2,1.7-4.3,2.3-6.6c0.1-0.6,0.4-0.8,1-0.8c1.1,0,2.1,0,3.3,0v30.3
		c-1.3,0-2.5,0-3.8,0c-0.1,0-0.3-0.4-0.4-0.6c-0.5-1.8-1-3.6-1.6-5.3c-0.5-1.1-1.2-2.2-1.9-3.2c-1.1-1.5-2.6-2.5-4.5-2.7
		c-3.6-0.3-7.3-0.5-11.1-0.8c0,2.6-0.1,5,0,7.4c0.2,5.9,0.5,11.9,0.8,17.8c0.2,2.6,0.7,5.2,1.8,7.6c1,2.2,2.7,3.6,5.2,4
		c1.6,0.3,3.3,0.6,4.9,0.9c0.6,0.1,1,0.4,1,1.1c0,0.7,0,1.4,0,2.1c0,0.7-0.4,0.9-1,0.9c-11.1,0-22.2,0-33.2,0c-3.6,0-7.3-0.1-10.9,0
		c-0.9,0-1.1-0.3-1.2-1.1c-0.2-2.6,0-2.9,2.5-3.4c0.8-0.2,1.6-0.3,2.4-0.5c3.2-0.5,5-2.5,6-5.5c1-3.1,1.2-6.3,1.4-9.5
		c0.7-12.9,0.5-25.7,0.4-38.6c-0.1-4.5-0.3-9.1-0.6-13.6c-0.1-2.1-0.6-4.1-1.1-6.1c-1-3.7-3.6-5.7-7.4-6.1c-1.1-0.1-2.3-0.3-3.5-0.5
		c-0.1-1.4-0.1-2.7-0.2-4.2c0.6-0.1,1.1-0.2,1.6-0.2c14.2,0,28.3,0,42.5,0c8.8,0,17.7,0,26.5,0c1.2,0,1.2,0,1.2,1.2
		c0.1,6.4,0.3,12.7,0.4,19.1C338.8,1546.3,338.8,1547.8,338.8,1549.4z"/>
	<path d="M389.8,1567.9c-2.7-8-7.6-14.1-15.5-17.4c-6.1-2.5-12.4-3-18.9-2c-10.5,1.7-18,7.4-22.7,16.9c-2,4.1-2.9,8.5-3.2,13
		c-0.4,5.9,0.1,11.8,2,17.5c2.5,7.5,7.2,13.2,14.5,16.7c4.4,2.1,9.1,2.9,13.9,2.7c0.9,0,1.8,0,2.7,0c0.9,0,1.8,0,2.7-0.2
		c8.6-1.3,15.6-5.2,20.6-12.4c3.5-5.1,5.4-10.8,5.8-17C392,1579.6,391.7,1573.7,389.8,1567.9z M372.1,1582.7c0,4.9-0.1,9.7-1,14.5
		c-0.6,3.3-1.4,6.5-3.4,9.3c-1.3,1.8-2.9,3.2-5.1,3.7c-3.2,0.6-5.6-0.6-7.5-3c-2.1-2.6-3.2-5.7-4.1-8.9c-1.2-4.5-1.7-9.1-1.7-13.8
		c-0.1-6-0.2-12.1,0.9-18.1c0.6-3.3,1.4-6.6,3.3-9.6c2-3.2,5.1-4.6,8.6-3.6c1,0.3,2,0.9,2.9,1.7c2.8,2.4,4.3,5.7,5.3,9.2
		c1.5,5.1,1.9,10.4,2,15.8C372.1,1580.9,372.1,1581.8,372.1,1582.7z"/>
	<path d="M564.5,1562.5c-2.8-6.5-7.4-11.1-14.2-13.2c-4.5-1.4-9.1-1.5-13.6-0.7c-9.7,1.6-17,6.6-21.6,15.3c-3,5.6-4.4,11.6-4.3,17.9
		c0.1,4.2,0.3,8.3,1.7,12.4c4.3,13.1,15.1,20.2,26.3,20.9c4.5,0.3,9,0.1,13.4-1.3c5.4-1.8,10-4.8,13.7-9.1c1-1.2,1-1.7,0-2.9
		c-0.7-0.9-0.9-0.9-1.9-0.4c-1.5,0.8-2.9,1.7-4.4,2.4c-3.3,1.5-6.8,1.6-10.3,1.5c-6.7-0.3-11.7-3.6-15.2-9
		c-3.3-5.1-4.1-10.9-4.1-17.1c0.5,0,0.8,0,1.2,0c11.8,0,23.7-0.1,35.5-0.1c0.7,0,0.9-0.2,0.9-0.8
		C567.5,1572.8,566.7,1567.5,564.5,1562.5z M529.9,1573.8c0.2-1.6,0.3-3.1,0.5-4.6c0.6-4.1,1.6-8,3.7-11.6c0.8-1.4,1.9-2.7,3.3-3.6
		c2.5-1.6,5.3-1.1,7.1,1.3c1.4,1.9,2.1,4.2,2.6,6.5c0.9,3.8,1,7.6,1.2,11.6C542.2,1573.5,536.1,1573.6,529.9,1573.8z"/>
	<path d="M616.5,1604.4c-2.8,4.6-6.9,7.4-11.9,9.2c-2.8,1-5.7,1.5-8.6,1.5c-2.7,0-5.5,0.2-8.2,0c-5.3-0.3-10.5-1.4-15.5-3.2
		c-0.6-0.2-0.9-0.5-0.9-1.2c0-2.9,0-5.8,0-8.7H571c0-2.9,0-5.8,0-8.7c0-0.6,0.2-0.9,0.7-1c0.2-0.1,0.4-0.2,0.6-0.2
		c1.9-0.5,2.1-0.4,2.8,1.4c1.3,3.3,2.8,6.4,4.9,9.2c2.2,2.9,4.9,5.1,8.6,5.8c2.9,0.5,5.8,0.6,8.6-1c5.4-3,5.5-10.5,2.5-13.4
		c-1.5-1.5-3.2-2.6-5.1-3.4c-3.2-1.4-6.5-2.8-9.7-4.1c-2.5-1.1-4.8-2.3-6.9-4c-3.9-3.4-5.6-7.7-5.9-12.8
		c-0.3-7.8,4.1-15.1,11.4-18.6c3.9-1.9,8.1-2.7,12.4-2.8c5.9-0.1,11.7,0.6,17.4,2.5c2.3,0.8,2.3,0.8,2.4,3.2
		c0.1,4.6,0.2,9.2,0.3,13.8c0,0.6-0.1,0.9-0.8,1.2c-2.4,0.8-2.5,0.8-3.4-1.5c-1.1-2.9-2.3-5.8-4.2-8.3c-2.7-3.6-6.3-5.6-10.9-5.4
		c-3.9,0.1-6.9,3.3-7.5,7.1c-0.6,3.8,0.8,6.7,3.9,8.8c2.9,2.1,6.2,3.5,9.5,5c3.4,1.5,6.8,2.9,9.8,5.1c4.5,3.2,6.8,7.6,6.9,13.1
		C619.3,1596.7,618.7,1600.7,616.5,1604.4z"/>
	<path d="M443.8,1551.8c-1.8,4.9-3.7,9.9-5.6,14.8c-0.4,1-0.4,1-1.4,0.6c-2.1-0.8-4.2-1.8-6.4-2.3c-3.2-0.8-6.4-0.3-9.4,1.2
		c-1.3,0.7-2,1.6-2,3.2c-0.3,9.9-0.3,19.8,0.3,29.7c0.1,2.1,0.4,4.2,0.9,6.2c0.5,2.3,2.1,3.7,4.5,3.9c1.5,0.2,3,0.4,4.5,0.5
		c0.5,0,0.7,0.2,0.7,0.7c0,1.1,0,2.1,0,3.2c-0.3,0-0.5,0.1-0.7,0.1c-11.9,0-23.8,0-35.7,0c-1.9,0-1.9,0-1.8-1.9
		c0.1-1.9,0.1-1.9,1.9-2.2c0.4-0.1,0.8-0.2,1.3-0.3c3-0.6,4.7-2.3,5-5.4c0.4-4.1,0.6-8.2,0.7-12.2c0.1-7.6,0-15.2-0.1-22.8
		c0-2.3-0.3-4.7-0.8-7c-0.4-2.4-1.9-4-4.5-4.4c-0.9-0.1-1.9-0.4-2.8-0.6c-0.5-0.1-0.7-0.3-0.7-0.8c0-0.1,0-0.1,0-0.2
		c-0.1-2.1-0.1-2.1,1.9-2.5c8.1-1.6,16.1-3.2,24.2-4.8c0.5-0.1,1.1-0.1,1.8-0.2c-0.2,4.4-0.3,8.7-0.5,13c0,0,0.1,0,0.1,0.1
		c0.2-0.3,0.3-0.5,0.5-0.8c1.6-3,3.6-5.8,6.2-8.1c4.7-4,10.1-5.3,16.1-3.7c0.1,0,0.3,0.1,0.4,0.1
		C444.3,1549.5,444.5,1549.8,443.8,1551.8z"/>
</g>
<g>
	<path d="M207.3,1357.5c-25.5,0-46.2,20.6-46.2,46c0,25.3,20.7,46,46,46c25.6,0,46.2-20.5,46.1-46.1
		C253.1,1378.1,232.7,1357.5,207.3,1357.5z M202.5,1420.9c7.6,2.2,16-0.8,20-7.6c1.4-2.4,3-3.2,5.6-3c2.6,0.2,5.3,0.2,8,0
		c3-0.3,3,1,2.2,3.3c-5.7,17.5-25.1,26.7-42.4,20.1c-13.7-5.2-22.5-19.5-20.7-33.7c2-15.8,13.7-27.3,29.5-28.9
		c14.2-1.5,28.4,7.6,33.3,21.3c1.5,4.1,1.5,4.1-2.8,4.1c-1.3,0-2.6,0-3.8,0c-0.6,0-1.3-0.1-1.9,0c-3.4,0.5-5.4-0.6-7.4-3.7
		c-4.2-6.6-12.9-9.1-20.4-6.6c-7.5,2.6-12.3,9.6-12.1,17.7C189.7,1411.9,195,1418.7,202.5,1420.9z"/>
	<g>
		<path d="M516.6,1393.7c-8.6-7.5-18.4-8.2-28-1.1c-2.5,1.9-2.3-0.1-2.3-1.7c0-4.6-0.4-9.2,0.1-13.7c0.6-5.5-1.3-7-6.7-6.7
			c-4.8,0.2-7.5,0.3-7.1,6.4c0.6,9.1,0.2,18.2,0.2,27.3c0,9.3-0.1,18.7,0.1,28c0.1,2.1-2,6.2,2.5,5.9c3.4-0.3,8.6,3.4,10-3.4
			c0.7-3.4,2-1.2,3.3-0.2c13.1,9.2,29.9,3.5,34.3-11.9C526,1412,525.4,1401.4,516.6,1393.7z M498.1,1427.7
			c-7.4-0.1-12.1-6-11.9-14.8c0.2-8.5,5-13.7,12.4-13.6c7.4,0.2,12.3,6.1,12,14.8C510.3,1422.4,505.3,1427.8,498.1,1427.7z"/>
		<path d="M580.7,1428.4c-7-3.6-3.5-9.7-4.5-14.2c0-8.4,1.2-16.7-6.6-22.3c-8.4-6-25.4-5.1-33.1,1.8c-2.2,1.9-3.7,4.3-4.6,7
			c-0.4,1.2-0.8,3.2,0.9,3.1c4.4-0.4,9.1,2.2,13.1-2.6c4.4-5.2,13.8-4.1,16.2,1.2c1.3,3,1.6,5.5-3.1,5.3c-5.4-0.2-10.9-0.3-16.2,1.2
			c-8,2.2-12.4,7.1-12.7,14.5c-0.3,6.1,2.1,10.7,7.6,13.2c7.8,3.5,15.7,3.9,22.8-1.7c2.8-2.2,3.6-3.3,6.2,0.5
			c3,4.4,9.1,4.1,13.2,2.3C582.7,1436.5,581.9,1429.1,580.7,1428.4z M551.3,1429c-3.7-0.1-7.7-1.1-7.4-5.5c0.5-7.6,6.8-6.4,12.2-6.8
			c1.7,1.6,6.3-2.6,6.5,2.8C562.8,1424.7,557.3,1429.1,551.3,1429z"/>
		<path d="M654.7,1416.5c9.1,0.3,18.2,0,27.3,0.1c2.9,0.1,4.5-0.5,4.4-3.8c-0.2-8.8-2.9-16.2-10.7-21c-9.2-5.7-23.2-4.9-31.3,1.6
			c-8,6.5-11,18.9-7.2,29.8c3.5,10,12.3,15.6,24.5,15.7c10.8,0.1,19.5-5.1,22.7-13.2c1.2-3,1.1-4.4-2.6-4.2
			c-4.5,0.3-8.8-0.8-12.5,4.2c-4.3,5.6-15.2,3.1-18.2-3.3C649.5,1418.8,649.2,1416.3,654.7,1416.5z M652.9,1401.7
			c3.2-3.6,7.4-4.1,11.9-3.1c3.8,0.9,7.5,3.6,7.1,7.2c-0.4,3.7-4.8,1.1-7.4,1.8c-1,0.3-2.1,0-3.2,0c-1.9,0-3.9,0.1-5.8,0
			c-1.6-0.1-3.8,1-4.7-0.9C649.9,1404.8,651.6,1403.1,652.9,1401.7z"/>
		<path d="M358.8,1388c-16,0-26.6,10.2-26.4,25.8c0.1,15.2,10.7,25.2,26.4,25.1c15.9-0.1,26-9.9,26-25.4
			C384.8,1398.1,374.6,1388,358.8,1388z M358.8,1427.7c-7.5,0.1-12.4-5.6-12.4-14.3c0.1-8.8,4.9-14.2,12.5-14.1
			c7.3,0.1,12,5.6,12.1,13.9C371.2,1421.9,366.3,1427.6,358.8,1427.7z"/>
		<path d="M463.9,1407.9c-0.8-17.7-17.4-25.9-32.1-16c-2.3,1.5-2.7,2-4.1-1c-2.1-4.7-6.9-2-10.3-2c-3.3,0-1.6,3.4-1.7,5.2
			c-0.2,6.3-0.1,12.6-0.1,18.9c0,6.7,0.4,13.5-0.1,20.2c-0.4,5.2,2,5.8,6.1,5.3c3.4-0.4,8.2,1.9,7.7-5.1c-0.5-7.3-0.4-14.7,0.1-22.1
			c0.5-8.2,4.7-12.2,11.7-11.8c6.3,0.3,9.2,4,9.4,12.3c0.2,7.6,0.2,15.2,0,22.8c-0.2,5.9,4.1,3.8,6.8,3.8c2.6-0.1,7,2.3,6.9-3.7
			C464,1425.7,464.4,1416.8,463.9,1407.9z"/>
		<path d="M621.3,1410.1c-4.9-1.8-10.2-2-15.3-2.9c-3.1-0.5-8.1,0-7.6-5c0.5-4.7,5.2-4.5,8.9-4.6c2.6-0.1,5.9,0.2,7.1,2.5
			c2.6,4.8,6.7,3.5,10.6,3.8c4.7,0.4,5.3-1.5,3.4-5.2c-4.5-8.9-12.7-10.3-21.4-10.8c-3.3-0.1-6.5,0.2-9.7,1.3
			c-8,2.6-12.5,8.2-12.3,15.6c0.2,6.6,4,10.4,12.9,12.3c4.9,1.1,9.9,1.5,14.8,2.4c2.2,0.4,4.2,1.5,4.2,4.2c0,2.5-1.5,4.2-3.8,4.7
			c-5.9,1.3-11.5,1.7-15.7-4.4c-3.3-4.7-8.9-2.8-12.3-1.5c-2.8,1.2,0.2,5.7,1.9,8.1c7.7,10.6,31.4,11.2,39.9,1.2
			C633.5,1424.3,630.7,1413.6,621.3,1410.1z"/>
		<path d="M325.5,1419.7c-5,0.4-11-3.4-14.7,4.1c-2.5,5-10.3,5.2-14.9,1.4c-5.9-5-6.2-17.6-0.4-23c4.3-4.1,12.1-4.3,15,0.6
			c2.5,4.2,5.3,5.1,8.8,4.5c8.6,0,8.9-0.5,5.4-7.6c-2.4-4.7-6.1-7.9-10.9-9.8c-10.3-4.1-23.3-1.6-30.2,5.9
			c-6.8,7.4-8.3,20.8-3.5,30.6c4.4,8.9,13.9,13.4,25.9,12.4c9.8-0.9,17.6-6.7,20.1-15.1C326.5,1422.3,328.2,1419.5,325.5,1419.7z"/>
		<path d="M399.6,1388.7c-2.8,0.2-7.4-2.6-7.4,3.9c0.2,13.9,0.2,27.8,0,41.7c-0.1,5.8,3.9,4.1,6.7,4c2.8-0.2,7.5,2.5,7.4-3.9
			c-0.2-6.9-0.1-13.9-0.1-20.8c0-6.9-0.2-13.9,0.1-20.8C406.6,1386.7,402.4,1388.5,399.6,1388.7z"/>
		<path d="M399,1367.9c-4.5,0.3-7.5,2.8-7.5,7.6c0,4.8,2.9,7.6,7.8,7.6c4.8,0,7.9-2.6,7.8-7.5C407.1,1370.8,404.2,1368.2,399,1367.9
			z"/>
	</g>
</g>
</svg>
