<svg width="104" height="72" viewBox="0 0 104 72" fill="none" xmlns="http://www.w3.org/2000/svg">
<path d="M77.9747 55.6185C76.7639 57.1104 75.6439 58.8762 73.3131 58.45C72.4352 58.2978 71.6179 57.902 70.4071 57.5062C70.9217 60.1854 69.5595 61.799 67.6222 63.0473C65.3217 64.5392 63.6265 62.7733 61.5076 61.525C62.0222 64.7523 60.4482 66.6095 58.0871 67.7055C55.2719 69.0147 53.7281 66.2441 52.0027 65.3003C51.246 66.9444 50.8222 68.6189 49.8233 69.8672C48.2492 71.8766 46.2211 71.9984 44.1627 70.4152C38.8048 66.305 33.5075 62.1035 28.1799 57.9324C25.6372 55.9534 23.1248 53.944 20.5821 51.9955C18.9475 50.7472 18.0696 49.1336 17.8275 47.0937C17.555 44.6885 17.2523 42.2833 17.0102 39.8781C16.7983 37.8077 17.4037 36.0114 18.7053 34.3369C23.1853 28.6435 27.6048 22.8893 32.0243 17.1655C35.021 13.2684 39.713 12.7813 43.2849 14.4253C44.6773 15.0647 44.6773 15.3996 43.5573 16.4348C39.4405 20.2101 35.2935 23.9244 31.207 27.7302C27.6048 31.0792 27.4837 35.1285 30.7529 38.8124C35.5962 44.2622 42.4978 45.3279 49.4297 41.4003C52.0027 39.9389 54.273 37.8991 56.5433 35.9505C57.633 35.0372 58.3292 34.7936 59.54 35.7374C65.4428 40.4565 71.4363 45.0843 77.3996 49.7425C79.3066 51.2952 79.5488 53.67 77.9747 55.6185Z" fill="#D62CDF"/>
<path d="M86.6624 38.5993C84.937 40.2129 83.151 41.7656 81.4861 43.4401C80.5477 44.384 79.8213 44.2622 78.8526 43.501C72.2839 38.3252 65.685 33.2103 59.1163 28.0041C57.966 27.0907 57.2698 27.1821 56.2709 28.1563C53.819 30.5007 51.3368 32.7841 48.7336 34.9153C46.0092 37.1074 42.8611 38.4166 39.3195 37.4119C37.8665 37.0161 36.5043 35.9505 35.2935 34.9762C34.113 34.0628 34.1735 32.9668 35.3843 31.8707C40.046 27.6997 44.6773 23.4372 49.3087 19.2053C51.2157 17.4699 53.1228 15.7649 54.9995 13.9686C56.5131 12.5072 58.2082 11.8983 59.5098 12.1723C62.8396 12.5985 65.4126 12.7812 67.925 13.2683C69.0147 13.4815 70.1953 14.0904 70.952 14.8515C76.2796 20.21 81.5467 25.6598 86.7834 31.0791C89.2051 33.5757 89.1143 36.3158 86.6624 38.5993Z" fill="#D62CDF"/>
<path d="M27.3324 9.67572C24.9713 7.84897 22.5497 6.05267 20.2189 4.13458C19.0081 3.12987 18.1605 3.31255 17.2827 4.49993C11.7432 11.6851 6.20372 18.8704 0.633967 26.0251C-0.274144 27.1821 -0.243874 28.0954 0.966941 29.0088C3.44911 30.8965 5.87074 32.845 8.32264 34.7326C8.65562 34.9762 9.0794 35.1284 9.65454 35.4329C10.1389 35.0066 10.7443 34.6717 11.1378 34.1542C12.6816 32.2361 14.1648 30.2571 15.6783 28.3086C19.7043 23.1023 23.7605 17.8656 27.7562 12.6594C28.9368 11.1371 28.846 10.8631 27.3324 9.67572ZM9.10967 28.5826C7.74751 28.6435 6.38534 27.3343 6.38534 25.9642C6.38534 24.716 7.71724 23.4068 9.01886 23.4068C10.381 23.4068 11.5918 24.5942 11.6221 25.9642C11.6524 27.3343 10.5021 28.5217 9.10967 28.5826Z" fill="#D62CDF"/>
<path d="M103.432 20.7275C97.3176 14.2425 91.2332 7.72712 85.1186 1.21172C84.2408 0.267897 83.4537 0.267898 82.5154 1.18127C80.2754 3.34293 78.0051 5.50458 75.7045 7.60534C74.6451 8.57961 74.5543 9.40164 75.5532 10.4672C81.6375 16.9218 87.6916 23.3763 93.7759 29.8308C94.0787 30.1657 94.5024 30.4093 94.9262 30.7137C95.3803 30.4093 95.7738 30.257 96.0765 29.983C98.5284 27.6691 100.98 25.3248 103.432 22.9805C104.219 22.2498 104.159 21.5191 103.432 20.7275ZM95.1684 24.2896C93.8668 24.2896 92.5349 22.8891 92.5651 21.5191C92.6257 20.149 93.8365 18.9921 95.1987 19.0225C96.5608 19.053 97.7414 20.2708 97.7111 21.6409C97.7111 22.9196 96.4095 24.2896 95.1684 24.2896Z" fill="#D62CDF"/>
</svg>
