<?xml version="1.0" encoding="utf-8"?>
<!-- Generator: Adobe Illustrator 24.2.1, SVG Export Plug-In . SVG Version: 6.00 Build 0)  -->
<svg version="1.1" id="Layer_1" xmlns="http://www.w3.org/2000/svg" xmlns:xlink="http://www.w3.org/1999/xlink" x="0px" y="0px"
	 viewBox="0 0 360 360" style="enable-background:new 0 0 360 360;" xml:space="preserve">
<style type="text/css">
	.st0{fill:#D62CDF;}
	.st1{fill:#000073;}
</style>
<rect x="799" y="160.8" class="st0" width="102.9" height="101.3"/>
<rect x="687.1" y="73.1" class="st0" width="191.3" height="44.4"/>
<ellipse class="st0" cx="1296" cy="211.3" rx="42.5" ry="68.8"/>
<g>
	<path class="st1" d="M902.9,256.5c0,10.9,0.2,21.8-0.1,32.7c-0.2,8-6.2,13.5-14.4,13.5c-32.7,0.1-65.5,0-98.3,0c0,0,0,0,0,0
		c-31.8,0-63.7,0-95.5,0c-13.2,0-22.6-5.8-27.5-18.1c-1.5-3.8-1.9-8.4-1.9-12.6C665,210.6,665,149,665,87.5
		c0-18.2,11.5-30.1,29.7-30.2c56.8-0.2,113.6-0.1,170.4,0c10.2,0,15.5,5.4,15.9,15.6c0.5,12.6,0.5,12.6-12.3,12.6
		c-51.1,0-102.2,0-153.4,0.1c-3.4,0-7.1,0.7-10,2.3c-4.4,2.5-5.7,7.1-4.4,11.6c1.3,4.7,4.4,7.6,9.3,8.4c2.1,0.3,4.3,0.3,6.4,0.3
		c56.6,0,113.3,0,169.9,0.1c11.3,0,16.4,5.2,16.4,16.7c0,10.9-0.2,21.8,0.1,32.7c0.1,4.2-1.1,5.6-5.4,5.5c-14.1-0.3-28.2-0.4-42.2,0
		c-18.5,0.6-31.4,10.4-39,26.8c-12.2,26.2,4.3,54.2,29.1,61.3c4.5,1.3,9.4,1.5,14.1,1.6c13.2,0.2,26.3,0.2,39.5,0
		C902,252.9,902.9,253.9,902.9,256.5z"/>
	<path class="st1" d="M910,187.7c0-4.3-1.6-6.1-6-6c-15.6,0.1-31.2-0.1-46.8,0.1c-14.9,0.2-25.8,11.4-25.9,26
		c-0.1,14.8,10.9,25.9,26.1,26.2c7.5,0.1,15,0,22.5,0c8.3,0,16.5,0,24.8,0c3.7,0,5.5-1.3,5.4-5.4C909.8,215,909.9,201.3,910,187.7z
		 M862.8,219c-5.9-0.2-11-5.9-10.7-11.6c0.3-5.8,6.1-11,11.7-10.6c6,0.4,10.9,5.7,10.6,11.6C874.2,214.4,868.8,219.3,862.8,219z"/>
</g>
<g>
	<path class="st1" d="M1290.6,94.8c-0.9,0-1.8,0-2.7,0C1288.8,94.8,1289.7,94.8,1290.6,94.8c1.8,0,3.7,0,5.5,0
		C1294.3,94.8,1292.4,94.8,1290.6,94.8z"/>
	<path class="st1" d="M1410.3,282.2c-3.1-0.8-4.1-2.9-4-6.1c0.1-6.7,0.1-13.5-0.2-20.2c-1-21.1-4.2-41.8-11.5-61.6
		c-12.1-32.9-33.6-57.6-64.9-73.6c-9.3-4.7-18.7-8.4-29.5-7.6c-7.9,0.6-15.9,0-23.8,0.1c-1.9,0-4,0.2-5.7,1
		c-10.7,5.3-21.9,9.8-31.8,16.3c-34.2,22.5-48.9,56.8-54.7,95.6c-2.4,16.1-2.3,32.6-2.9,48.9c-0.2,4.1-1.5,6.2-5.3,7.7
		c-6.2,2.3-9.5,8.3-9,15.1c0.5,7.3,4.3,12.6,11.3,13.7c7.6,1.2,15.5,1,23.2,1.9c6.1,0.6,12.1,1.8,18.1,2.9c4.7,0.9,9.2,2.6,13.9,3.4
		c19.8,3.3,39.6,6.1,59.8,4.2c10.2,0,20.4,0.6,30.5-0.2c10.1-0.7,20.5-1.6,30.2-4.3c16.9-4.8,34-6.7,51.3-7.2c0.6,0,1.2,0,1.8-0.2
		c2.6-1.1,5.6-1.7,7.7-3.4C1425.2,300.2,1420.2,284.8,1410.3,282.2z M1288.9,199.7c5.2,2.7,10.4,5.3,15.5,8
		c7.2,3.8,13.1,8.7,15.5,17c3.3,11.4-0.9,23-11,29.2c-2.5,1.5-3.9,3.1-4.2,6.2c-0.5,5.5-4.1,8.7-9,8.8c-4.7,0-7.9-2.4-8.9-7.8
		c-0.7-3.4-2.1-5.2-5.5-6.7c-6.8-2.9-11.6-8.2-14.8-15c-2.4-5.1-1-9.4,3.9-12.1c4.4-2.5,8.9-1.3,11.9,3.5c2.5,4.1,5.3,7.6,10.4,8.4
		c4.8,0.7,7.8-0.6,9.2-4.3c1.4-3.8,0.1-7.5-4-9.7c-5.5-3-11.1-5.8-16.6-8.8c-9.5-5-14.9-12.6-14.8-23.7c0.1-11.3,5.6-19.1,15.7-23.5
		c2.7-1.2,3.9-2.6,4.4-5.4c0.9-5.3,5.1-8.8,9.4-8.6c4.7,0.2,8.7,4.6,8.8,10.2c0.1,3.2,1.5,4.9,3.9,6.9c4.1,3.4,8,7.3,10.8,11.6
		c3.8,5.8,2.3,11.1-2.7,13.9c-4.7,2.6-9.8,0.6-13-5.1c-2.5-4.5-6.1-6.8-11.3-6.7c-3.3,0.1-6.5,0.5-7.5,4.3
		C1284,194.1,1284.9,197.6,1288.9,199.7z"/>
	<path class="st1" d="M1325.7,72.3c-2.6,6.5-6.3,12.6-9.3,18.9c-1.4,2.9-3.4,3.7-6.4,3.6c-4.6-0.1-9.2-0.1-13.8-0.1
		c-1.8,0-3.7,0-5.5,0c-0.9,0-1.8,0-2.7,0c0,0,0,0,0,0c-1.8,0-3.6,0-5.5,0.1c-3.7,0-7.4,0-11.1-0.2c-2.2-0.1-5-1.5-6.2-3.2
		c-6.5-9.9-11.9-20.6-13.9-32.4c-0.9-5.1-0.4-10.9,1.2-15.7c2.7-7.8,10.9-9.9,19.2-5.8c3.7,1.8,7.2,4.3,10.4,6.9
		c6.7,5.3,10.2,5,17.1,0c4.9-3.5,10.4-6.4,16.1-8.4c6.3-2.1,12.2,2.2,13.9,8.7C1331.8,54.4,1329.2,63.5,1325.7,72.3z"/>
</g>
<g>
	<path class="st1" d="M-250.1,145.3c0,6.8-4.8,11.8-11.7,11.8c-26.5,0-52.9,0-79.4,0c-5.2,0-8.8-2.6-10.8-7.2
		c-1.9-4.3-0.8-8.9,2.8-12.5c7.7-7.7,15.5-15.5,23.2-23.2c0.3-0.3,0.6-0.7,1.1-1.2c-2.2-1.9-4.3-3.7-6.6-5.5
		c-13.8-10.8-29.5-17-47-18.5c-25.2-2.1-47.7,4.7-67.2,20.9c-10,8.3-18,18.2-23.1,30.4c-1.8,4.3-3.7,8.6-5.6,12.9
		c-1.1,2.6-2.9,3.9-5.8,3.9c-11.5,0-23,0-34.5,0c-4.3,0-7-3.3-6-7.6c6.9-28,20.4-52.1,41.9-71.6c13.3-12,28.2-21.3,45.1-27.3
		c11.1-3.9,22.6-6.3,34.3-7.2c2.1-0.2,4.3-0.4,6.4-0.5h11.2c3,0.3,5.9,0.5,8.9,0.8c12.8,1.3,25.2,4.5,37.1,9.4
		c15.7,6.4,29.8,15.3,42.3,26.9c0.2,0.2,0.5,0.4,1,0.9c3.1-3.2,6.2-6.5,9.3-9.6c4.6-4.6,9.2-9.3,13.9-13.8c6.2-5.9,16.2-3.1,18.6,5
		c0.3,1.1,0.5,2.4,0.5,3.6C-250.1,92.6-250.1,118.9-250.1,145.3z"/>
	<path class="st0" d="M-254.8,210.1c-4.3,17.9-11.3,34.7-22.1,49.7c-18.5,25.7-42.7,43.6-73.4,52.2c-16,4.5-32.3,5.8-48.8,4.4
		c-31.1-2.8-58-15-81-35.9c-0.4-0.4-0.9-0.8-1.4-1.3c-0.4,0.4-0.8,0.7-1.1,1c-7.3,7.3-14.5,14.6-21.8,21.8
		c-5.9,5.8-15.1,4.1-18.5-3.3c-0.4-0.9-0.7-1.8-1-2.7v-83.6c0.7-2.7,1.9-5,4.1-6.8c2-1.7,4.2-2.7,6.9-2.7c0.5,0,1,0,1.5,0
		c25.9,0,51.9,0,77.8,0c3.2,0,6,0.7,8.4,2.8c5.1,4.5,5.4,11.8,0.5,16.7c-6.1,6.2-12.4,12.4-18.6,18.6c-1.9,1.9-3.8,3.8-5.8,5.7
		c4.8,4.5,9.8,8.3,15.3,11.6c16.4,9.8,34.1,14.4,53.1,12.8c31-2.6,54.9-17.2,71.3-43.6c3.5-5.6,5.6-11.9,8.3-18
		c0.5-1.1,0.9-2.2,1.4-3.3c0.9-2.1,2.5-3.3,4.9-3.3c11.5,0,23,0,34.5,0C-256.3,202.9-253.9,206.3-254.8,210.1z"/>
</g>
<g>
	<path class="st1" d="M265.8,244.4c-4,4.9-7.7,10.7-15.4,9.3c-2.9-0.5-5.6-1.8-9.6-3.1c1.7,8.8-2.8,14.1-9.2,18.2
		c-7.6,4.9-13.2-0.9-20.2-5c1.7,10.6-3.5,16.7-11.3,20.3c-9.3,4.3-14.4-4.8-20.1-7.9c-2.5,5.4-3.9,10.9-7.2,15
		c-5.2,6.6-11.9,7-18.7,1.8c-17.7-13.5-35.2-27.3-52.8-41c-8.4-6.5-16.7-13.1-25.1-19.5c-5.4-4.1-8.3-9.4-9.1-16.1
		c-0.9-7.9-1.9-15.8-2.7-23.7c-0.7-6.8,1.3-12.7,5.6-18.2c14.8-18.7,29.4-37.6,44-56.4c9.9-12.8,25.4-14.4,37.2-9
		c4.6,2.1,4.6,3.2,0.9,6.6c-13.6,12.4-27.3,24.6-40.8,37.1c-11.9,11-12.3,24.3-1.5,36.4c16,17.9,38.8,21.4,61.7,8.5
		c8.5-4.8,16-11.5,23.5-17.9c3.6-3,5.9-3.8,9.9-0.7c19.5,15.5,39.3,30.7,59,46C270.2,230.2,271,238,265.8,244.4z"/>
	<path class="st0" d="M294.5,188.5c-5.7,5.3-11.6,10.4-17.1,15.9c-3.1,3.1-5.5,2.7-8.7,0.2c-21.7-17-43.5-33.8-65.2-50.9
		c-3.8-3-6.1-2.7-9.4,0.5c-8.1,7.7-16.3,15.2-24.9,22.2c-9,7.2-19.4,11.5-31.1,8.2c-4.8-1.3-9.3-4.8-13.3-8c-3.9-3-3.7-6.6,0.3-10.2
		c15.4-13.7,30.7-27.7,46-41.6c6.3-5.7,12.6-11.3,18.8-17.2c5-4.8,10.6-6.8,14.9-5.9c11,1.4,19.5,2,27.8,3.6c3.6,0.7,7.5,2.7,10,5.2
		c17.6,17.6,35,35.5,52.3,53.3C302.9,172,302.6,181,294.5,188.5z"/>
	<path class="st1" d="M98.5,93.5c-7.8-6-15.8-11.9-23.5-18.2c-4-3.3-6.8-2.7-9.7,1.2c-18.3,23.6-36.6,47.2-55,70.7
		c-3,3.8-2.9,6.8,1.1,9.8c8.2,6.2,16.2,12.6,24.3,18.8c1.1,0.8,2.5,1.3,4.4,2.3c1.6-1.4,3.6-2.5,4.9-4.2c5.1-6.3,10-12.8,15-19.2
		c13.3-17.1,26.7-34.3,39.9-51.4C103.8,98.3,103.5,97.4,98.5,93.5z M38.3,155.6c-4.5,0.2-9-4.1-9-8.6c0-4.1,4.4-8.4,8.7-8.4
		c4.5,0,8.5,3.9,8.6,8.4C46.7,151.5,42.9,155.4,38.3,155.6z"/>
	<path class="st0" d="M349.9,129.8c-20.2-21.3-40.3-42.7-60.5-64.1c-2.9-3.1-5.5-3.1-8.6-0.1c-7.4,7.1-14.9,14.2-22.5,21.1
		c-3.5,3.2-3.8,5.9-0.5,9.4c20.1,21.2,40.1,42.4,60.2,63.6c1,1.1,2.4,1.9,3.8,2.9c1.5-1,2.8-1.5,3.8-2.4c8.1-7.6,16.2-15.3,24.3-23
		C352.5,134.8,352.3,132.4,349.9,129.8z M322.6,141.5c-4.3,0-8.7-4.6-8.6-9.1c0.2-4.5,4.2-8.3,8.7-8.2c4.5,0.1,8.4,4.1,8.3,8.6
		C331,137,326.7,141.5,322.6,141.5z"/>
</g>
</svg>
