<svg width="75" height="76" viewBox="0 0 75 76" fill="none" xmlns="http://www.w3.org/2000/svg">
<path d="M72.7957 61.3758C72.7957 64.7049 72.8568 68.0341 72.7651 71.3632C72.7038 73.8066 70.8679 75.4864 68.3588 75.4864C58.3528 75.517 48.3162 75.4864 38.2797 75.4864C28.5491 75.4864 18.7879 75.4864 9.05737 75.4864C5.01827 75.4864 2.14194 73.715 0.642577 69.9582C0.183588 68.7976 0.0612023 67.3927 0.0612023 66.1099C3.73435e-06 47.3568 0 28.5427 0 9.75909C0 4.20036 3.51892 0.56581 9.08799 0.535267C26.4684 0.474182 43.8487 0.504725 61.2291 0.535267C64.3503 0.535267 65.972 2.18456 66.0944 5.29989C66.2474 9.14824 66.2474 9.14824 62.3307 9.14824C46.6945 9.14824 31.0583 9.14824 15.3914 9.17878C14.3511 9.17878 13.2189 9.39258 12.3315 9.88126C10.9851 10.6448 10.5874 12.0498 10.9851 13.4242C11.3829 14.8597 12.3315 15.7454 13.8309 15.9897C14.4735 16.0814 15.1466 16.0814 15.7892 16.0814C33.1084 16.0814 50.4582 16.0814 67.7774 16.1119C71.2351 16.1119 72.7957 17.7001 72.7957 21.2125C72.7957 24.5416 72.7345 27.8708 72.8263 31.1999C72.8568 32.4827 72.4897 32.9103 71.1739 32.8797C66.8594 32.7881 62.5449 32.7575 58.261 32.8797C52.6001 33.063 48.6528 36.0561 46.3273 41.0651C42.5942 49.0672 47.6431 57.6191 55.2317 59.7876C56.6086 60.1847 58.108 60.2457 59.5462 60.2763C63.5853 60.3374 67.5938 60.3374 71.6329 60.2763C72.5203 60.2763 72.7957 60.5817 72.7957 61.3758Z" fill="#D62CDF"/>
<path d="M74.9682 40.3626C74.9682 39.0492 74.4786 38.4995 73.1322 38.53C68.3588 38.5606 63.5853 38.4995 58.8118 38.5606C54.2525 38.6216 50.9172 42.0424 50.8866 46.5016C50.856 51.0219 54.2219 54.4121 58.873 54.5037C61.1679 54.5343 63.4629 54.5037 65.7578 54.5037C68.2976 54.5037 70.8067 54.5037 73.3464 54.5037C74.4786 54.5037 75.0294 54.1067 74.9988 52.8544C74.907 48.7007 74.9376 44.5163 74.9682 40.3626ZM60.5253 49.9223C58.72 49.8613 57.1594 48.1203 57.2512 46.3794C57.343 44.608 59.1178 43.0198 60.8313 43.1419C62.6673 43.2641 64.1667 44.8828 64.0749 46.6848C64.0137 48.5174 62.3613 50.014 60.5253 49.9223Z" fill="#D62CDF"/>
</svg>
