<?xml version="1.0" encoding="utf-8"?>
<!-- Generator: Adobe Illustrator 24.2.1, SVG Export Plug-In . SVG Version: 6.00 Build 0)  -->
<svg version="1.1" id="Layer_1" xmlns="http://www.w3.org/2000/svg" xmlns:xlink="http://www.w3.org/1999/xlink" x="0px" y="0px"
	 viewBox="0 0 1024 225" style="enable-background:new 0 0 1024 225;" xml:space="preserve">
<g>
	<path d="M488.8,788c5.1,3.1,9.4,7.3,12.2,13.1c3.1,5.8,4.7,12.8,4.7,20.5s-1.6,14.3-5.1,20.1c-3.1,5.8-7.9,10.1-13.8,12.8
		c-5.9,3.1-13,4.6-20.5,4.6c-4.3,0-8.3-0.8-12.2-2.3c-3.9-1.2-7.5-3.5-10.2-6.2v40.2h-22.8V784.9h19.7l2,8.5
		c8.7-7,18.1-10.4,27.9-10.4C477.4,783,483.7,784.5,488.8,788z M476.2,835.9c3.9-3.5,5.9-8.1,5.9-13.9s-2-10.4-5.5-14.3
		c-3.5-3.9-8.3-5.4-13.4-5.4c-4.3,0-8.3,0.8-11.4,2.7c-3.1,1.5-5.5,4.3-7.5,7.7v17.4c1.2,3.5,3.5,6.2,6.3,8.1
		c3.1,1.9,6.7,3.1,11,3.1C467.5,841.3,472.3,839.4,476.2,835.9z"/>
	<path d="M519.1,801.5c3.5-5.4,8.3-10.1,14.6-13.1c6.3-3.1,13.4-5,21.3-5c7.9,0,15,1.5,21.2,5c5.9,3.1,10.6,7.7,14.2,13.5
		c3.5,5.8,5.1,12,5.1,19.3s-1.6,13.5-5.1,19.3s-7.9,10.4-14.2,13.5c-5.9,3.1-13.4,5-21.2,5c-7.9,0-15-1.5-21.3-4.6
		s-11-7.3-14.6-13.1c-3.1-5.8-5.1-12.4-5.1-20.1C514,813.9,515.9,807.3,519.1,801.5z M542.3,835.2c3.1,3.9,7.5,5.4,12.6,5.4
		s9.4-1.9,12.6-5.4c3.1-3.5,4.7-8.5,4.7-13.9c0-5.8-1.6-10.4-4.7-13.9c-3.5-3.9-7.5-5.8-13-5.8c-5.1,0-9.1,1.9-12.6,5.4
		c-3.1,3.9-4.7,8.5-4.7,14.3C537.2,826.6,538.8,831.3,542.3,835.2z"/>
	<path d="M632.4,730v127.2h-22.8V730H632.4z"/>
	<path d="M726.1,786.8l-46.4,104.4h-22l17.3-37.5l-33.1-66.9h26l18.9,41.7l18.9-41.7H726.1z"/>
	<path d="M813.4,786.8v70.4c0,6.6-2,12.8-5.9,18.2s-9.1,9.7-15.7,12.8c-6.7,3.1-13.8,4.6-21.6,4.6c-5.9,0-11-0.8-15.3-1.9
		c-4.3-1.5-7.9-3.1-10.6-4.6c-3.1-1.9-6.3-4.3-9.8-7.3l13.4-15.5c3.1,3.1,6.7,5.4,9.8,7c3.1,1.5,7.5,2.7,12.2,2.7
		c5.9,0,10.6-1.5,14.6-4.3c3.9-2.7,5.9-7,5.9-12v-10.1c-2.4,3.5-5.5,6.6-10.2,8.9c-4.7,2.3-10.2,3.5-16.5,3.5s-12.6-1.5-18.1-5
		c-5.5-3.1-9.8-7.7-13.4-13.5c-3.1-5.8-5.1-12-5.1-18.9c0-7,1.6-13.5,5.1-19.3s7.9-10.4,13.8-13.9c5.5-3.5,11.4-5,17.7-5
		c5.9,0,11,0.8,15.7,2.3s8.3,3.9,10.6,6.6l2.4-5.4h21V786.8z M790.2,830.1v-17.4c-1.6-3.5-3.9-6.2-7.5-8.1
		c-3.5-1.9-7.5-3.1-12.2-3.1c-5.5,0-10.2,1.9-14.2,5.4c-3.9,3.5-5.9,8.1-5.9,13.9c0,5.4,2,10.4,5.9,14.3c3.9,3.9,8.7,5.8,14.2,5.8
		C779.6,840.6,786.3,837.1,790.2,830.1z"/>
	<path d="M832.3,801.5c3.5-5.8,8.3-10.1,14.6-13.5c6.3-3.1,13.4-5,21.3-5c7.9,0,15,1.5,21.3,5c5.9,3.1,10.6,7.7,14.2,13.5
		c3.1,5.8,5.1,12,5.1,19.3s-1.6,13.5-5.1,19.3c-3.1,5.8-7.9,10.4-14.2,13.5c-5.9,3.1-13.4,5-21.3,5c-7.9,0-15-1.5-21.3-4.6
		s-11-7.3-14.6-13.1c-3.5-5.8-5.1-12.4-5.1-20.5C827.2,813.9,828.8,807.3,832.3,801.5z M855.2,835.2c3.1,3.9,7.5,5.4,12.6,5.4
		s9.4-1.9,12.6-5.4s4.7-8.5,4.7-13.9c0-5.8-1.6-10.4-4.7-13.9c-3.1-3.5-7.5-5.4-12.6-5.4s-9.1,1.9-12.6,5.4s-5.1,8.5-5.1,13.9
		C850.4,826.7,852,831.3,855.2,835.2z"/>
	<path d="M989.4,789.2c4.7,3.9,6.7,8.9,7.1,15.1v53h-23.2v-44.5c-0.4-7-3.9-10.4-10.6-10.4c-5.1,0-9.4,2.3-12.6,7.3
		c-3.1,5-4.7,11.2-4.7,18.6v29h-22.8v-70.4h20.9l1.6,11.2c2.8-4.6,6.3-8.1,11-10.8s10.2-3.9,16.5-3.9
		C979.1,783.4,985,785.3,989.4,789.2z"/>
	<path d="M323.5,785.7c-3.9-2.3-9.1-2.3-13.4,0l-30.7,17.8l-20.9,11.6l-30.7,17.8c-3.9,2.3-9.1,2.3-13.4,0L190,819
		c-3.9-2.3-6.7-6.6-6.7-11.2v-27.4c0-4.6,2.4-8.9,6.7-11.2l24-13.5c3.9-2.3,9.1-2.3,13.4,0l24,13.5c3.9,2.3,6.7,6.6,6.7,11.2v17.8
		l20.9-12v-17.8c0-4.6-2.4-8.9-6.7-11.2l-44.5-25.5c-3.9-2.3-9.1-2.3-13.4,0l-45.3,25.5c-4.3,2.3-6.7,6.6-6.7,11.2v51.4
		c0,4.6,2.4,8.9,6.7,11.2l45.3,25.5c3.9,2.3,9.1,2.3,13.4,0l30.7-17.4l20.9-12l30.7-17.4c3.9-2.3,9.1-2.3,13.4,0l24,13.5
		c3.9,2.3,6.7,6.6,6.7,11.2v27.4c0,4.6-2.4,8.9-6.7,11.2l-24,13.9c-3.9,2.3-9.1,2.3-13.4,0l-24-13.5c-3.9-2.3-6.7-6.6-6.7-11.2
		v-17.8l-20.9,12v17.8c0,4.6,2.4,8.9,6.7,11.2l45.3,25.5c3.9,2.3,9.1,2.3,13.4,0l45.3-25.5c3.9-2.3,6.7-6.6,6.7-11.2v-51.4
		c0-4.6-2.4-8.9-6.7-11.2L323.5,785.7z"/>
</g>
<g>
	<path d="M245.4,513.2c9-5.5,18.3-10.5,27.3-15.9c2.9-1.7,5-2,8.1-0.1c9.5,5.9,19.3,11.2,29,16.8c1.2,0.7,2.3,1.6,3.9,0.6
		c6.2-3.6,12.4-7.2,19.1-11.1c-11.3-6.5-22-12.6-32.6-18.8c-7.1-4.2-14.8-7.5-21.2-12.9h-4.7c-0.1,1.1-1.1,1.4-1.9,1.9
		c-11.4,6.6-22.9,13.2-34.4,19.8c-5.6,3.2-11.2,6.5-17.4,10.2c6.1,3.5,11.5,6.4,16.7,9.6C240.1,514.8,242.4,515,245.4,513.2z"/>
	<path d="M238.1,636c-9.6-5.4-19-11.1-28.7-16.4c-2.6-1.4-3.4-3.1-3.3-6c0.2-11,0.1-22,0-33.1c0-1.6,0.6-3.5-1.5-4.6
		c-6.6-3.3-12.4-8-19.4-10.6v64.3c18.5,10.5,37,21.1,56.1,32c0-7.2-0.1-13.4,0.1-19.7C241.6,639.1,240.7,637.4,238.1,636z"/>
	<path d="M206,555.5c-0.2-4.2,0.4-8.6-0.2-12.7c-0.7-5.5,1.7-8.2,6.3-10.6c4.7-2.5,9.8-4.6,14.1-8.6c-6-3.5-11.7-6.6-17.2-10
		c-2.2-1.3-3.9-1.2-6,0.1c-5.8,3.5-11.7,6.7-17.6,10v24.6c6.2,1.9,11.2,6.2,16.9,9.2C205,559,206.1,559.2,206,555.5z"/>
	<path d="M272.9,656.4c-4.4-2.8-9.1-5.1-13.5-7.8c-3-1.9-3.3-0.8-3.3,2c0.1,5.2,0.3,10.4-0.1,15.6c-0.2,3.4,1.2,5.1,3.9,6.7
		c4.8,2.8,10.1,4.9,14.2,8.9h3.8c5.4-3.1,10.8-6.3,16.2-9.4c1.3-0.8,2.9-1.3,2.9-3.3V647c-6.1,3.4-11.5,6.2-16.6,9.5
		C277.7,658.3,275.6,658.1,272.9,656.4z"/>
	<path d="M333.1,564.9c-0.2-5.7-0.2-11.4,0-17c0.1-2.5-0.7-4-3-5.2c-5-2.7-9.9-5.5-14.7-8.5c-2.2-1.4-3.9-1.2-6.1,0.1
		c-9.5,5.6-19.1,11-28.6,16.6c-2.6,1.6-4.6,1.8-7.3,0.1c-6.1-3.8-12.9-6.8-18.7-11.1c-8.8-6.6-17-8.2-25.7-0.1
		c-1.3,1.2-3.2,1.9-5,2.7c-2.2,1.1-3.2,2.7-3.1,5.2c0.2,5.4,0.3,10.7,0,16.1c-0.2,3.3,0.9,5.2,3.8,6.7c9.4,5.2,18.5,10.8,27.9,15.9
		c2.8,1.5,3.7,3.3,3.6,6.4c-0.2,5.5-0.1,11-0.1,16.5c0,4.4,0.4,8.9-0.1,13.2c-0.5,5,0.9,8.2,5.8,10.3c4,1.7,7.7,4.2,11.4,6.6
		c2.4,1.5,4.4,1.7,6.9,0.1c4.6-3,9.5-5.7,14.3-8.2c2.6-1.4,3.3-3.2,3.3-6c-0.2-11,0-22.1-0.1-33.1c0-2.6,0.7-4.2,3.1-5.6
		c9.8-5.5,19.3-11.3,29.1-16.7C332.1,568.7,333.2,567.5,333.1,564.9z"/>
	<path d="M487.7,547.7c-1.9-7.2-7.4-10.6-13.8-13.7c9.8-8.5,12.5-16.2,8.5-25.6c-4-9.5-12.4-12.8-21.7-13.2
		c-12.7-0.5-25.5-0.1-38.3-0.2c-2.3,0-3.5,0.5-3.5,3.1c0.1,25.2,0.1,50.4,0,75.6c0,2.2,0.7,3,3,3c13.4-0.1,26.8,0,40.2-0.1
		c4.1,0,8.1-1.1,12-2.4C485.5,570.2,490.9,559.3,487.7,547.7z M439.7,510.5c2.7,0.2,5.4,0,8.5,0c3.5,0.1,7.4-0.4,11.3,0.8
		c4,1.3,6.5,3.5,6.4,8.1s-2.8,6.9-6.8,7.9c-6.7,1.5-13.5,0.8-20.2,0.9c-2.3,0-2.4-1.5-2.4-3.2c0-3.8,0.1-7.6,0-11.3
		C436.3,511.2,437.3,510.3,439.7,510.5z M461.6,560.6c-3.7,0.3-7.5,0.1-11.3,0.1l0,0h-0.9c-14.6,0-14.5,0-12.9-14.7
		c0.2-2,0.9-2.8,2.9-2.8c7.2,0.1,14.5-0.2,21.7,0.1c5.3,0.2,8.8,3.1,9.4,7C471.3,556.2,468,560.1,461.6,560.6z"/>
	<path d="M736.8,575.7c2.9,3,8.9,0.6,13.6,1.1c2.9,0.3,3.9-0.7,3.8-3.7c-0.2-5.7-0.1-11.3-0.1-17v-30.7c1.2,1.4,1.7,1.9,2.1,2.5
		c10.4,13.6,21.3,26.9,31.1,41c4.5,6.4,9.3,8.5,16.8,8c4.4-0.3,5.1-1.5,5-5.4c-0.2-21.1-0.1-42.2-0.1-63.3c0-13.5,0-13.4-13.7-13.2
		c-3.1,0-4.1,0.9-4,4c0.1,13.7,0.1,27.4,0,41.1c0,1.3,0.6,2.8-0.6,3.9c-0.3-0.2-0.7-0.3-0.8-0.5c-9.8-12.9-19.7-25.7-29.5-38.7
		c-7.4-9.8-7.3-9.7-19.6-9.9c-4.1-0.1-4.9,1.4-4.8,5.1c0.2,21,0.1,41.9,0.1,62.9C736.1,567.4,734.6,573.4,736.8,575.7z"/>
	<path d="M551.4,575.8c2.4,2.8,8,0.5,12.2,1c4,0.5,4.6-1.4,4.5-4.8c-0.2-14-0.1-28,0-42.1c0-1.3-0.7-2.8,1-4
		c10.7,14.1,21.8,27.7,31.8,42.2c4.8,6.9,10.1,9.8,18.3,8.8c3.3-0.4,4.1-1.2,4.1-4.4c-0.1-22.8-0.1-45.7-0.1-68.5
		c0-8.9,0-8.9-8.9-8.9c-8.7,0-8.7,0-8.7,9V545c-1.2-1.2-1.7-1.7-2.2-2.3c-9.5-12.5-19.2-25-28.6-37.6C567.3,495,567.5,495,555,495
		c-3.7,0-4.4,1.3-4.4,4.7c0.1,21.4,0.1,42.9,0.1,64.3C550.7,568,549.4,573.3,551.4,575.8z"/>
	<path d="M966.8,577.1c12.1,0,12,0,12.1-11.9c0-3.5-0.9-4.5-4.5-4.5c-12.1,0.2-24.3,0-36.4,0.2c-2.9,0-4-0.8-3.7-3.7
		c0.2-3.1,0.2-6.3,0-9.4c-0.2-3.1,0.8-4.1,4-4c7.6,0.2,15.1,0.1,22.7,0.1c12.4,0,12.3,0,12.1-12.4c-0.1-3.1-1.1-3.7-3.9-3.6
		c-7.4,0.2-14.8,0.1-22.2,0.1c-12.9,0-12.8,0-12.7-12.8c0-3.5,1.3-4.2,4.4-4.1c9.3,0.2,18.6,0.1,27.9,0.1c11.8,0,11.7,0,11.5-12.1
		c-0.1-2.9-0.9-3.8-3.8-3.7c-18,0.1-36,0.1-53.9,0c-3.1,0-4.1,0.9-4.1,4c0.1,12.3,0.1,24.6,0.1,36.9c0,12.1,0.1,24.3-0.1,36.4
		c-0.1,3.6,0.8,4.9,4.7,4.8C936.2,576.9,951.5,577.1,966.8,577.1z"/>
	<path d="M692.6,505.3c-5-11.5-5.1-11.4-18.1-11.2c-2.4,0.1-3.7,0.7-4.6,3c-1.9,5-4.1,9.9-6.2,14.8c-8.6,20.4-17.3,40.9-26,61.3
		c-1.1,2.5-1.2,3.7,2.1,3.6c3.9-0.2,7.9-0.2,11.8,0c2.3,0.1,3.3-0.9,4.1-2.9c1.5-4.1,3.4-8.1,4.9-12.3c0.9-2.5,2.3-3.3,4.9-3.2
		c9,0.2,18,0.2,27,0c3-0.1,4.6,0.8,5.6,3.7c1.4,4,3.3,7.8,4.8,11.8c0.8,2,1.7,3.1,4.1,3c5-0.2,10.1-0.1,15.7-0.1
		c-0.3-1.1-0.5-1.8-0.7-2.3C712.2,551.4,702.4,528.3,692.6,505.3z M687.1,542.4c-5.3,0-10.7,0-16,0c-2.1,0-2.4-0.9-1.6-2.6
		c3.1-7.5,6.2-15,9.8-23.7c3.6,8.7,6.8,16.5,10,24.3C690,542.4,688.4,542.4,687.1,542.4z"/>
	<path d="M884.9,556.6c-10.4,7.3-24.3,6.6-32.6-1.7c-8.6-8.6-9.7-24.8-2.3-34.9c7.1-9.7,19.6-12.2,31.4-6.6c3.3,1.5,5.6,6.5,9.3,4.8
		c3.2-1.6,5-5.9,7.9-8.6c3.2-2.9,1.8-4.6-0.8-6.6c-6.8-5.1-14.4-8-22.9-9.1c-25.8-3.5-48.4,15.9-48.5,44
		c0.3,14.8,7.3,28.2,22.5,35.7c15.6,7.7,31.4,6.8,46-3.6c7.8-5.6,7.7-5.7,1-12.4C890.7,552.6,890.7,552.6,884.9,556.6z"/>
	<path d="M368.6,597.6c0-9.6-0.1-19.2,0-28.8c0-3-0.6-3.7-3.4-2c-4.8,3-9.8,5.8-14.8,8.4c-2.2,1.2-2.5,2.8-2.5,5
		c0.1,11-0.1,22.1,0.1,33.1c0.1,3.1-1,4.9-3.6,6.4c-9.2,5.2-18.2,10.6-27.5,15.7c-3.4,1.9-5.2,3.9-4.8,8c0.4,4.5,0.3,9.1,0,13.7
		c-0.2,4.2,1,4.5,4.4,2.6c16.2-9.4,32.4-18.8,48.7-28.1c2.6-1.5,3.4-3.2,3.3-6.1C368.6,616.2,368.6,606.9,368.6,597.6z"/>
	<path d="M522.5,606c0-1,0.4-2.2-0.8-3c-2.2-1.5-9.9,0.1-11.4,2.4c-4.5,6.9-9,13.7-13.3,20.7c-1.5,2.5-2.6,2.6-4.1,0.1
		c-3.8-6-8.1-11.7-11.3-18c-2.6-4.9-6.1-6-11-5.6c-2.4,0.2-3.3,0.8-3.2,3.3c0.1,16.7,0,33.4,0.1,50.1c0,1-0.3,2.2,1,2.9
		c4,2.1,8.5-0.5,8.5-4.9c0-11.2,0-22.5,0-33.7c0.3-0.1,0.6-0.2,0.9-0.2c5.6,8.2,11.1,16.5,16.9,25.1c5.8-8.6,11.3-16.7,16.7-24.7
		c0.4,0.1,0.8,0.2,1.2,0.4v4.6c0,10.1,0.2,20.2-0.1,30.3c-0.1,4.4,2.7,3.3,5,3.3s5,1,5-3.3C522.4,639.1,522.5,622.5,522.5,606z"/>
	<path d="M979.3,653.9c0.1-15.4-0.1-30.9,0.2-46.3c0.1-4-1.3-4.9-5.1-5c-4.1-0.1-5.2,1.4-4.9,5.2c0.3,3.1,0.1,6.3,0.1,9.4v22.4
		c-0.4,0.1-0.7,0.2-1.1,0.4c-2.7-3.6-5.5-7.1-8.2-10.7c-6.3-8.1-12.6-16.1-18.8-24.3c-2.7-3.6-6.4-2.5-9.5-2.1
		c-3.2,0.4-1.5,3.7-1.5,5.5c-0.1,15.6,0.1,31.2-0.2,46.8c-0.1,3.9,1.8,4,4.6,3.8c2.5-0.2,5.8,1.3,5.7-3.7c-0.3-10.2-0.1-20.5,0-30.7
		c0-1.3-0.7-2.8,0.9-3.9c0.5,0.6,1.1,1.2,1.5,1.8c8.9,11.4,17.8,22.8,26.6,34.4c2.5,3.3,5.7,2.3,8.6,1.9
		C980.4,658.4,979.3,655.6,979.3,653.9z"/>
	<path d="M634.2,635.8c1.6-0.5,3.1-1.7,4.2-2.9c5.3-5.4,6.3-11.9,4-18.7c-2.7-8.1-9.4-11.1-17.3-11.5c-7.7-0.3-15.4,0.1-23.2-0.2
		c-3.5-0.1-4.6,0.9-4.6,4.5c0.2,15.7,0.2,31.5,0,47.2c0,3.6,0.9,4.7,4.7,4.9c4.4,0.1,5.9-1.3,5.3-5.5c-0.2-1.7,0-3.5,0-5.2
		c0-9.6,0-9.5,9.5-9.3c2.2,0.1,3.5,0.8,4.6,2.5c2.2,3.3,5.1,6.2,6.7,9.7c3.3,7.1,8.7,8.7,15.7,7.5c0.2,0,0.3-0.1,1.1-0.3
		c-4.2-5.9-8-11.5-12.1-16.8C630.9,639,629.9,637.2,634.2,635.8z M629.8,628.3c-6.7,4.1-14.1,1.8-21.2,2.1c-1.4,0.1-1.2-1.6-1.2-2.6
		c0-2.2,0-4.4,0-6.6c0-9.5,0-9.5,9.6-9.5c3.7,0,7.6-0.4,11.2,1.1c3,1.3,4.7,3.5,5,6.8C633.4,623,633,626.3,629.8,628.3z"/>
	<path d="M525.3,495.9c-2.8-2.7-8.4-0.4-12.8-0.9c-3.7-0.4-4.4,1.1-4.4,4.5c0.1,21.1,0,42.2,0.1,63.3c0,4.5-2,10.4,0.9,13.1
		c2.9,2.6,8.7,0.4,13.2,0.8c3.1,0.3,4-0.9,4-3.9c-0.2-12.3-0.1-24.6-0.1-36.8c0-9.1,0.1-18.3-0.1-27.4
		C526.1,504.3,528.2,498.6,525.3,495.9z"/>
	<path d="M831.7,630.9c0-8.2-0.2-16.4,0.1-24.6c0.1-4.1-2.4-3.7-4.9-3.6c-2.5,0.1-5.6-1-5.4,3.6c0.3,5.2-0.1,10.4,0.1,15.6
		c0.1,3.2-1.1,4-4.1,4c-6.3-0.2-12.6-0.2-18.9,0c-2.8,0.1-3.9-0.8-3.8-3.7c0.2-5.4-0.1-10.7,0.1-16.1c0.2-4.3-2.8-3.3-5.1-3.3
		s-5.2-1-5.1,3.3c0.1,16.6,0.2,33.1,0,49.7c0,4.4,2.9,3.2,5.1,3.2c2.2,0,5.3,1.3,5.1-3.2c-0.2-5.5,0.1-11-0.1-16.5
		c-0.2-3.4,1.1-4.3,4.3-4.2c6.1,0.2,12.3,0.2,18.5,0c3-0.1,4.2,0.8,4.1,4c-0.2,5.5,0.1,11-0.1,16.6c-0.2,4.8,3.1,3.3,5.4,3.4
		c2.4,0.1,5,0.7,4.9-3.5C831.5,647.3,831.7,639.1,831.7,630.9z"/>
	<path d="M566,605.4c-1-2.4-2.4-3.1-5-3.2c-3.9-0.2-6.6,0.5-7.8,4.8c-0.7,2.6-2.1,4.9-3.2,7.4c-6.4,14.7-12.8,29.3-19.2,44.1
		c9.6,1.5,9.6,1.5,12.9-6.4c0.5-1.2,1-2.3,1.4-3.5c0.7-2.3,2.1-3.1,4.5-3.1c5.8,0.2,11.7,0.4,17.5-0.1c4.7-0.4,6.9,1.2,8.6,5.6
		c3.2,8.6,3.5,8.5,13.1,7.6c-0.1-0.6,0-1.3-0.3-1.8C581,639.7,573.4,622.6,566,605.4z M552.9,636.6c-2.2,0-2.3-1-1.6-2.7
		c2.7-6.3,5.4-12.7,8.5-20.1c3.5,8.2,6.4,15.2,9.7,22.7C563.5,636.6,558.2,636.5,552.9,636.6z"/>
	<path d="M874.6,604.5c-1.2-2.9-3.5-2.1-5.6-2.1c-2.3-0.1-4.6-0.5-5.9,2.5c-3.7,8.9-7.7,17.6-11.6,26.4c-3.9,9-7.8,18.1-11.8,27.3
		c9.4,1.2,9.4,1.2,12.7-6.4c0.5-1.2,1.2-2.2,1.5-3.4c0.7-2.6,2.3-3.3,4.9-3.2c5.7,0.2,11.4,0.5,17-0.1c5-0.5,7.2,1.4,8.9,5.9
		c3.2,8.3,3.5,8.2,12.8,7.4c-0.1-0.6-0.1-1.3-0.3-1.8C889.8,639.5,882.1,622,874.6,604.5z M875.7,636.6c-5.3-0.1-10.6,0-16.6,0
		c3.3-7.6,6.2-14.5,9.7-22.5c3.1,7.3,5.9,13.7,8.7,20.1C878.2,635.9,877.7,636.6,875.7,636.6z"/>
	<path d="M445.7,628.3c-4.9-1.8-10-2.9-14.9-4.6c-3.3-1.2-5.9-3.3-5.1-7.4c0.8-3.9,3.8-5.2,7.3-5.5c5.4-0.6,10.3,1.1,14.8,3.9
		c4.3,2.8,4.2-2.1,5.9-3.5c2.1-1.7,0.9-3.1-1-4.4c-5.2-3.3-10.8-5-17-4.8c-0.9,0-1.9,0-2.8,0c-9.4,0.3-15.7,5.7-17,14.5
		c-1.2,7.8,2.9,13.5,12.1,16.6c4.5,1.5,9.1,2.5,13.6,4c3.5,1.2,6.2,3.3,5.4,7.7c-0.7,4.2-3.9,5.5-7.5,5.9
		c-6.8,0.8-12.6-1.5-18.1-5.4c-4-2.9-4.3,2.1-6.2,3.5c-1.9,1.3-1.1,2.7,0.7,3.9c5.9,4.2,12.4,6.8,19.7,7.1c6.7,0.3,13-1.1,17.7-6.2
		C461.1,644.9,457.5,632.7,445.7,628.3z"/>
	<path d="M765.5,646.8c-7,5.2-16.8,5.3-22.8,0.4c-8.9-7.3-10.5-20.3-3.7-29.2c6.5-8.5,17.5-9.8,27.3-2.5c4.8,3.6,5.5-1.3,7.6-3
		c2.9-2.4,0-3.9-1.6-5c-10-6.9-20.9-7.9-31.8-2.8c-10.9,5.1-15.6,14.6-15.8,26.4c0.1,1.1,0.1,2.2,0.3,3.2
		c1.3,11.5,7.4,19.7,18.3,23.7c11.1,4,21.4,2.2,30.4-5.7c0.9-0.8,2.6-1.4,1.5-3.4C772.3,644.4,769.7,643.7,765.5,646.8z"/>
	<path d="M368.7,526.7c0.1-1.7-0.4-3-2-3.9c-6.3-3.5-12.5-9.2-19-9.8c-5.2-0.5-10.9,5.5-16.4,8.4c-4,2.1-2.9,3.4,0.2,5
		c4.4,2.4,8.7,5,13.2,7.4c2.2,1.2,3.1,2.7,3,5.3c-0.2,5.3,0.1,10.7-0.1,16.1c-0.1,3.3,0.6,4.5,3.9,2.5c2.5-1.6,5-3.4,7.8-4.5
		c7.8-3.2,12.2-8,9.6-15.5C368.6,533,368.6,529.9,368.7,526.7z"/>
	<path d="M692.6,602.7c-13.4,0-26.8,0.1-40.2,0c-3.7,0-2.9,2.5-2.9,4.6c0,2.2-0.6,4.6,3.1,4.5c3.3-0.2,6.7,0.3,9.9-0.1
		c4.4-0.5,5.3,1.3,5.1,5.3c-0.3,6.1-0.1,12.3-0.1,18.4c0,6.3,0.3,12.6-0.1,18.9c-0.2,4.1,1.3,5,5.1,4.9c3.5-0.1,5.3-0.3,5.2-4.7
		c-0.3-12.6,0.1-25.2-0.2-37.8c-0.1-4.4,1.3-5.5,5.3-5.1c3.1,0.3,6.3-0.1,9.4,0.1c3.1,0.2,3.4-1.6,3.1-3.9
		C695.1,605.8,696.8,602.7,692.6,602.7z"/>
	<path d="M912,602.7c-2.4,0-5.1-0.8-5.1,3.4c0.2,16.5,0.2,33,0,49.5c-0.1,4.3,2.6,3.4,5,3.4c2.3-0.1,5.2,1.2,5.1-3.3
		c-0.2-8.2-0.1-16.3-0.1-24.5c0-8.3-0.2-16.7,0.1-25C917,602,914.4,602.6,912,602.7z"/>
	<path d="M315,619.6c5.3-3.1,10.6-6.2,15.9-9.2c1.6-0.9,2.1-2,2.1-3.8c-0.1-6.7,0-13.5,0-21.2c-6.8,3.9-12.9,7.5-19,11
		c-1.2,0.7-1.7,1.8-1.7,3.1c0,6.1,0,12.3,0,18.4C312.3,619.9,312.8,620.9,315,619.6z"/>
	<path d="M274.4,513.3c-5.2,3-10.3,6.1-15.5,9c-2.1,1.2-2,2.1,0,3.2c5.3,3.1,10.6,6.2,15.9,9.3c1.3,0.8,2.6,0.8,4,0
		c5.9-3.5,11.9-7,18.7-10.9c-6.7-3.8-12.7-7.2-18.6-10.7C277.2,512.2,275.9,512.5,274.4,513.3z"/>
	<path d="M223.7,610.8c4.9,2.8,9.9,5.4,14.7,8.4c2.9,1.8,3.1,0.4,3-2c-0.1-2.8,0-5.7,0-8.5c0-3,0-6,0-8.9c0-1.7-0.3-3-2-3.9
		c-5.2-2.9-10.4-5.8-15.5-8.8c-2.4-1.4-2.9-0.6-2.9,1.8c0.1,5.8,0.1,11.6,0,17.4C221,608.6,221.9,609.8,223.7,610.8z"/>
</g>
<g>
	<path d="M1010.7,1032.9c-1.7-6.7-5.7-11.7-12.1-14.1c-14.4-5.5-28.4-4.1-41.9,3.2c-1.6,0.8-1.9,1.9-1.9,3.6c0.1,17.8,0,35.6,0,53.4
		c0,1,0.1,2.1,0.2,3.1c0.4,3.4,1.5,4.4,4.9,4.4c3.4,0.1,6.8,0.1,10.1,0c3.8-0.1,5-1.4,5-5.2c0-5.4,0-10.8,0-16.7l0,0l0,0l0,0l0,0
		c0.2,0.1,0.4,0.2,0.6,0.3c0.1,0.1,0.2,0.1,0.3,0.2c0.7,0.3,1.4,0.6,2.1,0.9c1.1,0.4,2.2,0.7,3.3,0.9c0.6,0.1,1.1,0.2,1.7,0.3h0.1
		c0.1,0,0.1,0,0.2,0c0.4,0,0.8,0.1,1.1,0.1c0.4,0,0.8,0.1,1.2,0.1c0.1,0,0.2,0,0.3,0c1.2,0,2.4,0,3.6-0.1c9.4-0.7,16.3-5,20.1-13.7
		c0.8-1.9,1.4-4,2.1-5.9v-12.4C1010.6,1034.8,1010.9,1033.7,1010.7,1032.9z M975.1,1039.4c0-2.2,0.2-4.3-0.1-6.4
		c-0.3-2.3,1-3,2.8-3.2c2.2-0.2,4.5-0.4,6.7,0.3c4.7,1.5,6.6,4.7,6.6,11.3c0,2.3-0.3,4.6-1.2,6.8c-1.6,3.9-5,6-9.1,5.2
		c-3.9-0.7-5.7-3.1-5.7-7.7C975.1,1043.7,975.1,1041.5,975.1,1039.4z"/>
	<path d="M283.8,1019.7c-4.1-3.6-8.7-6.4-13.7-8.6c-1.1-0.5-1.7-1.1-1.5-2.5c1.5-7.2,2.8-14.4,4.3-21.6c1.2-6,0.3-11.4-3.8-16.2
		c-2.6-3-6-4.4-9.5-5.8h-6.8c-4.3,1.4-8.2,3.2-10.9,7.2c-2.1,3.1-3.2,6.5-3.2,10.2c0,6.3-0.1,12.6,0.1,18.8c0,1.7-0.4,2.2-2.2,2.1
		c-3.4-0.2-6.8-0.2-10.1,0c-1.6,0.1-1.9-0.4-1.9-1.8c0.1-6.2-0.2-12.4,0.1-18.6c0.3-8.6-6-16.4-13.8-17.5c-0.1,0-0.2-0.3-0.3-0.4
		h-6.8c-3.4,1.3-6.7,2.7-9.2,5.4c-4.3,4.8-5.5,10.4-4.1,16.6c1.5,7.2,2.8,14.4,4.3,21.6c0.3,1.6-0.6,2-1.8,2.6
		c-7.8,3.8-14.6,8.8-20,15.8c-2.9,3.8-4.3,8.3-5.8,12.7v20.3c1.9,2.7,2.3,6.1,4.1,8.9c5.5,8.9,13.5,14.7,22.8,19
		c8.2,3.8,17,5.9,26,6.9c0.4,0,1,0,1.1,0.6h1.7l0,0c1.3,0,2.6,0,3.9,0l0,0h9.6l0,0c1.5,0,3,0,4.5,0l0,0h0.6c0.1-0.6,0.7-0.5,1.1-0.6
		c12.3-1.2,24-4.5,34.5-11.1c7.7-4.8,14.1-10.9,17.5-19.7c2.3-5.8,1.8-11.7,1.9-17.7C296.9,1035.3,292,1026.8,283.8,1019.7z
		 M213.6,1035.2c1.2,2.1,2,4.4,2,6.9c0,2-0.4,4-1.2,5.7c-1.1,2.1-2.4,4.3-5.3,4.3c-2.8,0-4.6-1.8-5.6-4c-2.2-4.6-1.8-9.3,1.1-13.6
		C207,1030.8,211.4,1031.3,213.6,1035.2z M250.7,1033.7c2.7-2.4,5.7-2.2,7.9,0.8c3.1,4.3,3.2,10.5,0.3,14.9c-2.1,3.3-6.6,3.3-9,0.2
		c-1.8-2.4-2.4-5-2.2-7.7C247.6,1038.7,248.3,1035.9,250.7,1033.7z"/>
	<path d="M362.9,997.4c-11.3-1.5-22.8-0.7-34.2-0.4c-2.8,0.1-3.9,1.6-3.9,4.7c0,9.8,0,19.7,0,29.5c0,9.8,0,19.7,0,29.5
		c0,3.9,1,5,4.9,5.2c3.2,0.1,6.4,0.1,9.6,0c4.9,0,6.1-1.2,6.1-6.2c0-4.4,0.1-8.8,0-13.2c0-1.7,0.4-2.3,2.2-2.2
		c4.1,0.1,8.3,0.2,12.4-0.1c13.6-0.8,21.4-7.4,22.6-19.8C383.9,1009.3,378.1,999.4,362.9,997.4z M354.2,1029.6
		c-2.4,0.2-4.9,0-7.3,0.1c-1.4,0.1-1.5-0.6-1.5-1.7c0-2.4,0-4.9,0-7.3c0-2.3,0.1-4.7,0-7c-0.1-1.4,0.2-2.1,1.8-2
		c2.2,0.1,4.3,0,6.5,0.1c5.2,0.2,8.2,3.3,8.4,8.5C362.1,1025.7,359.4,1029.1,354.2,1029.6z"/>
	<path d="M798.6,1031.3c-3.5-2.2-7.2-3.9-11-5.4c-3.7-1.5-7.6-2.5-11-4.8c-2.2-1.5-3.3-3.5-2.8-6.2c0.5-2.8,2.4-3.9,5-4.5
		c5.9-1.1,11.3,0,16.5,2.7c3.6,1.9,3.6,1.9,5.8-1.6c1.1-1.6,2.1-3.3,3.2-4.9c2-3,1.7-4.2-1.4-6.1c-3.6-2.3-7.6-3.6-11.7-4.3
		c-8.9-1.4-17.7-1.9-26.2,1.6c-6.5,2.7-10.8,7.3-11.7,14.5c-1,7.8,1,14.4,8.1,18.9c3.9,2.4,8,4.5,12.2,6.2c3.5,1.4,7,2.6,10.2,4.6
		c2.1,1.3,3,3.2,2.7,5.7s-1.9,3.7-4.1,4.4c-1.1,0.4-2.4,0.5-3.6,0.6c-6.8,0.4-13.2-1.3-19.1-4.6c-2-1.1-3.2-0.9-4.3,1.2
		c-1.3,2.4-2.9,4.6-4.3,6.9c-1.1,1.8-0.9,3.4,1,4.5c1.6,0.9,3.2,1.9,4.9,2.7c7.2,3.1,14.9,4,22.7,4.1c4.7,0.1,9.4-0.2,13.8-1.8
		c7.1-2.5,12.2-7,13.3-14.7C808.2,1042.8,806,1035.9,798.6,1031.3z"/>
	<path d="M670.4,1042.7c-1.4-1.6-1-2.5,0.2-3.9c5.1-5.7,10.1-11.5,15.2-17.3c0.9-1,1.5-2,1-3.3c-0.5-1.2-1.7-1.3-2.9-1.3
		c-4.9,0-9.8,0-14.6,0c-1.9,0-3.3,0.7-4.5,2.3c-2.5,3.4-5.1,6.7-7.6,10c-1.5,1.9-3,3.8-4.9,6.2c0-8.3,0-15.8,0-23.3
		c0-3.5,0.1-6.9,0-10.4s-1.2-4.8-4.4-5c-4.1-0.2-8.2-0.1-12.3,0.1c-2.6,0.1-3.8,1.7-3.8,4.2c0,20.1,0,40.3,0,60.4
		c0,2.4,1.1,4,3.6,4.1c3.7,0.1,7.5,0.2,11.2,0.2c4.4,0,5.6-1.3,5.7-5.7c0.1-4.4,0-8.8,0-13.2c0.2-0.1,0.4-0.2,0.6-0.3
		c4.1,5.6,8.3,11.2,12.4,16.9c1.1,1.6,2.5,2.3,4.5,2.3c4.7-0.1,9.4,0,14.1,0c1.3,0,2.8,0.3,3.5-1.1c0.7-1.5-0.3-2.6-1.2-3.7
		C680.8,1055,675.7,1048.8,670.4,1042.7z"/>
	<path d="M882.6,1017c-4.1-0.1-8.2,0-12.4,0c-1.7,0-2.7,0.8-3.1,2.6c-0.5,2.6-1.2,5.1-1.8,7.6c-1.1,4.6-2.3,9.2-3.5,14.5
		c-1.8-4.8-3.4-8.9-4.8-13c-3-8.9-2-7.1-11.1-7.4c-1.8,0-2.9,0.6-3.5,2.5c-2.1,5.8-4.3,11.5-6.6,17.7c-0.3-1.2-0.6-1.9-0.8-2.6
		c-1.5-6.4-3-12.7-4.5-19.1c-0.3-1.6-1-2.7-2.7-2.8c-4.7-0.1-9.4,0-14,0c-1.5,0-2.2,0.7-1.7,2.4c4.4,14.6,8.8,29.3,13.2,43.9
		c0.6,2,1.9,2.5,3.8,2.5c2.9,0,5.8-0.1,8.7,0c2.5,0.1,3.8-0.9,4.7-3.3c1.9-5.7,4.1-11.3,6.4-17.3c1.9,5.1,3.6,9.7,5.3,14.4
		c2.6,7.5,2.1,6.2,8.8,6.3c8.5,0.1,8.6,0,11.1-8.1c3.8-12.4,7.5-24.8,11.3-37.2C886,1017.6,885.7,1017.1,882.6,1017z"/>
	<path d="M946.4,1024c0-1.5-0.4-2.3-1.8-3c-8.6-4.8-17.8-6.2-27.4-5.2c-14.5,1.5-25.8,9.9-26.9,25.4c-0.5,7.3,0.3,14.4,5.6,20.2
		c7.5,8.2,22.9,8.3,32.2,0.4c1.4,1.4,1.3,4.3,4.2,4.2c3.6-0.1,7.1,0,10.7,0c2.3,0,3.3-0.9,3.3-3.4
		C946.3,1049.7,946.3,1036.9,946.4,1024z M927.2,1039.3c0,2.1,0,4.3,0,6.4c0,4.3-2,6.9-5.9,7.6c-5,0.9-8.2-0.6-9.9-4.7
		c-2.3-5.8,0-14.2,4.7-17.4c2.9-2,6.1-1.9,9.4-1.4c1.2,0.2,1.7,0.8,1.6,2.1C927.1,1034.4,927.2,1036.8,927.2,1039.3z"/>
	<path d="M620.5,1020.6c-8.9-4.7-18.5-6-28.3-4.7c-10.2,1.4-18.5,5.9-23,15.7c-3,6.5-3.2,13.4-1.6,20.3c2,8.3,7.1,13.8,15.7,15.1
		c7.8,1.2,15.3,0.2,21.8-5.5c0.6,3.9,2.9,4.8,6.3,4.5c2.3-0.2,4.7,0,7,0c4.2,0,4.5-0.4,4.5-4.4c0-12.4-0.1-24.7,0.1-37.1
		C623,1022.4,622.2,1021.5,620.5,1020.6z M603.8,1039.1c0,2.4,0.1,4.9,0,7.3c-0.3,4.3-2.7,6.6-7.2,6.9c-5,0.4-7.7-1.4-8.8-5.7
		c-1-3.9-0.6-7.6,0.8-11.3c2-5.2,8.1-8.1,13.6-6.6c1.1,0.3,1.8,0.7,1.7,2.1C603.7,1034.3,603.8,1036.7,603.8,1039.1z"/>
	<path d="M439.5,1020.7c-9.3-4.8-19.1-6.1-29.4-4.6c-5.5,0.8-10.5,2.7-14.8,6.2c-9.8,7.8-11.1,18.3-9,29.7
		c1.7,8.8,8.9,14.9,17.9,15.4c7.1,0.4,13.8-0.5,19.5-5.9c0.6,3.9,3,4.8,6.3,4.5c2.4-0.2,4.9,0,7.3,0c3.8,0,4.2-0.5,4.2-4.1
		c0-12.5,0-24.9,0.1-37.4C441.7,1022.6,441.2,1021.6,439.5,1020.7z M422.5,1039.3c0,2.3,0.1,4.7,0,7c-0.1,3.9-2.4,6.4-6.2,7
		c-4.8,0.7-8.1-0.8-9.4-4.5c-1.8-5-1.1-10,1.5-14.5c2.3-3.9,8.2-5.9,12.6-4.5c1.1,0.3,1.6,0.9,1.5,2.2
		C422.4,1034.4,422.5,1036.9,422.5,1039.3z"/>
	<path d="M489.7,1016c-8-1.4-15.4,0.1-22.2,5.4c-0.6-3.7-0.9-4.3-3.1-4.4c-3.6-0.1-7.3,0-11,0c-2.4,0-3.1,1.2-3.1,3.6
		c0.1,13.3,0,26.6,0.1,39.9c0,3.9,1.2,5.2,5.2,5.3c3.2,0.1,6.4,0,9.6,0c4.5,0,5.8-1.3,5.8-5.9c0-7.9,0-15.7,0-23.6
		c0-4.7,2.2-6.8,6.6-6.8c3.9,0,5.5,1.8,5.5,6.7c0,8.2,0,16.3,0,24.5c0,3.7,1.1,5,4.8,5.1c3.7,0.2,7.5,0.1,11.3,0
		c3.2-0.1,4.5-1.6,4.5-4.8c0-9.6,0.1-19.1,0-28.7C503.5,1023.6,498.4,1017.5,489.7,1016z"/>
	<path d="M731.1,1017.6c-8.4-3-17-2.9-25.3-0.2c-8.4,2.7-13.4,8.7-15.1,17.5c-0.6,3-0.5,6-0.5,8.9c0.1,8.3,3.8,14.7,10.9,19
		c7.9,4.9,16.7,5,25.5,4.2c4.8-0.4,9.3-1.7,13.5-4.1c2.1-1.2,2.9-2.4,1.5-4.6c-1-1.6-1.8-3.5-2.7-5.2c-0.9-1.9-2.1-2.3-4-1.2
		c-5.3,2.9-11,3.4-16.9,2.5c-3.6-0.5-6.8-1.9-8.2-5.8c-0.7-1.9-0.7-2.8,1.9-2.7c4.8,0.2,9.6,0.1,14.3,0.1c4.9,0,9.8,0,14.6,0
		c3.3,0,4.9-1.2,5.1-4C746.3,1031.9,742.4,1021.6,731.1,1017.6z M725.1,1035.8c-2.2-0.2-4.5,0-6.7,0c-2.4,0-4.9,0-7.3,0
		c-1.4,0-1.8-0.4-1.5-1.9c0.9-3.8,3.7-6,8.2-6.3c5.1-0.3,8.1,1.5,9.3,5.4C727.6,1035,727.5,1036,725.1,1035.8z"/>
	<path d="M557.7,1051.6c-1.2-2.6-2.8-2.7-5.1-1.3c-3,1.8-6.2,3-9.8,3.1c-5.7,0.2-9.8-2-11.6-6.5c-2.1-5.4-0.8-12,3.3-15.1
		c4.6-3.6,9.6-2.6,14.6-0.9c2.1,0.7,3.8,3.3,6,2.3c2-0.9,2.6-3.5,3.7-5.5c3.5-5.9,3.2-6.9-3.2-9.5c-0.4-0.2-0.9-0.3-1.3-0.5
		c-5.7-2.3-11.7-2.5-17.7-2.2c-16.7,1-27.5,11-26.8,27.6c0.4,9.8,4.4,17.2,13.7,21.3c5.2,2.3,10.6,3,16.4,2.8
		c6.8,0.2,13.5-1.2,19.7-4.6c2-1.1,3.3-2.4,1.7-4.8C560,1055.9,558.7,1053.8,557.7,1051.6z"/>
</g>
<g>
	<path d="M1020.1,1227.5c-15.8,0.4-31.7,0.1-47.6,0.1c-11.7,0-17.7,6.1-17.7,17.6c0,18,0,36,0,54c0,11.9-1.7,10.7,11.6,10.8
		c3.3,0,4.5-1.4,4.4-4.7c-0.1-7.6,0-15.2-0.1-22.8c-0.1-3.2,0.9-4.6,4.3-4.6c14.8,0.1,29.6,0.1,44.4,0c3.3,0,4.5,1.2,4.4,4.4
		c-0.1,7.6,0,15.2,0,22.8c0,1.8-0.2,4.2,2.1,4.3c4.7,0.3,9.5,1.5,14-1.1V1239C1036.2,1230.3,1029.4,1227.3,1020.1,1227.5z
		 M1019.7,1266.3c-7.5-0.1-14.9,0-22.4,0c-7.2,0-14.3-0.1-21.5,0c-3.5,0.1-5.3-0.9-5.1-4.8c0.3-3.5,0-7.1,0.1-10.7
		c0.1-5.8,3.5-9.7,9.4-9.8c11.5-0.2,23-0.2,34.5,0c5.8,0.1,9.1,4,9.2,9.9c0.1,3.7-0.1,7.4,0.1,11.1
		C1024.1,1265.2,1022.7,1266.3,1019.7,1266.3z"/>
	<path d="M354,1185.4h-45.8h-44.9h-44h-39.5c-0.3,0.3-0.6,0.6-0.9,0.9c-5,3.3-8.6,7.9-12.7,12.1c-3,3-6.1,6.1-9.1,9.1l0,0
		c-4.4,4.3-8.7,8.5-13.1,12.8c-1.2,1.2-2.3,2.5-1.6,4.3c0.8,1.9,2.5,2.4,4.4,2.4c1,0,2.1,0,3.1,0c54.1,0,108.2,0,162.4,0
		c1.6,0,3.3,0.4,4.8-0.4c4.6-0.5,6.6-4.4,9.4-7.2c5.1-5.1,10.2-10.1,15.2-15.2c4.2-4,8.3-8.1,12.5-12.1
		C356.8,1189.8,356.5,1187.5,354,1185.4z"/>
	<path d="M598.4,1227.8c-17.6-0.1-35.3-0.1-52.9,0c-9.6,0-16,6.4-16.1,16c-0.1,16.7-0.1,33.3,0,50c0.1,10,6.3,16.1,16.3,16.2
		c8.8,0.1,17.6,0,26.5,0c8.7,0,17.3,0,26,0c10.6-0.1,16.7-6.1,16.8-16.6c0.1-16.4,0.1-32.7,0-49.1
		C614.9,1234,608.6,1227.8,598.4,1227.8z M598.9,1284.4c-0.1,5.9-4.1,9.6-10.1,9.7c-11.1,0.1-22.1,0.1-33.2,0
		c-6.4-0.1-10.2-4-10.2-10.5c-0.1-10.3-0.1-20.5,0-30.8c0.1-6.7,3.8-10.4,10.6-10.5c5.5-0.1,11.1,0,16.6,0c5.4,0,10.8-0.1,16.1,0
		c6.1,0.1,10.1,3.6,10.2,9.5C599.2,1262.7,599.2,1273.6,598.9,1284.4z"/>
	<path d="M820.9,1274.2c0-9.8,0-19.6,0-29.5c0-10.8-6.1-16.9-16.9-17c-16.8,0-33.5,0-50.3,0c-11.1,0-17.1,6.1-17.2,17.1
		c0,18.3,0,36.6,0,54.9c0,11.3-1.5,10.2,10.7,10.4c3.8,0.1,5.4-1.2,5.3-5.2c-0.2-7.4,0-14.9-0.1-22.3c-0.1-3.2,1-4.5,4.4-4.5
		c14.7,0.1,29.3,0.1,44,0c3.1,0,4.3,1.2,4.3,4.2c-0.1,5.8-0.1,11.6,0,17.4c0.1,11.4-1.8,10.2,10.6,10.4c3.8,0.1,5.3-1.2,5.2-5.2
		C820.7,1294.7,820.9,1284.4,820.9,1274.2z M800.7,1266.3c-7.5-0.1-15,0-22.4,0c-7,0-14.1-0.1-21.1,0c-3.3,0.1-5-1-4.8-4.6
		c0.2-3.7-0.1-7.4,0.1-11.2c0.2-5.7,3.5-9.4,9.1-9.5c11.4-0.2,22.7-0.2,34.1,0c5.7,0.1,9.1,3.9,9.2,9.4c0.1,3.9-0.1,7.7,0.1,11.6
		C805.1,1265.2,803.7,1266.3,800.7,1266.3z"/>
	<path d="M478.9,1261c-10.6,0-21.2,0-31.9,0c-4.4,0-8-1.5-9.5-5.9c-2.1-6,2.2-11.3,9.2-11.4c12.3-0.1,24.5,0,36.8,0
		c2.1,0,4.1,0,5.8-1.7c3-2.9,6.1-5.7,9.2-8.6c1.1-1,2.4-2.1,1.7-3.8c-0.7-1.9-2.5-1.9-4.2-1.9c-16.9,0-33.8-0.1-50.7,0.1
		c-10,0.1-17.4,5-21.8,13.9c-7.7,15.6,3,34,20.4,34.9c11.5,0.6,23,0.2,34.5,0.3c6.4,0,10.3,3.4,10.2,8.7c0,5.3-3.9,8.6-10.4,8.6
		c-8.5,0-17.1,0.7-25.6-0.2c-10.5-1.1-19,1.8-25.7,9.8c-0.1,0.1-0.2,0.2-0.3,0.3c-1.2,1.1-2.8,2-2.2,4c0.7,2.2,2.7,2,4.5,2h26v-0.1
		c8.2,0,16.5,0.2,24.7,0c14.5-0.4,25.3-11.2,25-24.9C504.4,1271.2,493.5,1261,478.9,1261z"/>
	<path d="M929.9,1269c0-10.4,0.1-20.8,0-31.3c-0.1-10.9,1.5-10-10-10.2c-4.1-0.1-5.8,1.1-5.8,5.6c0.3,15.6,0.1,31.3,0.1,46.9
		c0,1.9,0.6,4.2-1.7,5.1c-2.6,1.1-3.7-1.3-4.9-2.8c-13.3-15.7-26.8-31.3-39.6-47.3c-4.4-5.5-9-8.3-16.2-7.5
		c-5.7,0.7-6.1,0.4-6.1,6.1c0,22,0,44.1,0,66.1c0,11.6-1.3,10.3,10.6,10.5c4.3,0.1,5.3-1.6,5.3-5.6c-0.2-14.9-0.1-29.8,0-44.6
		c0-2.2-1.1-5.2,1.9-6.3c2.8-1,3.8,1.9,5.1,3.4c13.1,15.1,26.5,29.9,39,45.5c4.9,6.1,10,8.4,17.5,7.6c3.6-0.4,5-1.5,4.9-5.1
		C929.8,1293.1,929.9,1281.1,929.9,1269z"/>
	<path d="M709.9,1296.4c-16,0-32-0.1-48,0.1c-4.2,0.1-5.7-1.1-5.7-5.5c0.2-17.8,0.1-35.7,0.1-53.6c0-10.5,0.8-9.6-10.1-9.8
		c-4.2-0.1-5.9,1.2-5.8,5.6c0.2,11.9,0.1,23.8,0.1,35.7c0,11.6,0,23.2,0,34.8c0,6.3,0.1,6.4,6.6,6.4c16.4,0,32.9-0.3,49.3,0.2
		c7,0.2,12.5-1.2,16.4-7.2c1-1.5,3.4-2.5,2.4-4.8C714.4,1295.7,712,1296.4,709.9,1296.4z"/>
	<path d="M176.8,1287.1c1.4,1.4,3.3,2,5.3,2c7-0.1,14-0.1,21.1-0.2h32.3h42.2h42.2c10.7,0,21.3,0.1,32,0.2c1.6,0,3.1-0.2,3.7-1.8
		c0.7-1.6,0.4-3.2-1-4.4c-1.1-0.9-1.8-2.4-3.4-2.7c-1.5-0.6-1.7-2.4-2.7-3.4c-9-8.9-18-17.9-27-26.8c-1.4-1.4-3.2-2.1-5.2-2.1
		c-9.6,0.1-19.1,0.1-28.7,0.2h-41.3h-42.2h-41.3c-5.5,0-11-0.1-16.5-0.2c-1.8,0-3.2,0.7-3.9,2.4c-0.7,1.6,0.1,2.9,1.2,4
		c3.1,3,6.2,6,9.3,9C160.8,1271.1,168.8,1279.1,176.8,1287.1z"/>
	<path d="M350,1311L350,1311c-0.6-0.1-1.2-0.3-1.7-0.3c-29.4,0-58.9,0-88.3,0c-0.6,0-1.2,0.2-1.7,0.3c1.7-0.1,3.3-0.2,5-0.1
		c-1.7,0-3.3,0-5,0.1c-1-0.1-2.1-0.3-3.1-0.3c-23.6,0-47.1,0-70.7,0c-1,0-2,0.3-3,0.5c-1.7-0.1-3.1,0.2-4.4,1.5
		c-3.8,4.1-7.8,8-11.6,12c-4.5,3.9-8.7,8.1-12.6,12.5c-3,2.9-6,5.7-9,8.6c-1.2,1.2-2.3,2.5-1.5,4.3c0.8,1.9,2.4,2.3,4.4,2.3
		c11.3-0.1,22.6-0.1,33.9-0.2h35H257h43.1c5.4,0,10.7,0.1,16.1,0.2c2.1,0,3.8-0.7,5.2-2.1c2.8-2.8,5.6-5.7,8.3-8.6
		c6-5.4,11.7-11,17.1-17c2.2-2.1,4.5-4.2,6.7-6.3c1.6-1.5,3.1-3.1,2.1-5.3C354.6,1310.6,352.4,1310.4,350,1311z"/>
</g>
<g>
	<path d="M312.8,1623.7c0-0.1,0-0.2,0-0.3c0-1-0.3-1.9-0.7-2.8c-1.1-2-2.4-3.9-3.4-5.9c-2-3.1-3.9-6.1-5.6-9.3
		c-6.4-10.4-12.7-20.9-19.1-31.3c-5.9-9.6-11.5-19.4-17.5-29c-0.8-1.4-1.6-2.8-2.5-4.1c-2.6-3.4-3.6-7.9-7.5-10.5
		c-0.4-0.4-0.8-0.7-1.2-1.1c-0.4-0.6-0.7-1.2-1.1-1.8c-0.1-1.4-1-1.2-2-1c-1.9,0.5-2.2,2.3-3,3.7c-3,4.7-6,9.5-9,14.2
		c-2.9,1.8-3.7,5.1-5.8,7.5c-1.6,2.3-2.5,4.9-4.1,7.1c-6.1,9.5-11.5,19.4-17.7,28.9c-2.7,5.2-6.3,10-8.3,15.6c0,0.8-0.2,1.4-0.9,1.8
		c-2.8,4.6-5.5,9.1-8.3,13.7c-0.9,2.5-3.2,4.4-3.8,7c0,0,0,0-0.1,0c-0.4,0.3-0.7,0.7-0.9,1.2c-1.3,1.9,0.6,2.1,1.5,2.7
		c5,3.1,10.1,6.1,15.2,9.2c1.3,2.3,3.6,3.4,5.7,4.6c7.3,4.3,14.6,8.5,21.9,12.8c4.3,2.4,8.5,5.1,12.9,7.4c1.2,0.6,2.3,1.5,3.7,1
		c1.7,2.5,3.5,0.4,5.1-0.4c7.4-3.9,14.5-8.5,21.7-12.8c1.1-0.8,2.3-1.5,3.6-2.1c4.1-2.1,7.7-5,11.8-7.1c4.9-3,9.9-5.8,15-8.6
		c0.4-0.2,0.8-0.5,1.2-0.7c0.7-0.4,1.4-0.9,2.1-1.3C316.8,1629,317,1627.1,312.8,1623.7z"/>
	<path d="M280.2,1660.9c-2,1.8-4.3,3.1-6.9,4c-2.6,0.4-4.8,1.4-6.2,3.8c-3.7,2.3-7.4,4.7-11.1,7c-1,0.5-2,1.1-3,1.6
		c-1.2-1.6-2.8-2.6-4.4-3.6c-3.7-1.8-7.1-4.2-10.7-6.1c-6-3-11.1-7.6-17.7-9.5c-9.7-4.8-18.8-10.5-27.9-16.3
		c-1.8,1.5,0.1,2.2,0.7,3.1c7.8,11.2,15.6,22.5,23.5,33.7c-0.1,2,1.2,3.3,2.2,4.8c2.6,3.6,5.3,7.2,7.8,10.9
		c6.9,9.8,14,19.4,20.9,29.3c0.7,0.9,1.5,1.8,2.2,2.7c0.8,0.7,1.3,1.7,2.5,1.4c0.1,0.1,0.1,0.3,0.2,0.3c0.1,0.1,0.3,0.1,0.4,0
		c1.5-1.8,3-3.6,4.5-5.4c0.3-0.4,0.3-0.8,0.3-1.2c1.9-2.3,3.7-4.5,5.6-6.8c1.5-3.1,3.6-5.8,5.9-8.4c4.4-3.1,6.4-8.1,9.7-12
		c0.3-0.4,0.5-0.7,0.8-1.1c7-9.4,13.5-19.2,20.4-28.6c2.9-4.2,6-8.4,9-12.6c0.7-0.9,0.8-2.1,1.2-3.1c1.4-2.2,2.8-4.4,4.6-7.4
		c-2.5,1.2-4,1.9-5.5,2.6C299.8,1650,290.2,1655.8,280.2,1660.9z"/>
	<path d="M390,1677.7c-20.3,0-35.1-15.2-35.1-36c0-21,14.8-36.2,35.1-36.2c9.5,0,17.7,3.2,23.7,9.3c6.6,6.7,10.1,16.8,9.9,28.4v2
		h-59.1c1.5,14.2,11.7,23.6,25.9,23.6c8.7,0,16.3-3.1,21.5-8.7l1.5-1.6l5.8,6.5l-1.2,1.3C411,1673.6,401.1,1677.7,390,1677.7z
		 M414.4,1636.2c-1.7-13.5-10.9-21.8-24.4-21.8c-13.4,0-23.4,8.7-25.4,21.8H414.4z"/>
	<path d="M390,1607.5c-19.2,0-33.1,14.2-33.1,34.2s13.9,34,33.1,34c10.8,0,20.1-4,26.3-10.8l-3.1-3.5c-5.5,6-13.7,9.4-22.9,9.4
		c-15.8,0-27.2-11.1-28-27.6h59.3C422,1622.1,410,1607.5,390,1607.5z M362.4,1638.2c1.3-15.4,12.4-25.8,27.6-25.8
		c15.5,0,25.6,10.4,26.6,25.8H362.4z"/>
	<path d="M458.4,1677.7c-10.9,0-17.1-7.6-17.1-20.9V1616h-9.9v-8.7h9.9v-16.8h9.2v16.8h23.1v8.7h-23.1v40.1
		c0,12.2,6.4,12.2,8.5,12.2h0.2c3.4,0,7.1-1.3,10.4-3.5l1.9-1.4l3.8,8.1l-1.4,1c-4.9,3.4-10.1,5.2-15.4,5.2L458.4,1677.7z"/>
	<path d="M459.4,1670.3c-7,0.1-10.8-4.6-10.8-14.2V1614h23.1v-4.7h-23.1v-16.8h-5.2v16.8h-9.9v4.7h9.9v42.8c0,12.8,5.7,19,15.4,18.9
		c5.1,0,9.9-1.8,14.2-4.8l-2.1-4.4C467.3,1668.9,463.3,1670.3,459.4,1670.3z"/>
	<path d="M542.4,1677.5v-42.4c0-12.8-7.3-20.2-20.2-20.2c-15.4,0.4-24.6,10.6-24.6,27.3v35.2h-9.5v-100.7h9.5v40.7
		c5.6-7.7,14.4-11.8,25.9-12c17.5,0,28.4,11,28.4,28.6v43.5H542.4z"/>
	<path d="M523.5,1607.5c-13.7,0.3-23.3,6.4-27.9,17.9v-46.5h-5.5v96.7h5.5v-33.2c0-17.7,9.8-28.9,26.6-29.3
		c13.9,0,22.2,8.2,22.2,22.2v40.4h5.5v-41.5C549.8,1617.5,540.1,1607.5,523.5,1607.5z"/>
	<path d="M600.6,1677.7c-20.3,0-35.1-15.2-35.1-36c0-21,14.8-36.2,35.1-36.2c9.5,0,17.7,3.2,23.7,9.3c6.6,6.7,10.1,16.8,9.9,28.4v2
		h-59.1c1.5,14.2,11.7,23.6,25.9,23.6c8.7,0,16.3-3.1,21.5-8.7l1.5-1.6l5.8,6.5l-1.2,1.3C621.5,1673.6,611.7,1677.7,600.6,1677.7z
		 M625,1636.2c-1.7-13.5-10.9-21.8-24.4-21.8c-13.4,0-23.4,8.7-25.4,21.8H625z"/>
	<path d="M600.6,1607.5c-19.2,0-33.1,14.2-33.1,34.2s13.9,34,33.1,34c10.8,0,20.1-4,26.3-10.8l-3.1-3.5c-5.5,6-13.7,9.4-22.9,9.4
		c-15.8,0-27.2-11.1-28-27.6h59.3C632.5,1622.1,620.5,1607.5,600.6,1607.5z M572.9,1638.2c1.3-15.4,12.4-25.8,27.6-25.8
		c15.5,0,25.6,10.4,26.6,25.8H572.9z"/>
	<path d="M649.5,1677.5v-71.9h9.5v11.2c5.2-7.2,13.3-11.2,23.2-11.4h2v9.7h-2c-13.7,0-22.1,8.7-23.3,23.8v38.7L649.5,1677.5
		L649.5,1677.5z"/>
	<path d="M657,1624.7v-17.1h-5.5v67.9h5.5v-36.8c1.2-15.8,10.3-25.7,25.3-25.7v-5.6C670.2,1607.7,661.3,1613.7,657,1624.7z"/>
	<path d="M723,1677.7c-20.3,0-35.1-15.2-35.1-36c0-21,14.8-36.2,35.1-36.2c9.5,0,17.7,3.2,23.7,9.3c6.6,6.7,10.1,16.8,9.9,28.4v2
		h-59.1c1.5,14.2,11.7,23.6,25.9,23.6c8.7,0,16.3-3.1,21.5-8.7l1.5-1.6l5.8,6.5l-1.2,1.3C744,1673.6,734.1,1677.7,723,1677.7z
		 M747.4,1636.2c-1.7-13.5-10.9-21.8-24.4-21.8c-13.4,0-23.4,8.7-25.4,21.8H747.4z"/>
	<path d="M723,1607.5c-19.2,0-33.1,14.2-33.1,34.2s13.9,34,33.1,34c10.8,0,20.1-4,26.3-10.8l-3.1-3.5c-5.5,6-13.7,9.4-22.9,9.4
		c-15.8,0-27.2-11.1-28-27.6h59.3C754.9,1622.1,742.9,1607.5,723,1607.5z M695.3,1638.2c1.3-15.4,12.4-25.8,27.6-25.8
		c15.5,0,25.6,10.4,26.6,25.8H695.3z"/>
	<path d="M797.7,1677.7c-17.5,0-27.9-10.7-27.9-28.6v-43.5h9.3v42.4c0,12.8,7.2,20.2,19.8,20.2c15.1-0.4,24.1-10.6,24.1-27.3v-35.2
		h9.3v71.9H823v-12C817.4,1673.3,808.7,1677.6,797.7,1677.7L797.7,1677.7L797.7,1677.7z"/>
	<path d="M824.9,1640.9c0,17.7-9.6,28.9-26.1,29.3c-13.7,0-21.8-8.2-21.8-22.2v-40.4h-5.3v41.5c0,16.7,9.5,26.6,25.9,26.6
		c13.4-0.1,22.9-6.5,27.2-18.3v18.1h5.3v-67.9h-5.3L824.9,1640.9L824.9,1640.9z"/>
	<path d="M961.5,1677.5v-42.4c0-12.8-7.2-20.2-19.8-20.2c-14.9,0.4-23.8,10.6-23.8,27.3v35.2h-9.3V1635c0-12.8-7.2-20.2-19.8-20.2
		c-15,0.4-23.9,10.6-23.9,27.3v35.2h-9.3v-71.9h9.3v11.9c5.5-7.7,14.1-11.8,25.3-12c12.5,0,21.4,5.6,25.4,15.7
		c5.2-10,14.6-15.4,27.4-15.7c17.5,0,27.9,10.7,27.9,28.6v43.5L961.5,1677.5L961.5,1677.5z"/>
	<path d="M943,1607.5c-13.9,0.3-23.6,7-27.8,19.7c-2.3-12.4-11.3-19.7-25-19.7c-13.4,0.3-22.9,6.4-27.4,18v-17.9h-5.3v67.9h5.3
		v-33.2c0-17.7,9.6-28.9,25.9-29.3c13.6,0,21.8,8.2,21.8,22.2v40.4h5.3v-33.2c0-17.7,9.5-28.9,25.8-29.3c13.7,0,21.8,8.2,21.8,22.2
		v40.4h5.3v-41.5C968.8,1617.5,959.3,1607.5,943,1607.5z"/>
</g>
<g>
	<path d="M319.4,1989.4c-10-35.5-46.3-56.8-82.1-47.9c-34.5,8.6-56.9,43.2-50.9,78.7c6.4,37.9,42.3,64.1,81,56.3
		c12.5-2.5,23.4-8.3,32.7-16.9c1.9-1.8,2.6-4,1.9-6.5c-0.7-2.4-2.3-3.9-4.6-4.4c-2.6-0.6-4.5,0.5-6.4,2.2
		c-17.5,15.8-42.4,18.9-63.2,7.9c-5.9-3.1-11.1-7.2-15.5-12.3c9.6-15.4,19.1-30.6,28.7-45.9c0.4,0.7,0.4,1.3,0.4,1.8
		c0,6.2-0.1,12.4,0.1,18.6c0.1,2.9,0.4,6,1.3,8.7c2.2,6.9,9.3,8.8,14.7,4.1c2-1.8,3.7-4,5.2-6.2c2.7-4,5.1-8.2,7.7-12.4
		c3.1-5,6.2-10,9.3-15.1c0.2,0,0.3,0.1,0.5,0.1c0,2.5-0.1,4.9,0,7.4c0.2,4.2,0.1,8.5,1,12.5c2.6,11.8,13.1,18.2,24.2,15.2
		c9-2.4,15.9-11.2,16.6-21.3C322.5,2005.7,321.6,1997.5,319.4,1989.4z M309.4,2012.6c-0.3,3.5-1.6,6.7-4.5,8.9
		c-4.5,3.5-9.7,2-11.5-3.4c-0.6-1.8-0.8-3.7-0.8-5.6c-0.2-6.2-0.1-12.3-0.4-18.5c-0.1-2-0.9-4.2-1.8-6c-2.6-5-8-6.4-12.9-3.7
		c-3.1,1.7-5.4,4.3-7.3,7.2c-4.9,7.7-9.7,15.6-14.6,23.3c-0.5,0.8-1,1.6-1.9,2.3v-1.8c0-8.3,0.1-16.6,0-24.9c0-2.2-0.4-4.5-0.9-6.7
		c-0.7-3.1-2.6-5.3-5.8-6.1c-3.3-0.8-6.1,0.5-8.3,3c-1.1,1.3-2.1,2.7-3,4.1c-10.1,16.2-20.3,32.4-30.4,48.7
		c-0.3,0.4-0.6,0.9-1.2,1.7c-1.3-3.2-2.6-6.1-3.5-9c-10.4-31.6,8.4-65.1,40.8-72.9c24.1-5.8,50.1,6.4,61.6,28.8
		C308,1991.8,310.2,2001.9,309.4,2012.6z"/>
	<path d="M612.9,2037.3c-0.1,2.6-1.4,4.5-3.8,5.5c-2.3,0.9-4.6,0.5-6.4-1.2c-1.5-1.3-2.1-3-2.1-4.9c0-8.5,0-16.9,0-25.4v-2.1
		c-4.2,4.5-8.1,8.7-11.9,12.9c-0.7,0.7-1.4,1.5-2,2.2c-2.5,2.7-4.5,2.8-7,0.1c-4.2-4.6-8.4-9.1-12.7-13.7c-0.3-0.3-0.6-0.7-1.3-1.4
		v2.2c0,8.3,0,16.7,0,25c0,3.7-2.5,6.5-6,6.7c-3.6,0.2-6.4-2.7-6.4-6.5c0-8.7,0-17.3,0-25.9c0-9.1,0-18.1,0-27.2
		c0-1.3-0.2-2.5,1.4-3.1c1.5-0.6,2.5,0.3,3.4,1.2c4.1,4.5,8.1,9.1,12.2,13.6c3.5,3.9,7,7.9,10.5,11.8c2,2.2,2.7,2.2,4.7,0
		c7.1-8,14.2-15.9,21.3-23.9c0.6-0.7,1.2-1.6,2-2c0.9-0.5,2.1-0.8,3-0.6c1.2,0.2,1.3,1.5,1.3,2.6c0,14.8,0,29.6,0,44.4
		C613,2030.9,613.1,2034.1,612.9,2037.3z"/>
	<path d="M989.7,2011c-3.4-8.2-11-12.9-19.8-12.6c-5,0.2-9.5,1.9-13.2,5.6c-0.1-0.4-0.2-0.7-0.3-1c-0.9-3-2.8-4.4-5.4-4
		c-2.6,0.4-4.1,2.4-4.1,5.4c0,17,0,34.1,0,51.1c0,3.8,2.7,6.6,6.2,6.7c3.4,0,6.2-2.9,6.3-6.6c0-2,0-4,0-6v-9.2
		c0.7,0.4,1.2,0.7,1.6,0.9c11,5.4,22.4,2.3,28-8.7C992.5,2025.6,992.8,2018.3,989.7,2011z M976.6,2029.1c-3.4,4.3-9.2,4.8-13.3,1.2
		c-4.7-4-5.4-11.9-1.5-16.7c2.5-3.2,6.8-4.5,10.5-3.3c3.8,1.2,6.6,4.8,7,9.2c0,0.5,0.1,1.1,0.1,1.6
		C979.3,2024,978.5,2026.7,976.6,2029.1z"/>
	<path d="M885.3,2035.4c-9.5,7.9-20.2,10.8-32,6.5c-11.6-4.2-18.4-12.9-20.7-25c-0.3-1.7-0.4-3.5-0.5-4.6
		c0.2-19.2,15.3-33.7,33.5-32.7c5.8,0.3,11.2,2.1,16,5.3c2.3,1.6,3.5,3.7,3,6.5c-0.7,3.9-5.3,5.8-8.6,3.7c-4.4-2.9-9.2-4.4-14.5-3.8
		c-6.5,0.8-11.4,4.2-14.4,10c-3.6,7.1-3.7,14.3,0,21.3c5.6,10.7,19,13.3,29,5.9c0.7-0.5,1.3-1.1,1.9-1.6c2.4-1.9,5.8-1.6,7.7,0.6
		C887.8,2029.9,887.6,2033.5,885.3,2035.4z"/>
	<path d="M420.8,2035.3c-12.5,11.1-29.5,11.2-41.5,1.3c-8.3-6.8-11.9-15.8-11.8-26.8c1.3-13.3,7.9-23.2,20.8-28.3
		c9.9-3.8,19.6-2.5,28.5,3.2c2.6,1.6,3.7,4.1,3.2,6.6c-0.5,2.3-2.4,4.3-4.9,4.5c-1.3,0.1-2.8-0.3-4-1c-6.5-3.9-13.2-5.2-20.3-1.8
		c-7.3,3.4-11.8,12.1-10.9,20.5c0.7,7.4,3.7,13.6,10.6,17c7.9,3.9,15.3,2.4,22.1-2.8c1.1-0.9,2.5-1.6,3.9-1.9c2.3-0.5,4.5,0.9,5.5,3
		C423.1,2031.1,422.7,2033.7,420.8,2035.3z"/>
	<path d="M665.3,2003.6c-0.2-2.6-2.3-4.6-4.8-4.6s-4.4,1.8-4.7,4.4c-0.1,0.5-0.1,0.9-0.3,1.7c-0.6-0.6-0.9-0.8-1.2-1.1
		c-7.6-7.3-19.3-7.4-27,0c-7.3,7-9.1,19-4.2,28.6c3.8,7.4,9.8,11.6,18.4,11.3c5.3-0.2,10.2-1.8,14-6.4c0.1,0.9,0.2,1.5,0.3,2
		c0.3,1.8,1.8,3.4,3.6,3.8c2,0.4,3.8-0.1,4.8-1.8c0.6-1,1-2.4,1-3.7c0.1-11,0-22,0-33C665.3,2004.3,665.3,2003.9,665.3,2003.6z
		 M650.4,2028.6c-4.4,6-12.6,5.4-16-1.2c-1-1.9-1.3-4.1-2-6.2c0.4-3.7,1.4-7,4.4-9.3c4.9-3.8,12.1-2,14.8,3.8
		C653.7,2020.1,653.3,2024.6,650.4,2028.6z"/>
	<path d="M935.6,2004.4c0-0.5,0-0.9-0.1-1.4c-0.4-2.3-2.3-4-4.7-4c-2.3,0-4.2,1.6-4.6,3.9c-0.1,0.7-0.2,1.3-0.4,2.6
		c-0.6-0.8-0.8-1.2-1.1-1.5c-7.8-7.4-19.5-7.3-27.2,0.3c-8.2,8.1-9,22.3-1.8,31.8c7.4,9.9,21.7,10.7,30.3,1.5
		c0.2,0.9,0.2,1.5,0.4,2.1c0.4,1.9,1.9,3.3,3.7,3.6c2,0.3,3.7-0.3,4.7-2c0.6-1,0.9-2.2,0.9-3.3
		C935.7,2026.7,935.6,2015.6,935.6,2004.4z M919.8,2029.7c-4.5,4.5-11,3.8-14.5-1.4c-2.2-3.3-2.8-7-1.7-10.8
		c1.3-4.8,5.3-7.9,9.6-7.7c5,0.3,9,3.9,9.8,9c0.1,0.8,0.2,1.6,0.2,2.1C923.1,2024.5,922.2,2027.4,919.8,2029.7z"/>
	<path d="M746,2041.5c-2.5,2.3-5.7,2.4-8.1-0.1c-3-3.2-5.9-6.6-8.8-10c-2.2-2.5-4.4-5.1-6.9-8c0,4.5,0,8.5,0,12.5
		c0,0.8,0,1.7-0.2,2.5c-0.7,3.1-3.5,5.1-6.5,4.8c-3-0.3-5.3-2.6-5.6-5.7c0-0.4,0-0.7,0-1.1c0-16.4,0-32.8,0-49.2
		c0-4.1,2.6-7,6.2-6.9c3.6,0,6.2,3,6.2,7v30c0.1,0.1,0.3,0.1,0.4,0.2c4.4-4.9,8.9-9.8,13.3-14.7c0.8-0.8,1.5-1.7,2.4-2.4
		c2.4-2,5.5-1.8,7.6,0.5c2.2,2.3,2.3,5.7,0.3,7.9c-3.5,3.8-7,7.6-10.5,11.5c2.4,2.9,4.7,5.7,7,8.5c1.3,1.6,2.6,3.1,3.8,4.7
		C748.6,2035.9,748.4,2039.2,746,2041.5z"/>
	<path d="M787,2024.9c3.3,0,5.4-2.1,5.4-5.3c-0.1-11.6-7-19.7-18.4-21c-9.7-1.2-18.6,2.5-22.3,12.9c-2,5.6-2.2,11.4-0.8,17.1
		c1.6,6.5,5.6,11.1,12,13.5c4.5,1.7,9.2,2,14,1.5c3.5-0.3,6.7-1.3,9.6-3.3c1.4-1,2.5-2.2,2.6-4c0.3-4.2-3.7-6.6-7.8-4.8
		c-4.8,2.2-9.8,2.8-14.7,0.3c-2.7-1.3-3.9-3.7-4-7h2C772,2024.9,779.5,2025,787,2024.9z M770.6,2010.1c4.4-0.2,9.5,2.1,9.6,6.7
		h-17.6C762.6,2013.1,766,2010.3,770.6,2010.1z"/>
	<path d="M448.7,1998.4c-12.3,0.1-22.6,10.3-22.5,22.5c0,12.5,10.5,22.9,23,22.9c11.9,0,21.9-10.6,21.8-23
		C471,2008.3,461,1998.3,448.7,1998.4z M456.9,2027.6c-3.4,6.2-11.1,6.9-15.5,1.4c-3.1-3.9-3.7-8.3-1.8-12.9c1.8-4.3,6.3-6.7,10.8-6
		c4.4,0.7,7.7,4.4,8.2,9.3c0,0.5,0.1,1.1,0.1,1.6c0.1,0,0.3,0.1,0.4,0.1C458.4,2023.3,458,2025.6,456.9,2027.6z"/>
	<path d="M543,2037.4c0,3.3-2.9,5.9-6.1,5.9c-3.2,0-6-2.3-6.1-5.7c-0.2-5.8-0.1-11.6-0.1-17.4c0-1.3,0-2.7-0.2-4.1
		c-0.4-3.3-2.2-5.3-5.2-5.9c-4.1-0.9-7.5,0-8.9,2.9c-1,2-1.6,4.3-1.7,6.6c-0.2,5.6,0,11.1-0.1,16.7c0,4-2.3,6.6-5.7,6.9
		c-3.6,0.3-6.5-2.4-6.6-6.1c-0.1-3.6,0-7.1,0-10.7v-21.7c0-3.4,1.4-5.4,4-5.8c2.7-0.4,4.5,1,5.7,4.5c3-2.6,6.2-4.4,10.1-4.9
		c11.3-1.7,20.2,5.1,20.9,16.4C543.3,2022.4,543.1,2029.9,543,2037.4z"/>
	<path d="M827.3,2038.8c-0.2,2.5-2.3,4.9-4.8,4.9c-2.9,0.1-5.9,0-8.8-0.4c-4.6-0.8-7.6-3.7-8.7-8.1c-0.8-3.2-1.2-6.6-1.4-10
		c-0.2-4.4,0-8.9,0-13.3v-2.1c-1.2,0-2.2,0-3.1,0c-3.1-0.1-5.5-2.5-5.5-5.5c0-3.1,2.3-5.7,5.3-5.8c1-0.1,2.1,0,3.4,0
		c0-3.9,0-7.6,0-11.3c0-2.8,1.1-5.1,3.8-6.3c4-1.8,8.4,1.2,8.6,5.6c0.1,1.9,0,3.9,0,5.9v6.1c1.9,0,3.4,0,5,0
		c3.3,0.1,5.7,2.5,5.6,5.8c0,3.2-2.4,5.5-5.6,5.6c-1.6,0-3.2,0-4.7,0c-0.1,0.3-0.3,0.5-0.3,0.6c0.1,6,0,12,0.3,17.9
		c0.1,3.7,1.1,4.3,4.7,4.4C825.1,2032.8,827.6,2035.2,827.3,2038.8z"/>
	<path d="M705.1,2004.1c0,3.1-2.5,5.6-5.7,5.6c-0.5,0-1.1,0-1.6,0.1c-6.3,0.7-8.9,3.5-9,9.8c0,5.6,0,11.1,0,16.7c0,4-2.4,6.8-6,6.9
		s-6.3-2.7-6.4-6.8c0-8.2,0-16.3,0-24.5c0-2.7-0.1-5.3,0-8c0.1-2.4,1.5-4.3,3.5-4.8c1.9-0.5,4,0.1,5.1,1.7c0.5,0.8,0.8,1.7,1.2,2.6
		c0.9-0.6,1.7-1.3,2.6-2c3.2-2.3,6.8-3.2,10.7-3C702.7,1998.6,705.1,2001.2,705.1,2004.1z"/>
	<path d="M490.9,2036.7c0,3.8-2.8,6.6-6.3,6.5c-3.5,0-6.1-2.8-6.1-6.7c0-5.2,0-10.3,0-15.5s0-10.3,0-15.5c0-3.9,2.6-6.7,6.1-6.7
		s6.3,2.8,6.3,6.5C491,2015.9,491,2026.3,490.9,2036.7z"/>
	<path d="M492,1986.9c0.1,4-3.2,7.3-7.3,7.4c-4,0-7.2-3.2-7.2-7.3c0-4.1,3.1-7.4,7.1-7.4C488.6,1979.5,491.9,1982.8,492,1986.9z"/>
</g>
<g>
	<path d="M455.5,2211.9c-2.7-25.1-21.3-47.2-45.7-54.4c-4-1.2-8.2-1.7-12.2-2.7h-13.5h0h0c-4,1-8.2,1.5-12.2,2.7
		c-24.5,7.3-42.9,29.1-45.7,54.4c0,0.4-0.2,0.7-0.3,1.1c0-1.1,0-2.2,0-3.4c-0.1,1-0.2,2-0.2,2.9l0,0c0,0.4,0,0.7,0,1.1v12.3
		c0,0.3,0,0.6,0.1,0.9c0.1,0.7,0.1,1.4,0.2,2.2c0-0.8,0-1.7,0-2.5c1,5.5,2,11.1,4.1,16.4c6.8,17.2,18.6,29.6,35.7,36.8
		c6.4,2.7,13.2,4.1,20.2,4.7c0,0,0,0.1,0,0.1c0,0.1,0,0.2,0,0.3h9.8l0,0c0-0.1,0-0.3,0-0.4c1.2-0.1,2.5-0.3,3.7-0.5
		c7.5-1.2,14.8-2.9,21.4-6.4c22.1-11.8,35-33.4,35-57.9C455.9,2217.1,455.8,2214.5,455.5,2211.9z M374.2,2205.2
		c0-4.6,3.6-8.3,8.2-8.3c4.5,0,8.2,3.6,8.3,8.1c0.1,4.6-3.6,8.3-8.2,8.3C377.8,2213.3,374.3,2209.7,374.2,2205.2z M348.7,2216.9
		c-0.6,9.6-1.3,19.3-4.1,28.7c-0.8,2.7-1.6,5.3-3.1,8c-2.9-3.9-5-8-6.6-12.3c-13.5-35.7,8.5-74.5,46.1-80.7
		c18.7-3.1,35.6,1.6,49.9,14.4c15.1,13.5,21.5,30.6,19.9,50.7c-2.1,25.3-22,47.5-47.2,52.8c-1.9,0.4-2.1-0.3-2.1-1.8
		c-0.5-8.3,2.5-15.5,6.6-22.4c4.9-8.3,11.4-15.2,18.3-22c2.9-2.8,6.2-5.5,8.4-8.9c-2.1,1.1-3.9,2.8-6.2,3.7
		c-7.8,4.1-15.9,7-24.8,6.9c-4.2,0-8.1-1.3-11.2-4.3c2.5,0.9,5,1.8,7.7,2.1c9.2,0.9,17.9-1.2,26.2-4.7c0.5-0.2,1-0.4,1.5-0.6l0,0
		c2.6-1.2,4.8-3.2,7.6-4.1c1.2-1.4,2-2.9,2.7-4.6c2.3-5.7,0.7-10.6-4.9-14.4c-3.6-2.5-7.7-4-11.9-5.1c-4.1-1.1-8-2.8-12-4.2
		c-0.8-0.3-1.2-0.9-1.7-1.5c-1.2-2.6-3.2-4.3-5.9-5.1c-3.2-1-6.4-0.8-9.6,0c-1.7,0.4-3.4-0.2-5-0.5c-7.3-1.4-13.9,0.7-20.6,3.4
		C354.7,2195.4,349.4,2204.4,348.7,2216.9z M421.5,2216.5c0-1.5,1-2.4,2.5-2.4c1.5,0,2.3,0.9,2.5,2.5c-0.2,1.4-0.9,2.5-2.5,2.5
		C422.4,2219.1,421.5,2218.1,421.5,2216.5z"/>
	<path d="M977.3,2227.9c-3.1-14.2-15.9-21.6-31.5-18.3c-11.6,2.4-18.9,12.5-19,25c0,0.8,0,1.7,0.1,2.5c0.7,8.8,3.3,16.5,11.3,21.4
		c15.4,9.6,34.1,2.2,39.1-15.3c0.1-0.3,0.4-0.6,0.6-0.8l0,0l0,0v-13.8C977.7,2228.4,977.4,2228.2,977.3,2227.9z M964,2246.8
		c-2.8,4.6-6.9,6.9-12.4,6.6c-5.5-0.4-9.1-3.5-11.3-8.3c-2.7-6-2.7-12.2-0.3-18.3c2.2-5.7,7.1-9,12.8-8.9c5.5,0.1,10.1,3.4,12.4,9
		c1.2,2.8,1.5,5.8,1.6,8.8C966.7,2239.6,966,2243.4,964,2246.8z"/>
	<path d="M753.7,2224c-7,0.1-14,0-21,0c-6.2-0.1-6.2-0.1-6.2,6.4c0,2.3,0.7,3.2,3,3c4.3-0.2,8.7,0,13-0.1c2.4-0.1,2.8,0.8,2.5,3
		c-1.1,7.6-4.7,13.3-12.4,15.3c-8.3,2.2-16.2,1-22-6.1c-8.1-9.9-7.9-29.9,0.4-39.6c8.3-9.7,26.4-8.4,31,2.8c1.8,4.4,4,5.1,7.9,4.7
		c1.2-0.1,2.4-0.1,3.6,0c1.9,0.1,2.3-0.7,2-2.4c-0.7-3.3-1.8-6.4-3.7-9.3c-9.5-14.3-33.6-17-47.2-4.8c-11.2,10-13.8,23-11.5,37.2
		c1.7,10.6,7,19.2,16.7,24.6c12.5,6.8,24.4,5.1,37.1-5.3c0.3,1,0.6,1.7,0.7,2.4c1.2,5.5,1.2,5.4,6.7,5.2c1.9-0.1,2.5-0.7,2.5-2.5
		c0-10.5,0-21,0.1-31.5C756.6,2224.7,755.8,2224,753.7,2224z"/>
	<path d="M540.6,2234.2c-0.7,0-1.4,0.1-2.2,0c-3.1-0.6-4.1,0.9-4.6,3.8c-1.6,7.6-5.9,12.8-13.9,14.3c-7.5,1.4-15.1-1.9-19.4-8.4
		c-6.6-10-6.3-27,0.7-36.7c7.5-10.4,24.9-10.7,30.3,0.3c2.8,5.7,6.1,6.7,11.3,6c0.4-0.1,0.7-0.1,1.1,0c2.8,0.4,3-0.9,2.4-3.1
		c-0.9-4.1-2.5-7.8-5.2-10.9c-6.3-7.3-14.6-9.8-22.9-10c-10.7-0.1-19.5,3.6-25.3,10.1c-12.5,13.9-12.9,38.2-0.7,52.3
		c8.6,9.9,19.8,12.7,32.2,10.1c11.4-2.5,18.5-9.9,21.4-21.2C547.3,2234.2,547.3,2234.2,540.6,2234.2z"/>
	<path d="M920.7,2209.8c-0.1,0.2-0.3,0.4-0.5,0.5c0.4,0,0.8,0,1.2,0C921.2,2210.2,921,2210,920.7,2209.8z"/>
	<path d="M904.7,2231.6c-1.4-2-1.1-3,0.5-4.8c5.1-5.4,10.1-10.9,15.1-16.5c-1.5,0.1-3,0.1-4.5-0.1c-5.2-0.7-9.2,0.9-12.5,5.2
		c-2.2,3-5.1,5.4-7.9,8c-2.2,2.1-3.8,4.8-7,6.7v-31.2c0-8.1,0-8-8-8c-2.4,0-3.3,0.5-3.3,3.1c0.1,21.4,0.1,42.7,0,64.1
		c0,2.1,0.4,2.9,2.8,2.9c8.6,0,8.8,0.1,8.5-8.4c-0.2-6.4-0.1-12.4,7-15.6c3.1,4.9,7,9.9,9.5,15.4c3.3,7.2,8.3,9.9,15.9,8.6
		c0.9-0.1,2.2,0.4,2.7-0.5c0.6-1-0.6-1.7-1-2.5C916.5,2249.2,910.7,2240.3,904.7,2231.6z"/>
	<path d="M812,2223.4c-4.1-8.8-10.8-14.1-20.7-14.4c-9.6-0.4-17.2,3.6-21.8,12c-5.2,9.5-5.3,19.4-0.6,29.1
		c3.9,8.1,11,11.8,19.9,12.2c9.1,0.4,16.9-2.2,22-10.3c1.2-2,3-4.3,2.2-6.2c-0.7-1.7-3.7-0.4-5.7-0.7c-0.6-0.1-1.2,0-1.8-0.1
		c-1.7-0.1-2.8,0.4-3.7,2.1c-2.9,5.3-8.3,7.4-14.5,6c-5.5-1.2-9.6-6.1-10.1-11.8c-0.1-1.9,0.3-2.5,2.2-2.5
		c5.4,0.1,10.9,0.1,16.3,0.1c3.1,0,6.2,0,9.4,0c10.1,0,10.9-1.2,8.3-11.3C813,2226.1,812.6,2224.7,812,2223.4z M800.6,2231.1
		c-3.6,0-7.2,0-10.9,0c-3.5,0-7-0.1-10.5,0c-1.4,0-2.2-0.2-2-2c0.5-6,6.6-11.3,13.1-11.2c6,0.1,11.7,5.5,12.2,11.4
		C802.7,2231,801.8,2231.1,800.6,2231.1z"/>
	<path d="M585.3,2209.3c-12.5-2.3-24,2.5-28.6,12.6c-4.2,9.1-4.1,18.5,0.1,27.6c1.7,3.8,4.5,6.9,8.1,9c9.2,5.3,18.7,5.4,28,0.5
		c9.2-4.9,11.9-13.7,12-23.5c0-1.2,0.1-2.4,0-3.6C603.9,2220.3,596.1,2211.4,585.3,2209.3z M591.4,2245.5c-2.6,5-6.5,8-12.4,7.8
		c-5.9-0.1-9.7-3.2-12-8.3c-2.8-6.2-2.8-12.7,0.1-18.9c2.2-5,6.2-8,11.8-8.2c5.8-0.1,9.9,2.7,12.5,7.7c1.7,3.3,2.1,6.9,2.2,9.6
		C593.4,2239.4,592.9,2242.6,591.4,2245.5z"/>
	<path d="M682.3,2224.6c-0.1-8.2-5-13.9-12.8-15.3c-8.3-1.4-15.4,0.4-20.9,8c-0.7-7.2-0.7-7.2-7.2-7.2c-0.1,0-0.2,0-0.4,0
		c-2.5-0.3-3.3,0.7-3.3,3.2c0.1,13.4,0,26.7,0,40.1c0,7.5,0.1,7.3,7.8,7.5c2.9,0.1,3.6-0.8,3.6-3.6c-0.2-8.8-0.1-17.6-0.1-26.4
		c0.1-7.8,5.3-13.3,12.4-13.2c6.6,0.1,9.4,3.8,9.4,12.5c0,7.3,0,14.7,0,22c0,8.8,0,8.8,8.9,8.5c2.1-0.1,2.6-0.7,2.6-2.8
		C682.3,2247,682.4,2235.8,682.3,2224.6z"/>
	<path d="M855,2223.3c1.6,3.6,3.4,4.7,6.3,4c1.4,0,2.3-0.1,3.2,0c3.1,0.4,3.8-0.8,2.9-3.6c-1-3.3-2.5-6.2-5-8.7
		c-7.6-8-28.9-9.7-37.6,3.6c-5.1,7.7-5.9,16.2-4.1,25c2.2,11.4,11.1,18.6,22.9,18.8c12.7,0.3,20.4-5.4,23.7-16.9
		c0.9-3.3,0.1-4.1-3-3.7c-1.5,0.1-3.1,0.1-4.7,0c-2.2-0.2-3,0.4-3.6,2.8c-1.2,4.8-4.3,8-9.5,8.8c-5.3,0.7-9.8-1.2-12.2-5.9
		c-4.2-8-4.3-16.3,0.5-24.1C839.2,2216,851.8,2215.9,855,2223.3z"/>
	<path d="M625.8,2235.7c0-5.8,0-11.6,0-17.4c0-8.3,0-8.1-8.3-8.1c-2.6,0-3.2,0.9-3.2,3.4c0.1,13,0.1,26.1,0.1,39.1
		c0,8.3,0,8.2,8.3,8.3c2.9,0.1,3.3-1,3.3-3.6C625.8,2250.2,625.8,2242.9,625.8,2235.7z"/>
	<path d="M621.9,2190.8c-7.8,0.3-7.7,0.1-7.6,7.8c0,2.1,0.6,3.2,2.8,2.9c0.9-0.1,1.9,0,2.9,0c5.9,0,5.9,0,5.9-5.8c0-0.2,0-0.5,0-0.7
		C626.4,2192,625.3,2190.8,621.9,2190.8z"/>
</g>
</svg>
