<?xml version="1.0" encoding="utf-8"?>
<!-- Generator: Adobe Illustrator 24.2.1, SVG Export Plug-In . SVG Version: 6.00 Build 0)  -->
<svg version="1.1" id="Layer_1" xmlns="http://www.w3.org/2000/svg" xmlns:xlink="http://www.w3.org/1999/xlink" x="0px" y="0px"
	 viewBox="0 0 1000 1000" style="enable-background:new 0 0 1000 1000;" xml:space="preserve">
<style type="text/css">
	.st0{fill:#7AC943;stroke:#FFFFFF;stroke-width:5;stroke-miterlimit:10;}
	.st1{fill:#FF7BAC;stroke:#FFFFFF;stroke-width:5;stroke-miterlimit:10;}
	.st2{fill:#202020;stroke:#FFFFFF;stroke-width:5;stroke-miterlimit:10;}
	.st3{fill:#FF1D25;stroke:#FFFFFF;stroke-width:5;stroke-miterlimit:10;}
	.st4{fill:#3FA9F5;stroke:#FFFFFF;stroke-width:5;stroke-miterlimit:10;}
	.st5{fill:#FF931E;stroke:#FFFFFF;stroke-width:5;stroke-miterlimit:10;}
	.st6{fill:#BDCCD4;stroke:#FFFFFF;stroke-width:5;stroke-miterlimit:10;}
	.st7{stroke:#FFFFFF;stroke-width:5;stroke-miterlimit:10;}
	.st8{fill:#FFFFFF;}
</style>
<g>
	<g>
		<g>
			<g>
				<path class="st0" d="M513.1,498.9L97.5,363.8c59.7-183.7,222.6-302,415.7-302V498.9z"/>
			</g>
		</g>
		<g>
			<g>
				<path class="st1" d="M513.1,498.9L97.5,634c-29.8-91.8-29.8-178.3,0-270.1L513.1,498.9z"/>
			</g>
		</g>
		<g>
			<g>
				<path class="st2" d="M513.1,498.9L256.2,852.5C178.1,795.7,127.3,725.8,97.5,634L513.1,498.9z"/>
			</g>
		</g>
		<g>
			<g>
				<path class="st3" d="M513.1,498.9L378.1,914.6c-45.9-14.9-82.8-33.7-121.8-62.1L513.1,498.9z"/>
			</g>
		</g>
		<g>
			<g>
				<path class="st4" d="M513.1,498.9l135.1,415.7c-91.8,29.8-178.3,29.8-270.1,0L513.1,498.9z"/>
			</g>
		</g>
		<g>
			<g>
				<path class="st5" d="M513.1,498.9l415.7-135.1c74.6,229.6-51,476.1-280.6,550.7l0,0L513.1,498.9z"/>
			</g>
		</g>
		<g>
			<g>
				<path class="st6" d="M513.1,498.9L648.2,83.2C785.9,128,884.1,226.1,928.8,363.8L513.1,498.9z"/>
			</g>
		</g>
		<g>
			<g>
				<path class="st7" d="M513.1,498.9V61.8c48.3,0,89.1,6.5,135.1,21.4L513.1,498.9z"/>
			</g>
		</g>
	</g>
	<g>
		<g>
		</g>
		<g>
		</g>
		<g>
		</g>
		<g>
		</g>
		<g>
		</g>
		<g>
		</g>
		<g>
		</g>
		<g>
		</g>
	</g>
</g>
<circle class="st8" cx="518" cy="489" r="281"/>
</svg>
