<svg width="34" height="35" viewBox="0 0 34 35" fill="none" xmlns="http://www.w3.org/2000/svg">
<path d="M17 13.4723C16.1825 13.4723 15.3834 13.7147 14.7036 14.1689C14.0239 14.6231 13.4941 15.2686 13.1813 16.0239C12.8685 16.7791 12.7866 17.6102 12.9461 18.412C13.1056 19.2138 13.4992 19.9503 14.0773 20.5283C14.6553 21.1064 15.3918 21.5001 16.1936 21.6595C16.9954 21.819 17.8265 21.7372 18.5818 21.4243C19.337 21.1115 19.9826 20.5817 20.4367 19.902C20.8909 19.2223 21.1333 18.4231 21.1333 17.6056C21.1333 17.0628 21.0264 16.5254 20.8187 16.0239C20.611 15.5224 20.3065 15.0667 19.9227 14.6829C19.5389 14.2991 19.0832 13.9946 18.5818 13.7869C18.0803 13.5792 17.5428 13.4723 17 13.4723ZM33.55 9.38897C33.5412 8.1019 33.3042 6.82658 32.85 5.6223C32.5155 4.74106 31.9979 3.94079 31.3314 3.27427C30.6648 2.60776 29.8646 2.09016 28.9833 1.75563C27.779 1.3014 26.5037 1.0644 25.2167 1.05563C23.0667 0.938965 22.4333 0.938965 17 0.938965C11.5667 0.938965 10.9333 0.938965 8.78333 1.05563C7.49626 1.0644 6.22095 1.3014 5.01666 1.75563C4.13543 2.09016 3.33515 2.60776 2.66864 3.27427C2.00212 3.94079 1.48452 4.74106 1.14999 5.6223C0.695768 6.82658 0.458763 8.1019 0.449995 9.38897C0.333328 11.539 0.333328 12.1723 0.333328 17.6056C0.333328 23.039 0.333328 23.6723 0.449995 25.8223C0.467935 27.1139 0.704619 28.3931 1.14999 29.6056C1.48304 30.4828 2.00021 31.2785 2.66666 31.939C3.33032 32.6095 4.13231 33.1271 5.01666 33.4556C6.22095 33.9099 7.49626 34.1469 8.78333 34.1556C10.9333 34.2723 11.5667 34.2723 17 34.2723C22.4333 34.2723 23.0667 34.2723 25.2167 34.1556C26.5037 34.1469 27.779 33.9099 28.9833 33.4556C29.8677 33.1271 30.6697 32.6095 31.3333 31.939C31.9998 31.2785 32.5169 30.4828 32.85 29.6056C33.3038 28.3954 33.5407 27.1147 33.55 25.8223C33.6667 23.6723 33.6667 23.039 33.6667 17.6056C33.6667 12.1723 33.6667 11.539 33.55 9.38897ZM29.3167 22.7223C29.2632 23.7508 29.0437 24.7639 28.6667 25.7223C28.3431 26.5218 27.8621 27.248 27.2522 27.8579C26.6424 28.4677 25.9161 28.9487 25.1167 29.2723C24.1492 29.6283 23.1304 29.8253 22.1 29.8556C20.7833 29.8556 20.4333 29.8556 17 29.8556C13.5667 29.8556 13.2167 29.8556 11.9 29.8556C10.8695 29.8253 9.85081 29.6283 8.88333 29.2723C8.05683 28.9652 7.31046 28.4752 6.7 27.839C6.09611 27.2411 5.62973 26.5187 5.33333 25.7223C4.97592 24.7558 4.78434 23.7359 4.76666 22.7056C4.76666 21.389 4.76666 21.039 4.76666 17.6056C4.76666 14.1723 4.76666 13.8223 4.76666 12.5056C4.78434 11.4753 4.97592 10.4554 5.33333 9.48897C5.64046 8.66247 6.13045 7.91609 6.76666 7.30563C7.36722 6.705 8.08877 6.23912 8.88333 5.93896C9.85081 5.58297 10.8695 5.38598 11.9 5.35563C13.2167 5.35563 13.5667 5.35563 17 5.35563C20.4333 5.35563 20.7833 5.35563 22.1 5.35563C23.1304 5.38598 24.1492 5.58297 25.1167 5.93896C25.9432 6.2461 26.6895 6.73609 27.3 7.3723C27.9039 7.97021 28.3703 8.69252 28.6667 9.48897C29.0227 10.4564 29.2196 11.4752 29.25 12.5056C29.25 13.8223 29.25 14.1723 29.25 17.6056C29.25 21.039 29.3667 21.389 29.3167 22.7056V22.7223ZM26.65 10.3223C26.4516 9.78394 26.1387 9.29504 25.733 8.88932C25.3273 8.48361 24.8384 8.17074 24.3 7.9723C23.5608 7.71607 22.7822 7.59195 22 7.60563C20.7 7.60563 20.3333 7.60563 17 7.60563C13.6667 7.60563 13.3 7.60563 12 7.60563C11.2138 7.61332 10.4351 7.76002 9.7 8.03897C9.16988 8.22839 8.68615 8.52849 8.28097 8.9193C7.87579 9.31011 7.55843 9.78269 7.35 10.3056C7.10796 11.0479 6.98971 11.825 7 12.6056C7 13.9056 7 14.2723 7 17.6056C7 20.939 7 21.3056 7 22.6056C7.01652 23.391 7.16294 24.1681 7.43333 24.9056C7.63177 25.444 7.94464 25.9329 8.35035 26.3386C8.75607 26.7443 9.24497 27.0572 9.78333 27.2556C10.4944 27.5172 11.2428 27.6634 12 27.689C13.3 27.689 13.6667 27.689 17 27.689C20.3333 27.689 20.7 27.689 22 27.689C22.7862 27.6813 23.5649 27.5346 24.3 27.2556C24.8384 27.0572 25.3273 26.7443 25.733 26.3386C26.1387 25.9329 26.4516 25.444 26.65 24.9056C26.9289 24.1705 27.0756 23.3919 27.0833 22.6056C27.0833 21.3056 27.0833 20.939 27.0833 17.6056C27.0833 14.2723 27.0833 13.9056 27.0833 12.6056C27.0838 11.8186 26.9368 11.0385 26.65 10.3056V10.3223ZM17 23.9723C16.1647 23.9723 15.3376 23.8075 14.5661 23.4873C13.7946 23.1672 13.0938 22.698 12.504 22.1065C11.9141 21.5151 11.4467 20.8131 11.1286 20.0408C10.8104 19.2684 10.6478 18.4409 10.65 17.6056C10.65 16.3457 11.0238 15.1141 11.7241 14.0668C12.4245 13.0194 13.4198 12.2034 14.5841 11.722C15.7484 11.2406 17.0294 11.1155 18.2649 11.3625C19.5003 11.6096 20.6347 12.2176 21.5245 13.1096C22.4142 14.0017 23.0192 15.1377 23.263 16.3738C23.5068 17.6099 23.3783 18.8906 22.8939 20.0536C22.4095 21.2167 21.5908 22.2099 20.5417 22.9074C19.4925 23.605 18.2599 23.9756 17 23.9723ZM23.6667 12.489C23.2982 12.45 22.9573 12.276 22.7095 12.0006C22.4617 11.7252 22.3246 11.3678 22.3246 10.9973C22.3246 10.6268 22.4617 10.2694 22.7095 9.99401C22.9573 9.7186 23.2982 9.54463 23.6667 9.50563C24.0351 9.54463 24.3761 9.7186 24.6239 9.99401C24.8717 10.2694 25.0088 10.6268 25.0088 10.9973C25.0088 11.3678 24.8717 11.7252 24.6239 12.0006C24.3761 12.276 24.0351 12.45 23.6667 12.489Z" fill="#7D7E81"/>
</svg>
