<svg width="38" height="27" viewBox="0 0 38 27" fill="none" xmlns="http://www.w3.org/2000/svg">
<path d="M37.3333 9.78878C37.4157 7.4032 36.894 5.03547 35.8167 2.90544C35.0857 2.03144 34.0712 1.44163 32.95 1.23878C28.3125 0.817984 23.6559 0.645516 19 0.722109C14.3611 0.642039 9.72118 0.808942 5.1 1.22211C4.18636 1.3883 3.34086 1.81685 2.66666 2.45544C1.16666 3.83878 0.999996 6.20544 0.83333 8.20544C0.591517 11.8014 0.591517 15.4095 0.83333 19.0054C0.881547 20.1311 1.04915 21.2485 1.33333 22.3388C1.53429 23.1805 1.94087 23.9594 2.51666 24.6054C3.19544 25.2779 4.06064 25.7308 5 25.9054C8.59319 26.349 12.2137 26.5328 15.8333 26.4554C21.6667 26.5388 26.7833 26.4554 32.8333 25.9888C33.7958 25.8249 34.6853 25.3713 35.3833 24.6888C35.8499 24.222 36.1985 23.6506 36.4 23.0221C36.996 21.1931 37.2888 19.279 37.2667 17.3554C37.3333 16.4221 37.3333 10.7888 37.3333 9.78878ZM15.2333 18.3554V8.03877L25.1 13.2221C22.3333 14.7554 18.6833 16.4888 15.2333 18.3554Z" fill="#7D7E81"/>
</svg>
