<svg width="77" height="88" viewBox="0 0 77 88" fill="none" xmlns="http://www.w3.org/2000/svg">
<path d="M73.8838 75.1177C72.9426 74.8742 72.639 74.2349 72.6693 73.2607C72.6997 71.221 72.6997 69.1509 72.6086 67.1113C72.305 60.6879 71.3334 54.3863 69.1171 48.3586C65.4434 38.343 58.9157 30.8237 49.4127 25.9529C46.5891 24.5221 43.7351 23.3957 40.4561 23.6392C38.0576 23.8219 35.6287 23.6392 33.2302 23.6697C32.6533 23.6697 32.0157 23.7305 31.4996 23.9741C28.2509 25.5875 24.8505 26.9575 21.8447 28.9362C11.4612 35.7858 6.99811 46.2276 5.23716 58.0394C4.5085 62.9406 4.53889 67.9637 4.35672 72.9258C4.296 74.174 3.90129 74.8133 2.74756 75.2699C0.865172 75.9701 -0.136746 77.7966 0.0150596 79.8667C0.166865 82.0891 1.3206 83.7025 3.44589 84.0374C5.75333 84.4027 8.15185 84.3418 10.4897 84.6158C12.3417 84.7984 14.1634 85.1638 15.985 85.4986C17.412 85.7726 18.7783 86.2901 20.2052 86.5337C26.2167 87.5383 32.2283 88.3907 38.3612 87.8123C41.4581 87.8123 44.5549 87.9949 47.6214 87.7514C50.6879 87.5383 53.8454 87.2643 56.7904 86.4423C61.9215 84.9811 67.1132 84.4027 72.3657 84.2505C72.5479 84.2505 72.73 84.2505 72.9122 84.1896C73.7016 83.8547 74.6124 83.6721 75.25 83.1545C78.4076 80.5974 76.8895 75.9092 73.8838 75.1177ZM37.0253 50.0025C38.6041 50.8245 40.1829 51.616 41.7313 52.4379C43.9173 53.5948 45.7086 55.0864 46.4373 57.6132C47.4392 61.0836 46.164 64.615 43.0976 66.5024C42.3385 66.9591 41.9134 67.4462 41.8224 68.3899C41.6706 70.0642 40.5776 71.0384 39.0899 71.0688C37.6629 71.0688 36.6914 70.3382 36.3877 68.6943C36.1752 67.6593 35.7502 67.1113 34.7179 66.6546C32.6533 65.7718 31.196 64.1583 30.2244 62.0882C29.4957 60.5357 29.9208 59.2266 31.4085 58.4047C32.7444 57.6436 34.1107 58.0089 35.0215 59.4702C35.7805 60.7183 36.6306 61.7838 38.179 62.0274C39.6364 62.2405 40.5472 61.8447 40.9723 60.7183C41.3973 59.5615 41.0026 58.4351 39.7578 57.7654C38.088 56.8521 36.3877 55.9997 34.7179 55.0864C31.8336 53.5643 30.1941 51.2507 30.2244 47.8715C30.2548 44.4315 31.9246 42.057 34.9911 40.7175C35.8109 40.3522 36.1752 39.926 36.327 39.0736C36.6003 37.4602 37.8754 36.3947 39.181 36.4556C40.6079 36.5164 41.8224 37.8559 41.8528 39.5607C41.8831 40.5349 42.3081 41.0524 43.0368 41.6613C44.2816 42.6963 45.4657 43.8836 46.3158 45.1926C47.4696 46.9583 47.0142 48.5717 45.4961 49.4241C44.0691 50.2156 42.5207 49.6068 41.5491 47.8715C40.7901 46.5016 39.6971 45.8014 38.1183 45.8319C37.1164 45.8623 36.1448 45.9841 35.8412 47.1409C35.5376 48.2977 35.8109 49.3632 37.0253 50.0025Z" fill="#D62CDF"/>
<path d="M48.1982 11.2187C47.4088 13.1975 46.2855 15.0545 45.3747 16.9723C44.9496 17.8552 44.3424 18.0987 43.4315 18.0683C42.0349 18.0378 40.6383 18.0378 39.2417 18.0378C38.6952 18.0378 38.1183 18.0378 37.5718 18.0378C37.2986 18.0378 37.0253 18.0378 36.7521 18.0378C36.2056 18.0378 35.6591 18.0378 35.0822 18.0683C33.9589 18.0683 32.8355 18.0683 31.7121 18.0074C31.0442 17.977 30.1941 17.5508 29.8297 17.0332C27.8562 14.0194 26.2168 10.762 25.6096 7.16982C25.3363 5.61725 25.4881 3.85157 25.9739 2.39033C26.7936 0.0158035 29.2832 -0.623491 31.8032 0.624656C32.9266 1.17262 33.9892 1.93369 34.9608 2.7252C36.995 4.33866 38.0576 4.24733 40.1525 2.7252C41.6402 1.65971 43.3101 0.776869 45.0407 0.168017C46.9534 -0.471278 48.7447 0.837755 49.2609 2.81653C50.0502 5.76946 49.2609 8.53974 48.1982 11.2187Z" fill="#D62CDF"/>
</svg>
