<svg width="83" height="83" viewBox="0 0 83 83" fill="none" xmlns="http://www.w3.org/2000/svg">
<path d="M83 31.0149C83 33.0745 81.5449 34.5889 79.4533 34.5889C71.42 34.5889 63.4171 34.5889 55.3839 34.5889C53.8075 34.5889 52.7162 33.8014 52.1099 32.4081C51.534 31.1058 51.8674 29.7125 52.9587 28.6221C55.2929 26.29 57.6574 23.9275 59.9916 21.5953C60.0825 21.5045 60.1735 21.3833 60.3251 21.2319C59.6581 20.6564 59.0216 20.1112 58.3243 19.566C54.141 16.2949 49.3817 14.4171 44.0767 13.9628C36.4375 13.3267 29.6169 15.3863 23.7056 20.293C20.6742 22.8069 18.2491 25.8054 16.7031 29.5005C16.1574 30.8029 15.5814 32.1053 15.0055 33.4076C14.672 34.1951 14.1264 34.5889 13.2473 34.5889C9.76113 34.5889 6.27501 34.5889 2.78888 34.5889C1.48538 34.5889 0.666897 33.5894 0.970038 32.287C3.06171 23.8064 7.15412 16.507 13.6717 10.6008C17.7034 6.96624 22.2202 4.14945 27.3433 2.33217C30.7082 1.15094 34.1943 0.424032 37.7411 0.15144C38.3776 0.090864 39.0446 0.030288 39.6812 0H43.0763C43.9858 0.090864 44.8649 0.15144 45.7743 0.242304C49.6545 0.636047 53.4134 1.60526 57.0208 3.08937C61.7801 5.0278 66.0544 7.72344 69.8437 11.2368C69.9043 11.2974 69.9953 11.358 70.1468 11.5094C71.0866 10.5402 72.0263 9.54072 72.966 8.60179C74.3605 7.20854 75.7549 5.78501 77.1797 4.42205C79.0592 2.63505 82.0906 3.48312 82.8181 5.93644C82.9091 6.26961 82.9697 6.66336 82.9697 7.02681C83 15.0531 83 23.0189 83 31.0149Z" fill="#D62CDF"/>
<path d="M81.5753 50.6417C80.2718 56.0632 78.1498 61.1516 74.8758 65.6948C69.2677 73.4788 61.9317 78.9004 52.6253 81.5051C47.775 82.8681 42.8338 83.2618 37.832 82.8378C28.4043 81.9897 20.2498 78.2946 13.2776 71.9644C13.1563 71.8433 13.0048 71.7221 12.8532 71.5707C12.7319 71.6918 12.6107 71.7827 12.5197 71.8736C10.3068 74.0846 8.12419 76.2956 5.91126 78.4763C4.12273 80.233 1.33382 79.7181 0.303141 77.4768C0.181885 77.2042 0.0909423 76.9316 0 76.6591V51.3383C0.212199 50.5205 0.575979 49.8239 1.24289 49.2787C1.84917 48.7638 2.51607 48.4609 3.33455 48.4609C3.48612 48.4609 3.6377 48.4609 3.78927 48.4609C11.6406 48.4609 19.5223 48.4609 27.3736 48.4609C28.3437 48.4609 29.1925 48.673 29.92 49.309C31.466 50.672 31.557 52.883 30.0716 54.3671C28.2224 56.2449 26.3127 58.1228 24.4332 60.0007C23.8572 60.5761 23.2812 61.1516 22.675 61.7271C24.13 63.09 25.6457 64.241 27.313 65.2405C32.2845 68.2087 37.6501 69.602 43.4098 69.1173C52.8072 68.3299 60.0522 63.9078 65.0238 55.9118C66.0848 54.2157 66.7213 52.3075 67.5398 50.4599C67.6914 50.1268 67.8127 49.7936 67.9642 49.4604C68.237 48.8244 68.7221 48.4609 69.4496 48.4609C72.9357 48.4609 76.4219 48.4609 79.908 48.4609C81.1206 48.4609 81.8481 49.4907 81.5753 50.6417Z" fill="#D62CDF"/>
</svg>
