<svg width="189" height="38" viewBox="0 0 189 38" fill="none" xmlns="http://www.w3.org/2000/svg">
<path d="M37.6131 16.5026C36.8369 9.24686 31.471 2.86854 24.4177 0.776174C23.2703 0.438696 22.0554 0.269982 20.908 0H16.9932C15.8458 0.30373 14.6309 0.438696 13.4834 0.776174C6.39641 2.86854 1.09801 9.17936 0.288063 16.5026C0.288063 16.6039 0.220566 16.7051 0.186818 16.8064C0.186818 16.5026 0.186818 16.1651 0.186818 15.8277C0.15307 16.1314 0.119324 16.4014 0.119324 16.6714C0.119324 16.7726 0.119324 16.8739 0.119324 16.9751V20.5186C0.119324 20.6199 0.119326 20.6874 0.153074 20.7886C0.186821 20.9911 0.18682 21.1936 0.220568 21.4298C0.220568 21.1936 0.220568 20.9236 0.220568 20.7211C0.524298 22.3072 0.79428 23.9271 1.40174 25.4458C3.35911 30.4067 6.76764 33.984 11.7286 36.0763C13.5847 36.8525 15.5421 37.2575 17.5669 37.4262V37.46C17.5669 37.4938 17.5669 37.5275 17.5669 37.5613H20.4017C20.4017 37.5275 20.4017 37.46 20.4017 37.46C20.7392 37.4263 21.1104 37.3587 21.4817 37.325C23.6415 36.9875 25.7676 36.4813 27.6575 35.4689C34.0358 32.0603 37.7818 25.817 37.7818 18.73C37.7481 18.0213 37.7143 17.2788 37.6131 16.5026ZM14.1247 14.579C14.1247 13.2629 15.1708 12.1829 16.487 12.1829C17.8032 12.1829 18.8493 13.2291 18.8831 14.5115C18.9168 15.8277 17.8369 16.9076 16.5207 16.9076C15.1708 16.9076 14.1584 15.8952 14.1247 14.579ZM6.76763 17.9538C6.5989 20.7211 6.39641 23.5222 5.58646 26.2558C5.35023 27.032 5.11399 27.7744 4.67527 28.5506C3.83158 27.4369 3.22412 26.2557 2.75165 25.007C-1.16309 14.6802 5.21524 3.47602 16.082 1.68739C21.4817 0.776199 26.3751 2.15983 30.4923 5.83834C34.8458 9.75308 36.7019 14.6803 36.2295 20.4849C35.622 27.8081 29.8849 34.2202 22.5953 35.7389C22.0554 35.8401 21.9879 35.6376 21.9879 35.2326C21.8529 32.8365 22.6966 30.7442 23.9115 28.7531C25.3289 26.357 27.2188 24.3659 29.2099 22.4085C30.0536 21.5985 30.9985 20.8224 31.6398 19.8437C31.0323 20.1474 30.5261 20.6536 29.8511 20.9236C27.59 22.1048 25.2614 22.9485 22.6966 22.9147C21.4817 22.9147 20.368 22.5435 19.4568 21.6661C20.1655 21.936 20.908 22.1723 21.6842 22.2735C24.3502 22.5435 26.8476 21.9361 29.2437 20.9236C29.3786 20.8561 29.5474 20.8224 29.6824 20.7549C30.4248 20.4174 31.066 19.8437 31.876 19.5737C32.2135 19.1687 32.4497 18.73 32.6522 18.2575C33.3271 16.6039 32.8547 15.1865 31.2348 14.1065C30.1886 13.3978 29.0074 12.9591 27.7925 12.6216C26.6113 12.3179 25.4977 11.8117 24.3165 11.4067C24.0802 11.3055 23.979 11.1368 23.8103 10.968C23.4728 10.2256 22.8991 9.71935 22.0891 9.48312C21.1779 9.17939 20.233 9.24688 19.3218 9.48312C18.8156 9.58436 18.3431 9.41561 17.8707 9.34812C15.7783 8.94314 13.8547 9.55061 11.931 10.3268C8.48877 11.7442 6.97012 14.3428 6.76763 17.9538ZM27.7925 17.8525C27.7925 17.4138 28.0962 17.1438 28.5012 17.1438C28.9062 17.1438 29.1762 17.4138 29.2099 17.8525C29.1424 18.2575 28.9399 18.5613 28.5012 18.5613C28.0625 18.5613 27.7925 18.325 27.7925 17.8525Z" fill="#B0B0BD"/>
<path d="M188.398 21.1251C187.487 17.0079 183.808 14.8817 179.286 15.8267C175.945 16.5354 173.819 19.4377 173.785 23.0487C173.785 23.285 173.785 23.5549 173.819 23.7574C174.022 26.2885 174.764 28.5158 177.093 29.9332C181.547 32.7006 186.947 30.5744 188.398 25.5122C188.432 25.411 188.499 25.3435 188.567 25.276V21.2938C188.499 21.2938 188.398 21.2263 188.398 21.1251ZM184.551 26.5922C183.741 27.9084 182.56 28.5833 180.974 28.5159C179.387 28.4146 178.341 27.5034 177.7 26.1197C176.924 24.3986 176.924 22.61 177.599 20.8213C178.24 19.1677 179.657 18.2228 181.311 18.2565C182.897 18.2903 184.213 19.2352 184.888 20.8551C185.226 21.665 185.327 22.5425 185.361 23.3862C185.327 24.5336 185.125 25.6136 184.551 26.5922Z" fill="#B0B0BD"/>
<path d="M123.771 20.0123C121.746 20.046 119.722 20.0123 117.697 20.0123C115.908 19.9785 115.908 19.9785 115.908 21.8684C115.908 22.5434 116.111 22.7796 116.785 22.7459C118.034 22.6784 119.283 22.7459 120.531 22.7121C121.24 22.6784 121.341 22.9483 121.24 23.5895C120.936 25.7832 119.89 27.4368 117.663 28.0105C115.267 28.6517 112.972 28.3143 111.318 26.2557C108.99 23.3871 109.023 17.6162 111.42 14.8151C113.816 12.0141 119.047 12.3853 120.363 15.6251C120.869 16.9075 121.51 17.11 122.658 16.975C122.995 16.9412 123.366 16.9412 123.704 16.975C124.244 17.0087 124.379 16.7725 124.277 16.2663C124.075 15.3214 123.771 14.4102 123.198 13.5665C120.464 9.44924 113.478 8.6393 109.563 12.1828C106.324 15.0851 105.581 18.8311 106.256 22.9146C106.762 25.9856 108.281 28.4493 111.082 30.0354C114.693 31.9928 118.135 31.5203 121.814 28.5168C121.915 28.8205 121.983 29.0229 122.016 29.2254C122.354 30.8116 122.354 30.7778 123.94 30.7441C124.48 30.7103 124.649 30.5416 124.649 30.0354C124.649 26.9981 124.649 23.9608 124.682 20.9235C124.615 20.2148 124.379 20.0123 123.771 20.0123Z" fill="#B0B0BD"/>
<path d="M62.2145 22.9486C62.012 22.9486 61.8095 22.9824 61.5732 22.9486C60.662 22.7799 60.3921 23.2186 60.2571 24.0623C59.7846 26.2559 58.5359 27.7746 56.2411 28.1795C54.0812 28.5845 51.8876 27.6396 50.639 25.7497C48.7153 22.8474 48.8166 17.9539 50.8414 15.1529C53.0013 12.1493 58.0297 12.0481 59.5821 15.2541C60.3921 16.9078 61.337 17.1777 62.8557 16.9753C62.9569 16.9415 63.0581 16.9415 63.1594 16.9753C63.9693 17.0765 64.0368 16.7053 63.8681 16.0641C63.5981 14.8829 63.1594 13.803 62.3494 12.9255C60.5271 10.8332 58.131 10.0907 55.7349 10.0232C52.6301 9.98948 50.099 11.0694 48.4116 12.9255C44.8006 16.9415 44.6994 23.961 48.2091 28.0445C50.7065 30.9131 53.9462 31.723 57.5235 30.9468C60.8308 30.2381 62.8557 28.0783 63.6994 24.8385C64.1381 22.9486 64.1381 22.9486 62.2145 22.9486Z" fill="#B0B0BD"/>
<path d="M172.031 15.8936C171.997 15.9612 171.929 15.995 171.896 16.0288C171.997 16.0288 172.132 16.0288 172.234 16.0288C172.166 16.0288 172.132 15.9612 172.031 15.8936Z" fill="#B0B0BD"/>
<path d="M167.407 22.2061C167.002 21.6324 167.103 21.3287 167.542 20.8225C169.026 19.2701 170.444 17.684 171.895 16.0641C171.456 16.0978 171.018 16.0978 170.579 16.0303C169.06 15.8278 167.913 16.3003 166.968 17.549C166.327 18.4264 165.483 19.1013 164.673 19.8438C164.032 20.4513 163.559 21.2275 162.648 21.7674V12.7568C162.648 10.4282 162.648 10.4619 160.353 10.4619C159.645 10.4619 159.408 10.5969 159.408 11.3731C159.442 17.549 159.442 23.7248 159.408 29.9006C159.408 30.5081 159.51 30.7443 160.218 30.7443C162.716 30.7443 162.749 30.7781 162.682 28.3145C162.614 26.4584 162.648 24.7373 164.707 23.7923C165.618 25.2097 166.732 26.6609 167.44 28.247C168.385 30.3394 169.836 31.1155 172.03 30.7443C172.3 30.7106 172.671 30.8456 172.806 30.6093C172.975 30.3056 172.638 30.1031 172.503 29.9006C170.815 27.302 169.128 24.7372 167.407 22.2061Z" fill="#B0B0BD"/>
<path d="M140.611 19.8436C139.43 17.3125 137.506 15.7602 134.638 15.6927C131.87 15.5914 129.677 16.7388 128.327 19.1687C126.808 21.9022 126.808 24.7708 128.158 27.5719C129.272 29.9005 131.33 30.9804 133.895 31.0816C136.527 31.1829 138.789 30.4405 140.24 28.1119C140.577 27.5382 141.117 26.8632 140.881 26.3232C140.678 25.817 139.801 26.222 139.227 26.1207C139.059 26.087 138.89 26.1208 138.721 26.087C138.215 26.0533 137.911 26.1882 137.641 26.6944C136.797 28.2131 135.245 28.8205 133.456 28.4156C131.87 28.0781 130.689 26.6607 130.554 25.007C130.52 24.4671 130.655 24.2984 131.195 24.2984C132.748 24.3321 134.334 24.3321 135.92 24.3321C136.831 24.3321 137.709 24.3321 138.62 24.3321C141.522 24.3321 141.758 23.9946 141.016 21.0585C140.915 20.6198 140.813 20.2149 140.611 19.8436ZM137.337 22.071C136.291 22.071 135.245 22.071 134.199 22.071C133.186 22.071 132.174 22.0372 131.162 22.071C130.757 22.071 130.52 22.0035 130.588 21.4973C130.723 19.7761 132.511 18.2238 134.368 18.2575C136.089 18.2912 137.742 19.8436 137.877 21.5648C137.945 22.0372 137.675 22.071 137.337 22.071Z" fill="#B0B0BD"/>
<path d="M75.1414 15.761C71.5304 15.0861 68.2231 16.4698 66.8732 19.4058C65.6583 22.0381 65.692 24.7379 66.9069 27.3702C67.4132 28.4839 68.2231 29.3614 69.2355 29.9689C71.9016 31.4875 74.6352 31.5213 77.335 30.1038C80.0011 28.6864 80.7773 26.1553 80.811 23.3205C80.811 22.983 80.8448 22.6119 80.811 22.2744C80.5073 18.9334 78.2462 16.3685 75.1414 15.761ZM76.8963 26.2229C76.1538 27.674 75.0064 28.5177 73.319 28.4839C71.5979 28.4502 70.5179 27.5728 69.843 26.0879C69.033 24.2993 69.033 22.4094 69.8767 20.6207C70.5179 19.1696 71.6654 18.3259 73.2853 18.2584C74.9727 18.2246 76.1538 19.0346 76.8963 20.4857C77.4025 21.4307 77.5037 22.4768 77.5375 23.253C77.47 24.468 77.335 25.3792 76.8963 26.2229Z" fill="#B0B0BD"/>
<path d="M103.151 20.1803C103.117 17.8179 101.699 16.1643 99.4384 15.7593C97.0423 15.3544 94.9837 15.8606 93.3975 18.0542C93.195 15.9618 93.195 15.9618 91.3052 15.9618C91.2714 15.9618 91.2377 15.9618 91.2039 15.9618C90.4952 15.8606 90.259 16.1643 90.259 16.873C90.2927 20.754 90.259 24.6013 90.259 28.4485C90.259 30.6084 90.2927 30.5409 92.5201 30.6084C93.3638 30.6421 93.5663 30.3721 93.5663 29.5621C93.4988 27.0311 93.5325 24.4663 93.5325 21.9352C93.5663 19.6741 95.0512 18.0879 97.1098 18.1217C99.0334 18.1554 99.8096 19.2353 99.8096 21.7327C99.8096 23.825 99.8096 25.9849 99.8096 28.0773C99.8096 30.6084 99.8096 30.6084 102.374 30.5409C102.982 30.5071 103.117 30.3383 103.117 29.7309C103.151 26.6598 103.184 23.4201 103.151 20.1803Z" fill="#B0B0BD"/>
<path d="M153.065 19.8087C153.537 20.8549 154.044 21.1586 154.887 20.9561C155.292 20.9561 155.562 20.9224 155.798 20.9561C156.71 21.0574 156.912 20.7199 156.642 19.9099C156.338 18.965 155.933 18.1213 155.191 17.4126C152.997 15.1178 146.855 14.6115 144.324 18.4588C142.839 20.6861 142.603 23.1497 143.143 25.6808C143.784 28.9881 146.349 31.0467 149.758 31.1142C153.436 31.2154 155.663 29.5618 156.608 26.2208C156.878 25.2758 156.642 25.0396 155.731 25.1409C155.292 25.1746 154.82 25.1746 154.381 25.1409C153.74 25.0734 153.504 25.2421 153.335 25.9508C152.997 27.3344 152.086 28.2456 150.601 28.4819C149.083 28.6843 147.767 28.1444 147.092 26.7608C145.877 24.4659 145.843 22.036 147.227 19.8087C148.475 17.7163 152.12 17.6826 153.065 19.8087Z" fill="#B0B0BD"/>
<path d="M86.8182 23.3875C86.8182 21.7001 86.8182 20.0464 86.8182 18.359C86.8182 15.9629 86.8182 16.0305 84.4221 16.0305C83.6797 16.0305 83.5109 16.3004 83.5109 17.0091C83.5447 20.7551 83.5447 24.5349 83.5447 28.3146C83.5447 30.7107 83.5447 30.677 85.9408 30.7107C86.7845 30.7445 86.8857 30.407 86.8857 29.6645C86.8182 27.5722 86.8182 25.4799 86.8182 23.3875Z" fill="#B0B0BD"/>
<path d="M85.7039 10.4297C83.4428 10.5309 83.4766 10.4635 83.5103 12.6908C83.5103 13.2983 83.6791 13.602 84.3203 13.5345C84.5903 13.5008 84.8602 13.5345 85.164 13.5345C86.8851 13.5345 86.8851 13.5345 86.8851 11.8471C86.8851 11.7796 86.8851 11.7121 86.8851 11.6446C86.9863 10.7672 86.6826 10.4297 85.7039 10.4297Z" fill="#B0B0BD"/>
</svg>
