<svg width="219" height="38" viewBox="0 0 219 38" fill="none" xmlns="http://www.w3.org/2000/svg">
<path d="M36.3831 13.5544C33.6669 3.90573 23.8155 -1.85102 14.0858 0.54087C4.72091 2.89222 -1.36017 12.2571 0.261448 21.9058C2.00469 32.2031 11.7344 39.2976 22.2344 37.1895C25.6398 36.5003 28.5993 34.9192 31.1128 32.6084C31.6398 32.1219 31.802 31.5139 31.6398 30.8247C31.4371 30.176 31.0317 29.7706 30.3831 29.649C29.6939 29.4868 29.1669 29.7706 28.6398 30.2571C23.8966 34.5544 17.1263 35.4057 11.4912 32.4057C9.86956 31.5544 8.49118 30.4598 7.27497 29.0814C9.86956 24.9058 12.4642 20.7706 15.0588 16.6355C15.1804 16.8382 15.1804 17.0003 15.1804 17.122C15.1804 18.8247 15.1398 20.4868 15.2209 22.1895C15.2615 22.9598 15.3425 23.8112 15.5858 24.5409C16.1939 26.4058 18.0993 26.9328 19.5588 25.6355C20.0858 25.149 20.5723 24.5409 20.9777 23.9328C21.7074 22.8382 22.3561 21.703 23.0858 20.5679C23.9371 19.2301 24.7885 17.8517 25.5993 16.4733C25.6398 16.4733 25.6804 16.5139 25.7209 16.5139C25.7209 17.203 25.6804 17.8517 25.7209 18.5409C25.7615 19.676 25.7615 20.8517 26.0047 21.9463C26.6939 25.149 29.5723 26.8922 32.5723 26.0814C35.0047 25.4328 36.8696 23.0409 37.0723 20.2841C37.2344 17.9733 36.9507 15.7436 36.3831 13.5544ZM33.6669 19.8382C33.5858 20.7706 33.2209 21.6625 32.4507 22.2706C31.2344 23.203 29.8155 22.7977 29.329 21.3382C29.1669 20.8517 29.1263 20.3247 29.1263 19.7976C29.0858 18.0949 29.0858 16.4733 29.0047 14.7706C28.9642 14.2436 28.7615 13.6355 28.5182 13.149C27.829 11.8111 26.329 11.4057 25.0317 12.1355C24.1804 12.5814 23.5723 13.3112 23.0452 14.0814C21.7074 16.1895 20.4101 18.2976 19.0723 20.4057C18.9506 20.6084 18.7885 20.8517 18.5452 21.0138V20.5274C18.5452 18.2571 18.5858 16.0273 18.5452 13.7571C18.5452 13.149 18.4236 12.5409 18.302 11.9328C18.0993 11.0814 17.6128 10.5138 16.7209 10.2706C15.829 10.0679 15.0588 10.3922 14.4506 11.0814C14.1669 11.4463 13.8831 11.8112 13.6398 12.176C10.8831 16.5544 8.12632 20.9733 5.36956 25.3922C5.28848 25.5139 5.2074 25.6355 5.04523 25.8382C4.68037 24.9868 4.35604 24.176 4.1128 23.4057C1.27496 14.8112 6.38307 5.73005 15.1804 3.62194C21.7074 2.04086 28.802 5.36521 31.9236 11.4463C33.2615 14.203 33.8696 16.9598 33.6669 19.8382Z" fill="#B0B0BD"/>
<path d="M116.045 26.5693C116.004 27.2584 115.68 27.7854 115.031 28.0692C114.423 28.3125 113.775 28.1908 113.288 27.7449C112.883 27.38 112.721 26.9341 112.721 26.4071C112.721 24.0963 112.721 21.826 112.721 19.5152V18.9476C111.586 20.1638 110.531 21.2989 109.477 22.4341C109.275 22.6368 109.113 22.8395 108.95 23.0422C108.261 23.7719 107.734 23.8125 107.045 23.0827C105.91 21.826 104.775 20.6098 103.599 19.353C103.518 19.2719 103.437 19.1503 103.234 18.9881V19.5962C103.234 21.8665 103.234 24.1368 103.234 26.3665C103.234 27.3801 102.545 28.1503 101.613 28.1909C100.64 28.2314 99.8693 27.4611 99.8693 26.4071C99.8693 24.0557 99.8693 21.7044 99.8693 19.3935C99.8693 16.9206 99.8693 14.4882 99.8693 12.0152C99.8693 11.6503 99.8287 11.326 100.234 11.1638C100.64 11.0017 100.923 11.2449 101.167 11.4881C102.261 12.7043 103.356 13.9611 104.491 15.1773C105.423 16.2314 106.396 17.326 107.329 18.38C107.856 18.9881 108.058 18.9881 108.586 18.38C110.531 16.1908 112.437 14.0827 114.383 11.8935C114.545 11.6908 114.707 11.4476 114.91 11.3665C115.153 11.2449 115.477 11.1638 115.721 11.2044C116.045 11.2449 116.086 11.6098 116.086 11.8935C116.086 15.9071 116.086 19.9206 116.086 23.9341C116.086 24.826 116.126 25.6774 116.045 26.5693Z" fill="#B0B0BD"/>
<path d="M218.37 19.3935C217.438 17.1638 215.37 15.907 212.978 15.9881C211.64 16.0286 210.384 16.5151 209.411 17.5286C209.37 17.407 209.37 17.3259 209.329 17.2449C209.086 16.4341 208.559 16.0692 207.87 16.1502C207.181 16.2719 206.775 16.7989 206.775 17.6097C206.775 22.2313 206.775 26.853 206.775 31.4746C206.775 32.4881 207.505 33.2584 208.478 33.2989C209.411 33.2989 210.181 32.5286 210.181 31.5151C210.181 30.9881 210.181 30.4205 210.181 29.8935V27.38C210.384 27.5016 210.505 27.5827 210.627 27.6232C213.627 29.0827 216.708 28.2313 218.248 25.2719C219.14 23.3665 219.221 21.38 218.37 19.3935ZM214.802 24.3395C213.87 25.5151 212.289 25.6367 211.194 24.6638C209.938 23.5692 209.735 21.4205 210.789 20.1232C211.478 19.2719 212.654 18.907 213.627 19.2313C214.64 19.5556 215.411 20.5286 215.532 21.7449C215.532 21.8665 215.573 22.0286 215.573 22.1908C215.532 22.9611 215.329 23.6908 214.802 24.3395Z" fill="#B0B0BD"/>
<path d="M190.032 26.0404C187.437 28.189 184.559 28.9593 181.356 27.8242C178.194 26.689 176.369 24.3377 175.721 21.0539C175.64 20.6079 175.599 20.1215 175.599 19.7971C175.64 14.5674 179.734 10.635 184.68 10.9187C186.261 10.9998 187.721 11.4863 189.018 12.3377C189.626 12.7836 189.95 13.3512 189.829 14.1214C189.626 15.1755 188.41 15.7025 187.477 15.135C186.302 14.3647 184.964 13.9593 183.545 14.1214C181.761 14.3242 180.464 15.2566 179.653 16.8377C178.68 18.7836 178.64 20.7296 179.653 22.635C181.194 25.5539 184.802 26.2431 187.518 24.2566C187.721 24.135 187.883 23.9728 188.045 23.8107C188.694 23.2836 189.626 23.3647 190.153 23.9728C190.68 24.5404 190.64 25.5134 190.032 26.0404Z" fill="#B0B0BD"/>
<path d="M63.9102 26.0015C60.5048 29.0015 55.8832 29.042 52.64 26.3663C50.3697 24.5015 49.3967 22.069 49.4372 19.1096C49.8021 15.5015 51.5859 12.8258 55.0724 11.4069C57.7481 10.3934 60.3832 10.7177 62.8156 12.2582C63.5048 12.7042 63.8292 13.3528 63.667 14.042C63.5454 14.6501 63.0183 15.2177 62.3291 15.2582C61.9643 15.2988 61.5589 15.1771 61.2346 14.9744C59.4508 13.9204 57.667 13.5555 55.721 14.4879C53.7345 15.4204 52.5183 17.7717 52.7616 20.042C52.9643 22.069 53.7751 23.7312 55.6399 24.6636C57.7886 25.7177 59.7751 25.3123 61.64 23.8933C61.9237 23.6501 62.3292 23.4474 62.694 23.3663C63.3021 23.2447 63.9102 23.6096 64.194 24.1771C64.5183 24.8663 64.4373 25.5961 63.9102 26.0015Z" fill="#B0B0BD"/>
<path d="M130.275 17.4064C130.235 16.7172 129.667 16.1497 128.978 16.1497C128.289 16.1497 127.802 16.6362 127.721 17.3254C127.681 17.447 127.681 17.5686 127.64 17.7713C127.478 17.6091 127.397 17.5686 127.316 17.4875C125.248 15.501 122.086 15.4605 119.978 17.4875C117.992 19.3929 117.505 22.6362 118.843 25.2713C119.856 27.2983 121.519 28.4334 123.829 28.3524C125.248 28.3118 126.586 27.8659 127.64 26.6092C127.681 26.8524 127.681 27.0145 127.721 27.1362C127.802 27.6226 128.208 28.0686 128.694 28.1497C129.221 28.2713 129.708 28.1091 129.992 27.6632C130.154 27.3794 130.275 27.0145 130.275 26.6497C130.316 23.6497 130.275 20.6902 130.275 17.6902C130.275 17.6091 130.275 17.4875 130.275 17.4064ZM126.262 24.1767C125.086 25.7983 122.856 25.6362 121.924 23.8524C121.64 23.3253 121.559 22.7578 121.397 22.1497C121.519 21.1362 121.762 20.2443 122.573 19.6361C123.911 18.6226 125.856 19.1091 126.586 20.6497C127.154 21.8659 127.032 23.1227 126.262 24.1767Z" fill="#B0B0BD"/>
<path d="M203.695 17.608C203.695 17.4863 203.695 17.3648 203.654 17.2431C203.532 16.635 203.046 16.1485 202.397 16.1485C201.789 16.1485 201.262 16.5944 201.141 17.2026C201.1 17.4053 201.1 17.5675 201.019 17.8918C200.857 17.6891 200.816 17.5675 200.735 17.4864C198.627 15.4593 195.424 15.4999 193.357 17.5674C191.127 19.7566 190.924 23.608 192.87 26.2026C194.897 28.8783 198.749 29.1215 201.1 26.608C201.141 26.8512 201.141 27.0134 201.222 27.1756C201.343 27.7026 201.749 28.0674 202.235 28.1485C202.762 28.2296 203.249 28.0675 203.492 27.6215C203.654 27.3377 203.735 27.0134 203.735 26.7296C203.695 23.689 203.695 20.6485 203.695 17.608ZM199.397 24.4999C198.181 25.7161 196.397 25.5134 195.465 24.135C194.857 23.2431 194.695 22.2296 195.019 21.2161C195.384 19.9188 196.438 19.0675 197.614 19.108C198.951 19.1891 200.046 20.162 200.289 21.5404C200.33 21.7431 200.33 21.9864 200.33 22.108C200.289 23.081 200.046 23.8512 199.397 24.4999Z" fill="#B0B0BD"/>
<path d="M152.208 27.7046C151.519 28.3127 150.667 28.3533 150.019 27.6641C149.208 26.8127 148.397 25.8803 147.627 24.9479C147.019 24.2587 146.451 23.5695 145.762 22.7587C145.762 23.9749 145.762 25.0695 145.762 26.1641C145.762 26.3668 145.762 26.61 145.721 26.8533C145.519 27.7046 144.789 28.2316 143.938 28.1506C143.127 28.0695 142.519 27.4614 142.397 26.61C142.397 26.4884 142.397 26.4073 142.397 26.3262C142.397 21.8668 142.397 17.4074 142.397 12.9884C142.397 11.8938 143.086 11.083 144.1 11.1235C145.073 11.1235 145.802 11.9344 145.802 13.029V21.1776C145.843 21.2181 145.883 21.2181 145.924 21.2181C147.1 19.8803 148.356 18.5425 149.532 17.2452C149.735 17.0425 149.938 16.7992 150.181 16.5965C150.829 16.0695 151.681 16.11 152.248 16.7181C152.856 17.3262 152.856 18.2587 152.329 18.8668C151.397 19.8803 150.424 20.9344 149.492 21.9884C150.14 22.7587 150.748 23.5289 151.397 24.2992C151.762 24.7452 152.086 25.1506 152.41 25.556C152.897 26.1641 152.856 27.056 152.208 27.7046Z" fill="#B0B0BD"/>
<path d="M163.315 23.203C164.207 23.203 164.774 22.6355 164.774 21.7841C164.734 18.6219 162.869 16.4328 159.788 16.0679C157.152 15.7436 154.72 16.7571 153.747 19.5544C153.22 21.0949 153.139 22.6355 153.544 24.2165C153.99 26.0003 155.085 27.2165 156.788 27.8652C158.004 28.3111 159.301 28.3922 160.598 28.2706C161.531 28.1895 162.423 27.9058 163.193 27.3787C163.558 27.0949 163.882 26.7706 163.882 26.2841C163.963 25.149 162.869 24.5003 161.774 24.9868C160.477 25.5949 159.098 25.7571 157.801 25.0679C157.071 24.703 156.747 24.0544 156.707 23.1625H157.234C159.261 23.203 161.288 23.203 163.315 23.203ZM158.896 19.149C160.071 19.1084 161.49 19.7165 161.49 20.9733H156.707C156.707 20.0003 157.639 19.2301 158.896 19.149Z" fill="#B0B0BD"/>
<path d="M71.4913 15.9887C68.1669 16.0293 65.3696 18.7861 65.3696 22.1104C65.3696 25.5158 68.2075 28.3131 71.6129 28.3131C74.8561 28.3131 77.5723 25.4347 77.5318 22.0698C77.5318 18.6644 74.8156 15.9482 71.4913 15.9887ZM73.721 23.9347C72.7886 25.6374 70.721 25.7995 69.5048 24.2995C68.6534 23.2455 68.4913 22.0293 69.0183 20.8131C69.5048 19.6374 70.721 18.9887 71.9372 19.1914C73.1129 19.3941 74.0453 20.3671 74.1669 21.705C74.1669 21.8266 74.2075 21.9888 74.2075 22.1509C74.248 22.1509 74.2886 22.1915 74.3291 22.1915C74.1264 22.759 74.0048 23.3671 73.721 23.9347Z" fill="#B0B0BD"/>
<path d="M97.0724 26.5687C97.0724 27.4606 96.3021 28.1903 95.4102 28.1903C94.5589 28.1903 93.7886 27.5822 93.7481 26.6498C93.7075 25.0687 93.7075 23.4876 93.7075 21.9065C93.7075 21.5417 93.7075 21.1768 93.667 20.8119C93.5454 19.92 93.0589 19.393 92.2481 19.1903C91.1535 18.9471 90.221 19.1903 89.8156 19.9606C89.5319 20.4876 89.3697 21.1363 89.3697 21.7444C89.3292 23.2849 89.3697 24.7444 89.3292 26.2849C89.3292 27.3795 88.721 28.0687 87.7886 28.1498C86.8156 28.2308 86.0048 27.5011 86.0048 26.4876C85.9643 25.5146 86.0048 24.5417 86.0048 23.5687V17.6903C86.0048 16.7579 86.3697 16.2309 87.0994 16.1092C87.8292 15.9876 88.3156 16.393 88.64 17.3254C89.4508 16.6363 90.3427 16.1498 91.3967 15.9876C94.4778 15.5416 96.8697 17.366 97.0724 20.4471C97.1535 22.5146 97.1129 24.5417 97.0724 26.5687Z" fill="#B0B0BD"/>
<path d="M174.262 26.9737C174.222 27.6629 173.654 28.3115 172.965 28.3115C172.195 28.352 171.343 28.3115 170.573 28.1899C169.316 27.9872 168.505 27.1764 168.222 26.0007C168.019 25.1494 167.897 24.2169 167.857 23.2845C167.816 22.1088 167.857 20.8521 167.857 19.6764V19.1088C167.532 19.1088 167.249 19.1088 167.005 19.1088C166.154 19.0683 165.505 18.4196 165.505 17.6088C165.505 16.7574 166.113 16.0683 166.924 16.0277C167.208 15.9872 167.492 16.0277 167.857 16.0277C167.857 14.9737 167.857 13.9601 167.857 12.9466C167.857 12.1764 168.141 11.5683 168.87 11.2439C169.965 10.7575 171.141 11.5683 171.222 12.7845C171.262 13.3115 171.222 13.8386 171.222 14.4061V16.0683C171.749 16.0683 172.154 16.0683 172.559 16.0683C173.451 16.1088 174.1 16.7575 174.1 17.6494C174.1 18.5007 173.451 19.1493 172.559 19.1899C172.113 19.1899 171.708 19.1899 171.303 19.1899C171.262 19.271 171.222 19.3115 171.222 19.3521C171.262 20.9737 171.222 22.5953 171.303 24.2169C171.343 25.2304 171.586 25.3926 172.559 25.3926C173.695 25.3115 174.343 26.0007 174.262 26.9737Z" fill="#B0B0BD"/>
<path d="M141.1 17.5293C141.1 18.3806 140.41 19.0698 139.559 19.0698C139.437 19.0698 139.275 19.0698 139.113 19.1103C137.41 19.313 136.681 20.0428 136.681 21.786C136.681 23.3266 136.681 24.786 136.681 26.3265C136.681 27.4211 136.032 28.1914 135.059 28.1914C134.086 28.232 133.356 27.4617 133.316 26.3265C133.316 24.0968 133.316 21.9077 133.316 19.6779C133.316 18.9482 133.275 18.259 133.316 17.4887C133.356 16.8401 133.721 16.313 134.248 16.1914C134.775 16.0698 135.343 16.232 135.627 16.6374C135.748 16.8401 135.829 17.0833 135.951 17.3265C136.194 17.1644 136.397 16.9617 136.64 16.7995C137.492 16.1914 138.505 15.9481 139.559 15.9887C140.451 16.0292 141.1 16.759 141.1 17.5293Z" fill="#B0B0BD"/>
<path d="M82.924 26.4047C82.924 27.4182 82.1537 28.1885 81.2212 28.1885C80.2888 28.1885 79.5591 27.4183 79.5591 26.3642C79.5591 24.9453 79.5591 23.5669 79.5591 22.148C79.5591 20.7291 79.5591 19.3507 79.5591 17.9317C79.5591 16.8777 80.2483 16.1074 81.2212 16.1074C82.1537 16.1074 82.924 16.8777 82.924 17.8912C82.9645 20.7291 82.9645 23.5669 82.924 26.4047Z" fill="#B0B0BD"/>
<path d="M83.2479 12.8644C83.2884 13.959 82.3965 14.8509 81.2614 14.8915C80.1668 14.8915 79.3154 14.0401 79.3154 12.905C79.3154 11.8104 80.1668 10.8779 81.2614 10.8779C82.3154 10.8779 83.2073 11.7698 83.2479 12.8644Z" fill="#B0B0BD"/>
</svg>
