<svg width="108" height="29" viewBox="0 0 108 29" fill="none" xmlns="http://www.w3.org/2000/svg">
<path d="M73.2098 17.7585C73.1796 16.3366 73.0283 14.945 72.4837 13.6441C71.7577 11.8289 70.608 10.3465 68.8534 9.4389C66.8869 8.4103 64.8297 8.56155 62.7725 9.16662C62.3489 9.28763 61.9254 9.49942 61.4716 9.71119C61.4716 9.55992 61.4716 9.4389 61.4716 9.31788C61.4716 6.68586 61.5018 4.08408 61.5018 1.45206C61.5018 1.30079 61.5018 1.11928 61.5018 0.968015C61.5018 0.847002 61.4413 0.75625 61.2901 0.786504C60.9875 0.84701 60.7153 0.877263 60.4127 0.937769C58.174 1.36131 55.9655 1.78484 53.7268 2.20839C53.1822 2.29915 53.1822 2.29913 53.2125 2.87394C53.2125 3.08572 53.3032 3.20675 53.515 3.237C53.757 3.29751 53.9991 3.35801 54.2411 3.41851C54.7251 3.53953 55.1487 3.75129 55.3302 4.23534C55.5117 4.68913 55.6932 5.17321 55.7537 5.62701C55.8445 6.80689 55.905 7.98674 55.905 9.19686C55.905 13.8559 55.905 18.5149 55.8748 23.1739C55.8748 24.6563 55.8445 26.1387 55.8142 27.6211C55.8142 27.8026 55.8748 27.8631 56.0563 27.8933C56.3891 27.9538 56.6916 28.0446 56.9941 28.0749C58.5975 28.3471 60.1707 28.6799 61.8044 28.6799C63.075 28.6799 64.3456 28.7404 65.586 28.4379C68.7021 27.7118 71.0013 25.9874 72.3022 22.9923C72.9678 21.3889 73.2401 19.604 73.2098 17.7585ZM67.2499 19.1199C67.2197 21.0561 66.8264 22.9318 65.9793 24.6865C65.6163 25.4731 65.1322 26.1387 64.4061 26.653C63.6196 27.1975 62.7422 27.2278 61.8649 27.1068C61.6531 27.0765 61.6229 26.9252 61.6229 26.7437C61.5926 25.6243 61.5321 24.505 61.5321 23.3856C61.5018 21.9637 61.5321 20.5116 61.5321 19.0897H61.5018C61.5018 16.6089 61.5018 14.1281 61.5018 11.6171C61.5018 11.2541 61.5018 11.2541 61.8649 11.1331C62.4699 10.9213 63.1053 10.891 63.7406 10.9818C64.3759 11.0726 64.9204 11.4356 65.3742 11.8894C66.0701 12.5852 66.4634 13.4626 66.7659 14.4004C67.2499 15.9433 67.2802 17.5468 67.2499 19.1199Z" fill="#B0B0BD"/>
<path d="M22.6567 8.83317C22.6567 8.95418 22.6264 9.01467 22.5054 9.04492C22.2331 9.10543 21.9911 9.19621 21.7491 9.25672C21.4163 9.34748 21.2953 9.28697 21.1743 8.95419C20.9323 8.37937 20.7205 7.80453 20.4785 7.25998C20.0247 6.26162 19.4801 5.35404 18.633 4.62797C17.7859 3.90189 16.8178 3.44808 15.6984 3.44808C14.1253 3.41783 12.5521 3.44808 10.9487 3.44808C10.7672 6.9272 10.7067 10.4366 10.7369 13.9762C11.2512 13.9762 11.7655 13.9762 12.2798 13.9762C12.7639 13.9762 13.2782 13.9157 13.7622 13.8854C14.7001 13.7947 15.3657 13.2804 15.8195 12.4938C16.1825 11.8887 16.3338 11.1929 16.5153 10.4971C16.5455 10.3156 16.6363 10.255 16.8178 10.255C17.1506 10.255 17.4531 10.255 17.8162 10.255V19.4218C17.4229 19.4218 17.0598 19.4218 16.6666 19.4218C16.6363 19.4218 16.5758 19.3008 16.5455 19.2403C16.3943 18.6957 16.243 18.1511 16.0615 17.6368C15.9102 17.304 15.6985 16.9713 15.4867 16.6687C15.1539 16.2149 14.7001 15.9124 14.1253 15.8519C13.0362 15.7611 11.9168 15.7006 10.7672 15.6099C10.7672 16.3965 10.7369 17.1225 10.7672 17.8486C10.8277 19.6335 10.9184 21.4487 11.0092 23.2337C11.0697 24.0203 11.221 24.8068 11.5538 25.5329C11.8563 26.1985 12.3706 26.622 13.1269 26.743C13.611 26.8338 14.1253 26.9246 14.6093 27.0153C14.7909 27.0456 14.9119 27.1363 14.9119 27.3481C14.9119 27.5599 14.9119 27.7716 14.9119 27.9834C14.9119 28.1952 14.7909 28.2557 14.6093 28.2557C11.2512 28.2557 7.89313 28.2557 4.56528 28.2557C3.47617 28.2557 2.3568 28.2254 1.26769 28.2557C0.995408 28.2557 0.934898 28.1649 0.904645 27.9229C0.844138 27.1363 0.904645 27.0456 1.66097 26.8943C1.903 26.8338 2.14502 26.8035 2.38705 26.743C3.35515 26.5918 3.89971 25.9867 4.20224 25.0791C4.50477 24.1413 4.56529 23.1732 4.62579 22.2051C4.83756 18.3024 4.77706 14.43 4.7468 10.5273C4.71655 9.16594 4.65604 7.7743 4.56528 6.41291C4.53503 5.77759 4.38376 5.17254 4.23249 4.56747C3.92996 3.44811 3.14338 2.84301 1.99376 2.722C1.66098 2.69175 1.29794 2.63124 0.9349 2.57073C0.904647 2.14719 0.904643 1.75391 0.87439 1.30012C1.05591 1.26986 1.20718 1.23962 1.35844 1.23962C5.65439 1.23962 9.92009 1.23962 14.216 1.23962C16.8783 1.23962 19.5709 1.23962 22.2331 1.23962C22.5962 1.23962 22.5962 1.23961 22.5962 1.60265C22.6264 3.53885 22.6869 5.44479 22.7172 7.381C22.6567 7.8953 22.6567 8.34911 22.6567 8.83317Z" fill="#B0B0BD"/>
<path d="M38.0856 14.4316C37.2687 12.0113 35.7863 10.1659 33.3963 9.16753C31.5509 8.4112 29.6449 8.25993 27.6785 8.56247C24.5019 9.07677 22.2329 10.8012 20.811 13.6753C20.2059 14.9156 19.9337 16.2468 19.8429 17.6082C19.7219 19.3931 19.8731 21.1781 20.448 22.9025C21.2043 25.1715 22.6262 26.8959 24.8347 27.9547C26.1658 28.5901 27.5877 28.8321 29.0399 28.7716C29.3121 28.7716 29.5844 28.7716 29.8567 28.7716C30.129 28.7716 30.4012 28.7716 30.6735 28.7111C33.2753 28.3178 35.393 27.1379 36.9057 24.9597C37.9645 23.4168 38.5394 21.6923 38.6604 19.8166C38.7511 17.9712 38.6604 16.1863 38.0856 14.4316ZM32.7307 18.909C32.7307 20.3914 32.7005 21.8436 32.4282 23.2958C32.2467 24.2941 32.0047 25.2622 31.3996 26.1093C31.0063 26.6539 30.5223 27.0774 29.8567 27.2287C28.8886 27.4102 28.1625 27.0471 27.5877 26.3211C26.9524 25.5345 26.6196 24.5967 26.3473 23.6286C25.9843 22.2672 25.833 20.8755 25.833 19.4536C25.8028 17.6384 25.7725 15.793 26.1053 13.9778C26.2868 12.9794 26.5288 11.9811 27.1037 11.0735C27.7087 10.1054 28.6466 9.68182 29.7054 9.98435C30.008 10.0751 30.3105 10.2567 30.5828 10.4987C31.4299 11.2248 31.8837 12.2231 32.1862 13.282C32.64 14.8249 32.761 16.4283 32.7912 18.062C32.7307 18.3645 32.7307 18.6368 32.7307 18.909Z" fill="#B0B0BD"/>
<path d="M90.9378 12.7961C90.0907 10.8296 88.699 9.43799 86.6418 8.80268C85.2804 8.37913 83.8888 8.34886 82.5274 8.59088C79.5928 9.07493 77.3843 10.5876 75.9927 13.2196C75.0851 14.9138 74.6616 16.729 74.6918 18.635C74.7221 19.9056 74.7826 21.1459 75.2061 22.3863C76.507 26.3495 79.7744 28.4975 83.1627 28.7092C84.5241 28.8 85.8855 28.7395 87.2166 28.316C88.8503 27.7714 90.242 26.8638 91.3613 25.5629C91.6639 25.1999 91.6639 25.0486 91.3613 24.6856C91.1496 24.4133 91.089 24.4133 90.7865 24.5646C90.3327 24.8066 89.9092 25.0789 89.4554 25.2907C88.457 25.7445 87.3982 25.7747 86.3393 25.7445C84.3123 25.6537 82.7997 24.6553 81.7408 23.0217C80.7425 21.4788 80.5004 19.724 80.5004 17.8483C80.6517 17.8483 80.7425 17.8483 80.8635 17.8483C84.4334 17.8483 88.0335 17.8181 91.6034 17.8181C91.8151 17.8181 91.8756 17.7576 91.8756 17.5761C91.8454 15.9122 91.6034 14.3087 90.9378 12.7961ZM80.4702 16.2147C80.5307 15.7307 80.5609 15.2768 80.6215 14.823C80.803 13.5826 81.1055 12.4028 81.7408 11.3137C81.9828 10.8901 82.3156 10.4968 82.7392 10.2246C83.4955 9.74051 84.3426 9.89179 84.8871 10.6179C85.3107 11.1927 85.5225 11.8885 85.6737 12.5843C85.946 13.7339 85.9763 14.8836 86.0368 16.0937C84.1913 16.1239 82.3459 16.1542 80.4702 16.2147Z" fill="#B0B0BD"/>
<path d="M106.67 25.4713C105.823 26.863 104.582 27.71 103.07 28.2546C102.223 28.5571 101.345 28.7084 100.468 28.7084C99.6511 28.7084 98.804 28.7689 97.9872 28.7084C96.3838 28.6176 94.8106 28.2849 93.298 27.7403C93.1164 27.6798 93.0257 27.589 93.0257 27.3773C93.0257 26.4999 93.0257 25.6226 93.0257 24.7452H92.9047C92.9047 23.8679 92.9047 22.9906 92.9047 22.1132C92.9047 21.9317 92.9652 21.8409 93.1164 21.8107C93.1769 21.7804 93.2374 21.7502 93.298 21.7502C93.8728 21.5989 93.9333 21.6292 94.145 22.1737C94.5383 23.1721 94.9921 24.1099 95.6274 24.957C96.293 25.8343 97.1098 26.4999 98.2292 26.7117C99.1066 26.863 99.9839 26.8932 100.831 26.4092C102.465 25.5016 102.495 23.2326 101.587 22.3552C101.134 21.9014 100.619 21.5686 100.044 21.3266C99.0763 20.9031 98.078 20.4795 97.1099 20.0862C96.3535 19.7535 95.6577 19.3904 95.0224 18.8761C93.8425 17.8475 93.3282 16.5466 93.2374 15.0037C93.1467 12.644 94.4778 10.4355 96.6863 9.37661C97.8662 8.8018 99.1368 8.55979 100.438 8.52954C102.223 8.49929 103.977 8.71106 105.702 9.28587C106.398 9.5279 106.398 9.52788 106.428 10.254C106.458 11.6456 106.488 13.0373 106.519 14.4289C106.519 14.6104 106.488 14.7012 106.277 14.7919C105.55 15.034 105.52 15.034 105.248 14.3381C104.915 13.4608 104.552 12.5835 103.977 11.8271C103.16 10.738 102.071 10.133 100.68 10.1935C99.4999 10.2237 98.5923 11.1918 98.4107 12.3414C98.2292 13.4911 98.6528 14.3684 99.5906 15.0037C100.468 15.639 101.466 16.0626 102.465 16.5164C103.493 16.9702 104.522 17.3937 105.429 18.0593C106.791 19.0274 107.487 20.3585 107.517 22.0225C107.517 23.1418 107.335 24.352 106.67 25.4713Z" fill="#B0B0BD"/>
<path d="M54.4224 9.55975C53.8778 11.0422 53.303 12.5548 52.7282 14.0372C52.6072 14.3397 52.6072 14.3397 52.3047 14.2187C51.6694 13.9767 51.0341 13.6742 50.3685 13.5229C49.4004 13.2809 48.4323 13.4321 47.5247 13.8859C47.1314 14.0977 46.9196 14.37 46.9196 14.8541C46.8289 17.8491 46.8289 20.8442 47.0104 23.8392C47.0406 24.4745 47.1314 25.1098 47.2827 25.7149C47.4339 26.4107 47.918 26.8343 48.6441 26.8948C49.0979 26.9553 49.5517 27.0158 50.0054 27.0461C50.1567 27.0461 50.2172 27.1066 50.2172 27.2579C50.2172 27.5906 50.2172 27.8932 50.2172 28.2259C50.1265 28.2259 50.066 28.2562 50.0054 28.2562C46.4053 28.2562 42.8052 28.2562 39.2051 28.2562C38.6302 28.2562 38.6303 28.2562 38.6605 27.6814C38.6908 27.1066 38.6908 27.1066 39.2353 27.0158C39.3563 26.9856 39.4773 26.9553 39.6286 26.925C40.5362 26.7435 41.0505 26.2292 41.1413 25.2914C41.2623 24.051 41.3228 22.8106 41.353 21.6005C41.3833 19.3012 41.353 17.002 41.3228 14.7028C41.3228 14.007 41.232 13.2809 41.0808 12.5851C40.9597 11.859 40.506 11.3749 39.7194 11.2539C39.4471 11.2237 39.1446 11.1329 38.8723 11.0724C38.721 11.0422 38.6605 10.9816 38.6605 10.8304C38.6605 10.8001 38.6605 10.8001 38.6605 10.7699C38.6303 10.1346 38.6303 10.1346 39.2353 10.0135C41.6858 9.52949 44.1061 9.04543 46.5566 8.56138C46.7078 8.53112 46.8894 8.53114 47.1011 8.50088C47.0406 9.83202 47.0104 11.1329 46.9499 12.4338C46.9499 12.4338 46.9801 12.4338 46.9801 12.464C47.0406 12.3733 47.0709 12.3128 47.1314 12.222C47.6154 11.3144 48.2205 10.4673 49.0071 9.7715C50.429 8.56138 52.0627 8.1681 53.8779 8.65215C53.9081 8.65215 53.9686 8.6824 53.9989 8.6824C54.5737 8.86391 54.6342 8.95468 54.4224 9.55975Z" fill="#B0B0BD"/>
</svg>
