<?xml version="1.0" encoding="utf-8"?>
<!-- Generator: Adobe Illustrator 24.2.1, SVG Export Plug-In . SVG Version: 6.00 Build 0)  -->
<svg version="1.1" id="Layer_1" xmlns="http://www.w3.org/2000/svg" xmlns:xlink="http://www.w3.org/1999/xlink" x="0px" y="0px"
	 viewBox="0 0 1000 1000" style="enable-background:new 0 0 1000 1000;" xml:space="preserve">
<style type="text/css">
	.st0{fill:url(#SVGID_1_);}
	.st1{fill:url(#SVGID_2_);}
	.st2{fill:url(#SVGID_3_);}
	.st3{fill:url(#SVGID_4_);}
	.st4{fill:url(#SVGID_5_);}
	.st5{fill:url(#SVGID_6_);}
	.st6{fill:url(#SVGID_7_);}
	.st7{fill:url(#SVGID_8_);}
	.st8{fill:#000073;}
	.st9{fill:url(#SVGID_9_);}
	.st10{fill:url(#SVGID_10_);}
	.st11{fill:url(#SVGID_11_);}
	.st12{fill:url(#SVGID_12_);}
</style>
<g>
	<g>
		<g>
			<linearGradient id="SVGID_1_" gradientUnits="userSpaceOnUse" x1="254.192" y1="415.4952" x2="120.6688" y2="577.6306">
				<stop  offset="0" style="stop-color:#D62CDF"/>
				<stop  offset="0.1422" style="stop-color:#BE32E0"/>
				<stop  offset="0.4433" style="stop-color:#8041E3"/>
				<stop  offset="0.8755" style="stop-color:#1E5AE8"/>
				<stop  offset="1" style="stop-color:#0061EA"/>
			</linearGradient>
			<path class="st0" d="M173.1,477.3c-3.1-3.2-2-6.9-1.5-7.9c0.4-1,2.2-4.5,6.7-4.5h55.2l-8.3,16.4l10.3,10.5l20.6-40.8h-77.9
				c-8.7,0-16.2,5-19.5,13c-3.4,8-1.7,16.8,4.4,23l29.2,29.7l-4.4,8.6h32.4L173.1,477.3z"/>
			<linearGradient id="SVGID_2_" gradientUnits="userSpaceOnUse" x1="276.6132" y1="433.9597" x2="143.09" y2="596.0951">
				<stop  offset="0" style="stop-color:#D62CDF"/>
				<stop  offset="0.1422" style="stop-color:#BE32E0"/>
				<stop  offset="0.4433" style="stop-color:#8041E3"/>
				<stop  offset="0.8755" style="stop-color:#1E5AE8"/>
				<stop  offset="1" style="stop-color:#0061EA"/>
			</linearGradient>
			<path class="st1" d="M233.7,522.7c3.1,3.2,2,6.9,1.5,7.9c-0.4,1-2.2,4.5-6.7,4.5h-55.2l8.3-16.4l-10.3-10.5L150.7,549h77.9
				c8.7,0,16.2-5,19.5-13c3.4-8,1.7-16.8-4.4-23l-29.2-29.7l4.4-8.6h-32.4L233.7,522.7z"/>
		</g>
		<linearGradient id="SVGID_3_" gradientUnits="userSpaceOnUse" x1="293.921" y1="448.2132" x2="160.3977" y2="610.3486">
			<stop  offset="0" style="stop-color:#D62CDF"/>
			<stop  offset="0.1422" style="stop-color:#BE32E0"/>
			<stop  offset="0.4433" style="stop-color:#8041E3"/>
			<stop  offset="0.8755" style="stop-color:#1E5AE8"/>
			<stop  offset="1" style="stop-color:#0061EA"/>
		</linearGradient>
		<path class="st2" d="M248.5,485.2l-6.6,13.1l8.2,8.3c8.6,8.7,11,21.6,6.3,32.9c-4.7,11.3-15.7,18.6-27.9,18.6h-82.4l-7,13.9h89.5
			c17.8,0,33.8-10.6,40.7-27.1c6.9-16.5,3.3-35.3-9.2-48L248.5,485.2z"/>
		<linearGradient id="SVGID_4_" gradientUnits="userSpaceOnUse" x1="236.8842" y1="401.2418" x2="103.361" y2="563.3771">
			<stop  offset="0" style="stop-color:#D62CDF"/>
			<stop  offset="0.1422" style="stop-color:#BE32E0"/>
			<stop  offset="0.4433" style="stop-color:#8041E3"/>
			<stop  offset="0.8755" style="stop-color:#1E5AE8"/>
			<stop  offset="1" style="stop-color:#0061EA"/>
		</linearGradient>
		<path class="st3" d="M178.3,441.9h82.4l7-13.9h-89.5c-17.8,0-33.8,10.6-40.7,27.1c-6.9,16.5-3.3,35.3,9.2,48l11.4,11.6l6.6-13.1
			l-8.1-8.2c-8.6-8.7-11-21.6-6.3-32.9C155.1,449.2,166.1,441.9,178.3,441.9z"/>
	</g>
	<g>
		<path class="st8" d="M342.8,491.5c-5,0-8.6,1.7-8.6,5.6c0,10.8,34,5.2,34,28.2c0,13.1-11.6,19.4-25.3,19.4c-9.7,0-19.8-3.1-26.5-9
			l5.4-10.9c5.9,5,14.8,7.9,21.7,7.9c5.4,0,9.5-1.8,9.5-6c0-11.9-33.5-5.4-33.4-28.2c0-13.2,11.3-19.3,24.2-19.3
			c8.4,0,17.2,2.5,23.5,6.8l-5.6,11.3C355.4,493.6,348.3,491.5,342.8,491.5z"/>
		<path class="st8" d="M442,512c0,19.6-13.7,32.8-33.7,32.8c-20.3,0-34-13.2-34-32.8c0-19.4,13.7-32.5,34-32.5
			C428.3,479.5,442,492.6,442,512z M390,512.2c0,11.5,7.4,19.4,18.2,19.4c10.6,0,18-7.9,18-19.4s-7.4-19.4-18-19.4
			C397.5,492.8,390,500.7,390,512.2z"/>
		<path class="st8" d="M470.6,455.1v89H455v-89H470.6z"/>
		<path class="st8" d="M527.3,544.2v-7.8c-4.4,5.6-11.6,8.5-20.8,8.5c-13.8,0-22.4-8.5-22.4-19.9c0-11.9,8.8-19.2,24.4-19.3h18.7
			V504c0-7.4-4.9-11.9-14.5-11.9c-6,0-12.5,2-19.1,6l-5.6-10.8c9.2-5.2,16.4-7.9,28.2-7.9c16.8,0,26.3,8.5,26.4,22.8l0.1,42H527.3z
			 M527.2,521.8v-5.8H511c-8.3,0-12.1,2.3-12.1,7.9c0,5.4,4.3,8.9,11.4,8.9C519.3,532.9,526.4,528.1,527.2,521.8z"/>
		<path class="st8" d="M578.2,491.5c-5,0-8.6,1.7-8.6,5.6c0,10.8,34,5.2,34,28.2c0,13.1-11.6,19.4-25.3,19.4c-9.7,0-19.8-3.1-26.5-9
			l5.4-10.9c5.9,5,14.8,7.9,21.7,7.9c5.4,0,9.5-1.8,9.5-6c0-11.9-33.5-5.4-33.4-28.2c0-13.2,11.3-19.3,24.2-19.3
			c8.4,0,17.2,2.5,23.5,6.8l-5.6,11.3C590.8,493.6,583.7,491.5,578.2,491.5z"/>
		<path class="st8" d="M653.2,540.2c-4.9,3-10.4,4.7-16.1,4.7c-10.4,0-18.8-6-18.8-19.2V494h-9l-0.1-11.4h9.1V465h15.5v17.6h18.4
			V494h-18.4v28.9c0,6.1,2.5,8.2,6.7,8.2c2.6,0,5.6-1,9.1-2.6L653.2,540.2z"/>
		<path class="st8" d="M702.2,544.2v-7.8c-4.4,5.6-11.6,8.5-20.8,8.5c-13.8,0-22.4-8.5-22.4-19.9c0-11.9,8.8-19.2,24.4-19.3H702V504
			c0-7.4-4.9-11.9-14.5-11.9c-6,0-12.5,2-19.1,6l-5.6-10.8c9.2-5.2,16.4-7.9,28.2-7.9c16.8,0,26.3,8.5,26.4,22.8l0.1,42H702.2z
			 M702,521.8v-5.8h-16.2c-8.3,0-12.1,2.3-12.1,7.9c0,5.4,4.3,8.9,11.4,8.9C694.1,532.9,701.2,528.1,702,521.8z"/>
		<path class="st8" d="M771.3,479.4v15.1c-13.6-0.8-21.8,7.1-21.8,18.7v31h-15.6V480h15.6v12.4C753.8,483.9,761.3,479.5,771.3,479.4
			z"/>
		<path class="st8" d="M831,480.1v10.3l-35.3,41l36.2,0.1v12.7l-55.7-0.1v-10.3l35.3-41l-34.1-0.1v-12.6H831z"/>
	</g>
</g>
</svg>
