<?xml version="1.0" encoding="utf-8"?>
<!-- Generator: Adobe Illustrator 24.2.1, SVG Export Plug-In . SVG Version: 6.00 Build 0)  -->
<svg version="1.1" id="Layer_1" xmlns="http://www.w3.org/2000/svg" xmlns:xlink="http://www.w3.org/1999/xlink" x="0px" y="0px"
	 viewBox="0 0 2445 1000" style="enable-background:new 0 0 2445 1000;" xml:space="preserve">
<style type="text/css">
	.st0{fill:url(#SVGID_1_);}
	.st1{fill:url(#SVGID_2_);}
	.st2{fill:url(#SVGID_3_);}
	.st3{fill:url(#SVGID_4_);}
	.st4{fill:url(#SVGID_5_);}
	.st5{fill:url(#SVGID_6_);}
	.st6{fill:url(#SVGID_7_);}
	.st7{fill:url(#SVGID_8_);}
	.st8{fill:#000073;}
	.st9{fill:url(#SVGID_9_);}
	.st10{fill:url(#SVGID_10_);}
	.st11{fill:url(#SVGID_11_);}
	.st12{fill:url(#SVGID_12_);}
</style>
<g>
	<g>
		<g>
			<linearGradient id="SVGID_1_" gradientUnits="userSpaceOnUse" x1="578.8667" y1="265.1024" x2="207.7127" y2="715.7894">
				<stop  offset="0" style="stop-color:#D62CDF"/>
				<stop  offset="0.1422" style="stop-color:#BE32E0"/>
				<stop  offset="0.4433" style="stop-color:#8041E3"/>
				<stop  offset="0.8755" style="stop-color:#1E5AE8"/>
				<stop  offset="1" style="stop-color:#0061EA"/>
			</linearGradient>
			<path class="st0" d="M353.5,436.8c-8.7-8.9-5.4-19.1-4.2-22c1.2-2.9,6.2-12.4,18.6-12.4h153.5l-23,45.5l28.6,29.1l57.3-113.3
				H367.9c-24.2,0-45,13.8-54.3,36.1c-9.3,22.3-4.6,46.8,12.3,64.1l81.3,82.6L395,570.5H485L353.5,436.8z"/>
			<linearGradient id="SVGID_2_" gradientUnits="userSpaceOnUse" x1="641.1908" y1="316.4281" x2="270.0368" y2="767.1151">
				<stop  offset="0" style="stop-color:#D62CDF"/>
				<stop  offset="0.1422" style="stop-color:#BE32E0"/>
				<stop  offset="0.4433" style="stop-color:#8041E3"/>
				<stop  offset="0.8755" style="stop-color:#1E5AE8"/>
				<stop  offset="1" style="stop-color:#0061EA"/>
			</linearGradient>
			<path class="st1" d="M521.9,563.2c8.7,8.9,5.4,19.1,4.2,22c-1.2,2.9-6.2,12.4-18.6,12.4H354l23-45.5l-28.6-29.1l-57.3,113.3
				h216.4c24.2,0,45-13.8,54.3-36.1c9.3-22.3,4.6-46.8-12.3-64.1l-81.3-82.6l12.2-23.9h-89.9L521.9,563.2z"/>
		</g>
		<linearGradient id="SVGID_3_" gradientUnits="userSpaceOnUse" x1="689.3012" y1="356.0485" x2="318.1472" y2="806.7354">
			<stop  offset="0" style="stop-color:#D62CDF"/>
			<stop  offset="0.1422" style="stop-color:#BE32E0"/>
			<stop  offset="0.4433" style="stop-color:#8041E3"/>
			<stop  offset="0.8755" style="stop-color:#1E5AE8"/>
			<stop  offset="1" style="stop-color:#0061EA"/>
		</linearGradient>
		<path class="st2" d="M563.2,458.8l-18.4,36.5l22.7,23.1c23.8,24.2,30.7,60.1,17.6,91.4c-13.1,31.3-43.6,51.6-77.5,51.6H278.4
			l-19.6,38.7h248.7c49.6,0,94-29.6,113.2-75.3c19.2-45.7,9.1-98.2-25.7-133.5L563.2,458.8z"/>
		<linearGradient id="SVGID_4_" gradientUnits="userSpaceOnUse" x1="530.7563" y1="225.4821" x2="159.6024" y2="676.1691">
			<stop  offset="0" style="stop-color:#D62CDF"/>
			<stop  offset="0.1422" style="stop-color:#BE32E0"/>
			<stop  offset="0.4433" style="stop-color:#8041E3"/>
			<stop  offset="0.8755" style="stop-color:#1E5AE8"/>
			<stop  offset="1" style="stop-color:#0061EA"/>
		</linearGradient>
		<path class="st3" d="M367.9,338.6h229.1l19.6-38.7H367.9c-49.6,0-94,29.6-113.2,75.3c-19.2,45.7-9.1,98.2,25.7,133.5l31.7,32.2
			l18.4-36.5L308,481.6c-23.8-24.2-30.7-60.1-17.6-91.4C303.5,358.9,334,338.6,367.9,338.6z"/>
	</g>
	<g>
		<path class="st8" d="M825.1,476.3c-14,0-24,4.7-24,15.7c0,30,94.4,14.3,94.4,78.4c0,36.4-32.4,54-70.4,54c-27,0-55-8.7-73.7-25
			l15-30.4c16.3,14,41,22,60.4,22c15,0,26.4-5,26.4-16.7c0-33-93.1-15-92.7-78.4c0-36.7,31.4-53.7,67.4-53.7c23.3,0,47.7,7,65.4,19
			l-15.7,31.4C860.1,482.3,840.4,476.3,825.1,476.3z"/>
		<path class="st8" d="M1100.9,533.4c0,54.4-38,91.1-93.7,91.1c-56.4,0-94.4-36.7-94.4-91.1c0-54,38-90.4,94.4-90.4
			C1062.9,443,1100.9,479.3,1100.9,533.4z M956.5,534c0,32,20.7,54,50.7,54c29.4,0,50-22,50-54s-20.7-54-50-54
			C977.2,480,956.5,502,956.5,534z"/>
		<path class="st8" d="M1180.3,375.3v247.5H1137V375.3H1180.3z"/>
		<path class="st8" d="M1338.1,622.7v-21.7c-12.3,15.7-32.4,23.7-57.7,23.7c-38.4,0-62.4-23.7-62.4-55.4c0-33,24.3-53.4,67.7-53.7
			h52V511c0-20.7-13.7-33-40.4-33c-16.7,0-34.7,5.7-53,16.7l-15.7-30c25.7-14.3,45.7-22,78.4-22c46.7,0,73,23.7,73.4,63.4l0.3,116.7
			H1338.1z M1337.8,560.7v-16h-45c-23,0-33.7,6.3-33.7,22c0,15,12,24.7,31.7,24.7C1315.7,591.4,1335.4,578.1,1337.8,560.7z"/>
		<path class="st8" d="M1479.5,476.3c-14,0-24,4.7-24,15.7c0,30,94.4,14.3,94.4,78.4c0,36.4-32.4,54-70.4,54c-27,0-55-8.7-73.7-25
			l15-30.4c16.3,14,41,22,60.4,22c15,0,26.4-5,26.4-16.7c0-33-93.1-15-92.7-78.4c0-36.7,31.4-53.7,67.4-53.7c23.3,0,47.7,7,65.4,19
			l-15.7,31.4C1514.5,482.3,1494.9,476.3,1479.5,476.3z"/>
		<path class="st8" d="M1688,611.7c-13.7,8.3-29,13-44.7,13c-29,0-52.4-16.7-52.4-53.4v-88.1h-25l-0.3-31.7h25.3v-49h43v49h51v31.7
			h-51v80.4c0,17,7,22.7,18.7,22.7c7.3,0,15.7-2.7,25.4-7.3L1688,611.7z"/>
		<path class="st8" d="M1824.1,622.7v-21.7c-12.3,15.7-32.4,23.7-57.7,23.7c-38.4,0-62.4-23.7-62.4-55.4c0-33,24.3-53.4,67.7-53.7
			h52V511c0-20.7-13.7-33-40.4-33c-16.7,0-34.7,5.7-53,16.7l-15.7-30c25.7-14.3,45.7-22,78.4-22c46.7,0,73,23.7,73.4,63.4l0.3,116.7
			H1824.1z M1823.8,560.7v-16h-45c-23,0-33.7,6.3-33.7,22c0,15,12,24.7,31.7,24.7C1801.7,591.4,1821.4,578.1,1823.8,560.7z"/>
		<path class="st8" d="M2016.2,442.6v42c-37.7-2.3-60.7,19.7-60.7,52v86.1h-43.4V444.3h43.4v34.4
			C1967.5,455.3,1988.5,443,2016.2,442.6z"/>
		<path class="st8" d="M2182.3,444.6v28.7l-98.1,114.1l100.7,0.3v35.4l-154.8-0.3v-28.7l98.1-114.1l-94.7-0.3v-35H2182.3z"/>
	</g>
</g>
</svg>
