<svg width="211" height="38" viewBox="0 0 211 38" fill="none" xmlns="http://www.w3.org/2000/svg">
<path d="M40.3139 4.68863C35.4062 4.72609 30.4985 4.68863 25.6282 4.68863C25.2536 4.68863 24.879 4.72607 24.5043 4.57622C24.0922 3.9768 23.5678 3.48979 23.0058 3.04023C17.9108 -1.08074 8.58242 -1.00581 3.59979 3.22755C1.76409 4.76354 0.790044 6.67419 0.827507 9.14677C0.902434 13.6049 0.939897 18.063 0.827507 22.5212C0.75258 25.5182 2.06379 27.6162 4.42399 29.2271C6.8591 30.913 9.59393 31.6248 12.4786 31.7746C16.2624 31.9994 19.784 31.2127 22.8934 28.9649C23.2681 28.7026 23.7925 28.4779 23.9049 27.9159C24.1297 28.2156 23.9799 28.5153 23.9049 28.815C23.3055 31.3251 22.7061 33.8351 22.1441 36.3452C22.0692 36.5325 21.9943 36.7198 21.9194 36.9071C21.7695 37.0944 21.6571 37.3192 21.8444 37.5065C21.9943 37.6564 22.1067 37.4316 22.1441 37.3192C22.2191 37.2068 22.2565 37.057 22.3315 36.9446C27.5763 29.4519 32.7837 21.9967 38.0286 14.504C37.9537 14.4291 37.9162 14.3916 37.8413 14.3167C34.9566 15.4781 32.1094 16.6769 28.9999 17.9507C29.5619 16.4896 30.0489 15.2908 30.461 14.017C30.6483 13.4176 30.948 13.1928 31.6224 13.2302C33.8327 13.2677 36.0805 13.2303 38.2909 13.2677C38.9652 13.2677 39.19 13.0804 39.3398 12.4061C39.8643 10.1583 40.3888 7.873 40.9882 5.66266C41.2879 4.83847 41.0631 4.68863 40.3139 4.68863ZM3.71218 4.72608C8.13286 0.118089 18.0981 -0.0317737 22.7436 4.3889C22.6312 4.3889 22.5188 4.3889 22.4064 4.3889C22.5562 4.46383 22.7436 4.53876 22.9309 4.57622C21.1326 4.83846 19.2969 4.65116 17.4987 4.68863C15.4757 4.72609 15.4757 4.6886 14.9887 6.67416C14.5391 8.58479 14.0895 10.5329 13.6025 12.4061C13.4152 13.0429 13.565 13.2303 14.2394 13.1928C16.4123 13.1553 18.5477 13.1928 20.7205 13.1928C21.2076 13.1928 21.6946 13.1928 21.2076 13.8671C21.1326 13.8297 21.0203 13.8297 20.9453 13.7922C20.9453 13.7922 20.9453 13.7922 20.9453 13.8297C20.9453 13.9046 20.9453 13.9421 20.9453 14.017C18.4353 15.3282 15.7754 16.1524 12.9282 15.9651C9.66886 15.7778 6.59686 14.9161 4.12428 12.6683C1.50185 10.2706 1.35199 7.19866 3.71218 4.72608ZM2.0638 12.4061C2.62575 12.9306 3.03784 13.4176 3.52487 13.7922C8.58242 17.6135 14.0895 18.0256 19.9338 15.9276C20.1586 15.8527 20.4208 15.7403 20.6456 15.6654C20.7205 15.6279 20.7955 15.5905 20.8704 15.553C20.6456 16.9017 20.4208 18.2504 19.8589 19.4867C19.784 19.5241 19.709 19.5616 19.6341 19.5616C15.0636 21.2849 10.568 21.135 6.18477 18.9622C4.16175 17.9881 2.62575 16.4896 2.13872 14.1668C1.98887 13.6798 2.02634 13.1179 2.0638 12.4061ZM2.0638 17.4636C7.08389 22.2215 12.9656 22.7085 19.2595 21.0226C19.2969 21.0226 19.3344 20.9852 19.3719 20.9852C19.709 21.3973 19.4093 21.8094 19.2969 22.2214C19.0722 23.158 18.9972 24.0946 18.5102 24.9563C18.4353 24.9938 18.3604 24.9937 18.248 25.0312C14.9512 25.8554 11.6544 25.8929 8.35764 24.8814C6.82164 24.3944 5.39803 23.6825 4.16174 22.5961C2.70067 21.2474 1.83902 19.6365 2.0638 17.4636ZM6.48447 29.0024C5.24818 28.4029 4.16174 27.6162 3.30008 26.5672C2.25111 25.2935 1.83902 23.8324 2.10126 22.0341C2.73814 22.671 3.22516 23.2705 3.82458 23.7575C6.18477 25.6681 8.91959 26.5298 11.8792 26.7546C13.9397 26.9044 15.9627 26.8295 17.9857 26.4174C18.0606 26.4174 18.173 26.3799 18.248 26.3799C18.1356 27.6537 17.7235 28.89 17.3863 30.1637C17.3488 30.1262 17.2739 30.0888 17.2365 30.0513C17.2365 30.0888 17.2365 30.0888 17.2365 30.1263C17.2365 30.1637 17.2365 30.1637 17.2365 30.1637C13.5276 30.9504 9.9311 30.6882 6.48447 29.0024ZM39.6021 6.71166C39.19 8.17273 38.8528 9.63378 38.5531 11.0949C38.4032 11.8816 38.0286 12.0689 37.2793 12.0314C35.2189 11.994 33.1209 12.0314 31.0604 11.994C30.3861 11.994 30.0864 12.2187 29.8241 12.8556C28.8126 15.2533 27.7637 17.6135 26.6023 20.2734C29.3371 19.0745 31.8097 18.0256 34.2823 16.9391C34.3572 16.9766 34.3947 17.0515 34.4696 17.089C31.4351 21.5471 28.438 26.0427 25.4035 30.5009C25.1412 30.351 25.2161 30.0888 25.1787 29.9014C25.4409 28.5153 25.7032 27.1291 26.0029 25.5932C24.7666 26.1176 23.6801 26.5298 22.5937 27.0168C21.5073 27.4663 20.4208 27.9534 19.1471 28.5153C19.709 26.1177 20.1961 23.9073 20.7205 21.697C21.3949 18.7749 22.0692 15.8153 22.8185 12.8931C23.0058 12.1064 22.781 11.994 22.0692 11.994C20.0087 12.0314 17.9108 11.994 15.8503 12.0314C15.176 12.0314 14.8763 11.9565 15.101 11.1698C15.5131 9.70869 15.8503 8.17269 16.1875 6.67416C16.3373 6.03728 16.5621 5.81253 17.2365 5.81253C24.4294 5.84999 31.6224 5.84999 38.8153 5.81253C39.5271 5.84999 39.8269 5.92493 39.6021 6.71166Z" fill="#B0B0BD"/>
<path d="M55.8231 21.0603C55.1487 22.9709 53.6502 23.945 51.7021 24.1697C49.754 24.3945 48.1056 23.7202 46.9817 22.0718C45.9702 20.6107 45.5956 18.9623 45.7454 17.3139C45.6705 15.5531 45.9702 13.9797 46.8693 12.5561C47.9558 10.7953 49.6416 10.046 51.6272 10.2333C53.7626 10.4581 55.2986 11.582 55.9354 13.7175C56.0853 14.167 56.4599 14.9163 55.7107 15.0661C54.9989 15.216 53.875 15.6656 53.5378 14.5791C53.0508 13.1181 52.1891 12.4062 50.728 12.631C49.192 12.8558 48.705 14.1296 48.5177 15.4033C48.3304 16.9393 48.218 18.5502 48.7799 20.0488C49.1546 21.1352 49.8664 21.8095 51.0277 21.8095C52.1516 21.8095 53.0882 21.36 53.3505 20.1986C53.7251 18.7376 54.8865 19.1871 55.5983 19.3744C56.5723 19.6367 56.0478 20.4983 55.8231 21.0603Z" fill="#B0B0BD"/>
<path d="M69.6102 13.1571C68.7485 11.3214 67.2125 10.3099 65.1895 10.1975C63.3163 10.1226 61.7429 10.9093 60.7314 12.5577C59.8322 13.9813 59.4951 15.5173 59.6449 17.2032C59.6449 17.7277 59.6074 18.2896 59.6449 18.8141C59.9446 21.7737 61.9676 23.9466 64.5901 24.2088C66.9877 24.4336 69.2355 22.8602 70.0223 20.2003C70.7341 17.8026 70.6966 15.4424 69.6102 13.1571ZM67.2874 20.0878C66.8753 21.0994 66.1635 21.7362 65.0771 21.8112C63.9157 21.8486 63.0915 21.2492 62.6794 20.1628C61.9676 18.2147 61.9676 16.2291 62.6794 14.281C63.0541 13.2321 63.9157 12.5952 65.0771 12.6326C66.1635 12.6701 66.8753 13.3444 67.2874 14.3185C67.6995 15.2551 67.6621 16.2291 67.7745 17.1282C67.6995 18.1772 67.6995 19.1513 67.2874 20.0878Z" fill="#B0B0BD"/>
<path d="M77.1399 23.0833C77.1774 24.1697 76.6529 24.2821 75.7912 24.2447C74.9296 24.2447 74.4051 24.1323 74.4426 23.0833C74.48 19.1497 74.48 15.2535 74.4426 11.3198C74.4426 10.2334 74.967 10.1584 75.7912 10.1584C76.6529 10.1584 77.1774 10.2708 77.1399 11.3198C77.065 13.2679 77.1025 15.2535 77.1025 17.2016C77.1025 19.1497 77.065 21.0977 77.1399 23.0833Z" fill="#B0B0BD"/>
<path d="M92.0134 22.7075C92.0134 23.232 92.388 24.0937 91.5264 24.1686C90.6272 24.2435 89.5783 24.6556 88.9414 23.4568C87.6676 21.0591 86.319 18.7364 85.0077 16.3762C84.8579 16.114 84.708 15.8892 84.221 15.7019V21.2839C84.221 21.8084 84.1835 22.3703 84.221 22.8948C84.3334 23.9063 83.9588 24.2435 82.9098 24.2435C81.7859 24.2435 81.636 23.794 81.636 22.8199C81.6735 19.0736 81.636 15.3647 81.6735 11.6184C81.6735 11.0939 81.3363 10.2697 82.2355 10.1947C83.0971 10.1198 84.1086 9.78266 84.708 10.9066C86.0193 13.3417 87.3679 15.7018 88.7166 18.0995C88.829 18.3243 88.9789 18.5116 89.0912 18.699C89.2036 18.699 89.316 18.6615 89.391 18.6615C89.391 16.2263 89.4284 13.7912 89.3535 11.3561C89.316 10.1947 89.878 10.1198 90.7771 10.1198C91.7137 10.1198 92.0508 10.3446 92.0508 11.3561C91.9759 15.1399 92.0509 18.9237 92.0134 22.7075Z" fill="#B0B0BD"/>
<path d="M105.687 11.2809C105.687 12.1051 105.537 12.5172 104.563 12.5546C101.753 12.6296 101.791 12.667 101.791 15.4393C101.791 17.9868 101.753 20.5343 101.828 23.0818C101.866 24.2057 101.304 24.2057 100.48 24.2432C99.6554 24.2432 99.0935 24.1683 99.1309 23.0818C99.2059 20.0473 99.1309 17.0127 99.1684 13.9782C99.2059 12.8918 98.9062 12.4048 97.7823 12.5546C97.4076 12.5921 96.9955 12.5172 96.6209 12.5546C95.7592 12.6296 95.2722 12.4423 95.2722 11.3933C95.2722 10.3818 95.6094 10.1195 96.546 10.157C97.8572 10.2319 99.2059 10.157 100.517 10.157C101.903 10.157 103.252 10.1944 104.638 10.157C105.5 10.1195 105.687 10.5316 105.687 11.2809Z" fill="#B0B0BD"/>
<path d="M117.751 23.083C117.751 24.3193 117.076 24.2444 116.252 24.2444C114.304 24.2069 112.319 24.2069 110.37 24.2444C109.396 24.2818 109.097 23.9072 109.134 22.9706C109.209 21.06 109.134 19.1494 109.134 17.2387C109.134 15.2157 109.172 13.2302 109.134 11.2072C109.134 10.4579 109.359 10.1582 110.146 10.1582C112.356 10.1956 114.566 10.1956 116.777 10.1582C117.788 10.1207 117.713 10.7201 117.713 11.3945C117.751 12.1437 117.601 12.5933 116.702 12.5558C115.391 12.4809 114.042 12.5558 112.731 12.5558C111.457 12.5184 111.794 13.4924 111.832 14.1293C111.869 14.7661 111.307 15.8526 112.693 15.8526C113.705 15.8526 114.754 15.89 115.765 15.8526C116.664 15.8151 116.852 16.1897 116.814 16.9765C116.777 17.6883 116.777 18.2128 115.803 18.1753C114.866 18.1004 113.929 18.2128 112.993 18.1379C112.056 18.0629 111.682 18.4001 111.719 19.3741C111.794 22.4087 111.419 21.8467 114.192 21.9217C114.866 21.9217 115.578 21.9591 116.252 21.9217C117.226 21.8093 117.751 21.9217 117.751 23.083Z" fill="#B0B0BD"/>
<path d="M129.552 23.0847C129.552 24.0213 129.177 24.2461 128.315 24.2086C126.367 24.1712 124.382 24.1712 122.434 24.2086C121.535 24.2461 121.235 23.9464 121.235 23.0473C121.272 21.0243 121.235 19.0387 121.235 17.0157C121.235 15.1425 121.272 13.3068 121.197 11.4337C121.16 10.3847 121.497 10.085 122.546 10.1224C123.52 10.1224 123.932 10.3098 123.932 11.3962C123.857 14.3933 123.97 17.3903 123.895 20.3499C123.857 21.6237 124.269 21.9983 125.468 21.8484C126.405 21.7735 127.341 21.8859 128.24 21.811C129.215 21.811 129.552 22.1107 129.552 23.0847Z" fill="#B0B0BD"/>
<path d="M141.653 23.0096C141.69 24.171 141.091 24.2459 140.191 24.2459C138.243 24.2084 136.258 24.2084 134.31 24.2459C133.373 24.2833 132.999 24.0211 133.036 23.0096C133.111 21.099 133.073 19.1883 133.073 17.2777C133.073 15.3296 133.111 13.3441 133.073 11.396C133.036 10.5343 133.261 10.1597 134.197 10.1971C136.295 10.2721 138.431 10.2346 140.529 10.1971C141.353 10.1971 141.653 10.4594 141.615 11.321C141.578 12.1078 141.578 12.6697 140.529 12.5948C139.255 12.5199 137.981 12.6323 136.707 12.5573C135.321 12.5199 135.733 13.4939 135.733 14.2057C135.733 14.8801 135.321 15.8915 136.707 15.8541C137.644 15.8166 138.581 15.8915 139.517 15.8541C140.491 15.8166 140.791 16.1538 140.791 17.1278C140.791 18.1768 140.229 18.2143 139.48 18.1768C138.88 18.1394 138.318 18.1768 137.719 18.1768C135.733 18.1768 135.846 18.1768 135.696 20.1624C135.621 21.586 136.033 22.1105 137.494 21.9606C138.431 21.8482 139.367 21.9606 140.304 21.9232C141.091 21.8482 141.615 21.8857 141.653 23.0096Z" fill="#B0B0BD"/>
<path d="M155.251 19.7116C155.251 22.6712 154.839 23.308 152.516 23.9074C149.557 24.6942 146.897 23.795 145.773 21.4723C144.387 18.6251 144.424 15.628 145.81 12.8183C146.747 10.9077 148.508 10.0835 150.568 10.2333C152.591 10.3832 154.277 11.2074 154.951 13.3428C155.101 13.8298 155.588 14.5416 154.914 14.7664C154.202 14.9912 153.116 15.3283 152.666 14.4292C152.029 13.0805 151.205 12.2938 149.706 12.7059C148.17 13.0806 147.758 14.4292 147.609 15.7779C147.459 17.1266 147.421 18.5127 147.871 19.8614C148.395 21.3974 149.669 22.1467 151.205 21.8844C152.254 21.6971 152.666 21.1726 152.666 20.0862C152.666 18.9248 151.992 18.9623 151.242 19.0372C150.418 19.1121 150.268 18.6626 150.268 17.9508C150.268 17.2015 150.493 16.8269 151.28 16.9018C151.655 16.9393 152.067 16.9018 152.441 16.9018C155.251 16.8643 155.251 16.8643 155.251 19.7116Z" fill="#B0B0BD"/>
<path d="M168.963 23.1957C168.326 21.922 167.764 20.6107 167.09 19.3744C166.715 18.7001 166.79 18.288 167.427 17.801C169.038 16.4523 169.113 14.6166 168.551 12.8183C167.989 10.9826 166.415 10.3457 164.655 10.2334C163.306 10.121 161.92 10.2334 160.534 10.1959C159.634 10.1584 159.335 10.4956 159.335 11.3948C159.372 13.3054 159.335 15.216 159.335 17.1266C159.335 18.9998 159.372 20.873 159.335 22.7087C159.297 23.7576 159.447 24.3196 160.758 24.2821C162.07 24.2821 162.032 23.6078 161.995 22.7087C161.957 21.9594 161.957 21.2476 161.995 20.4983C162.032 19.9738 161.657 19.2246 162.557 19.0747C163.343 18.9624 164.13 18.9249 164.505 19.9364C164.842 20.8355 165.441 21.6971 165.741 22.5963C166.191 23.9449 167.015 24.357 168.401 24.2447C169.375 24.1697 169.3 23.87 168.963 23.1957ZM163.456 16.6771C161.995 16.6771 161.995 16.6771 161.995 14.0546C161.957 13.4552 161.657 12.2938 163.493 12.4812C165.404 12.6685 166.153 13.1181 166.153 14.6166C166.153 16.1526 165.441 16.6771 163.456 16.6771Z" fill="#B0B0BD"/>
<path d="M183.275 22.708C182.039 18.9242 180.69 15.1779 179.454 11.4316C179.191 10.6074 178.892 10.1204 177.843 10.1204C176.794 10.1204 176.382 10.5699 176.082 11.469C174.846 15.2528 173.572 18.9992 172.223 22.7455C171.774 23.9818 172.036 24.3939 173.31 24.1691C174.284 24.3939 174.808 23.9443 174.921 23.0078C175.07 21.6216 175.782 21.2095 177.206 21.247C178.929 21.2844 180.428 21.1346 180.802 23.4948C180.99 24.806 182.413 24.2815 183.162 24.1317C184.174 23.9443 183.425 23.1576 183.275 22.708ZM178.592 18.9617C178.105 18.9617 177.618 18.9617 177.131 18.9617C176.531 18.9617 176.307 18.6995 176.494 18.1375C176.869 16.8638 177.243 15.6274 177.655 14.3537C177.768 14.3537 177.88 14.3537 177.993 14.3537C178.367 15.59 178.742 16.8637 179.191 18.1C179.304 18.6994 179.229 18.9992 178.592 18.9617Z" fill="#B0B0BD"/>
<path d="M193.127 10.3466C191.478 10.0094 189.792 10.2717 188.144 10.1593C187.207 10.0844 186.983 10.4964 186.983 11.3581C187.02 13.3062 186.983 15.2918 186.983 17.2399C186.983 19.188 187.02 21.1735 186.983 23.1216C186.983 23.9458 187.245 24.1706 188.069 24.2455C189.418 24.3579 189.792 23.8334 189.68 22.5971C189.605 21.6231 189.38 20.4617 189.792 19.7125C190.354 18.7009 191.666 19.3753 192.64 19.2629C195.037 18.9632 196.648 17.4646 196.798 15.2543C196.91 12.7068 195.562 10.8711 193.127 10.3466ZM191.216 16.9402C189.156 17.1275 189.717 15.7788 189.643 14.9921C189.643 13.6059 189.193 12.2947 191.216 12.482C193.127 12.6693 194.101 13.2688 194.063 14.8422C194.101 16.3408 193.277 16.7903 191.216 16.9402Z" fill="#B0B0BD"/>
<path d="M210.997 11.5822C210.922 13.4554 210.959 15.3285 210.959 17.1643C210.959 19.1873 210.922 21.2103 210.959 23.1959C210.997 24.2823 210.398 24.2448 209.648 24.2074C208.936 24.2074 208.262 24.2823 208.3 23.1959C208.337 21.9221 208.412 20.6484 208.3 19.3746C208.037 16.9769 206.164 18.5129 205.078 18.2132C204.291 17.9885 203.092 17.8011 203.205 19.4121C203.279 20.6483 203.167 21.8847 203.242 23.0835C203.317 24.2074 202.68 24.2074 201.856 24.2074C201.107 24.2074 200.545 24.2074 200.545 23.1584C200.582 19.1873 200.582 15.2162 200.545 11.2076C200.545 10.1961 201.032 10.0837 201.818 10.1212C202.605 10.1212 203.317 10.0463 203.242 11.2076C203.167 12.369 203.242 13.5678 203.205 14.7291C203.167 15.4784 203.467 15.7407 204.216 15.7781C208.262 16.0404 208.262 16.0404 208.262 11.8819C208.262 10.9828 207.925 10.0088 209.536 10.0462C210.735 10.1586 211.034 10.4958 210.997 11.5822Z" fill="#B0B0BD"/>
<path d="M40.3134 4.68766C35.4057 4.72513 30.498 4.68766 25.6278 4.68766C25.2531 4.68766 24.8785 4.72511 24.5039 4.57526C23.9419 4.4254 23.38 4.38794 22.7805 4.38794H22.7431C22.6307 4.38794 22.5183 4.38794 22.4059 4.38794C22.5558 4.46287 22.7431 4.53779 22.9304 4.57526C21.1322 4.8375 19.2965 4.6502 17.4982 4.68766C15.4752 4.72513 15.4752 4.68764 14.9882 6.67319C14.5386 8.58383 14.089 10.5319 13.602 12.4051C13.4147 13.042 13.5646 13.2293 14.2389 13.1918C16.4118 13.1544 18.5472 13.1918 20.7201 13.1918C21.2071 13.1918 21.6941 13.1918 21.2071 13.8662C21.1322 13.8287 21.0198 13.8287 20.9448 13.7912C20.9448 13.7912 20.9448 13.7913 20.9448 13.8287C20.9448 13.9037 20.9448 13.9411 20.9448 14.016C20.9448 14.5405 20.7201 15.065 20.6077 15.5895C20.6077 15.627 20.6077 15.6269 20.6077 15.6644C20.6826 15.6269 20.7575 15.5895 20.8325 15.552C20.6077 16.9007 20.3829 18.2494 19.8209 19.4857C19.746 19.5232 19.6711 19.5606 19.5962 19.5606C19.6336 20.0851 19.3714 20.5347 19.2215 21.0217C19.259 21.0217 19.2965 20.9842 19.3339 20.9842C19.6711 21.3963 19.3714 21.8084 19.259 22.2205C19.0342 23.1571 18.9593 24.0937 18.4723 24.9553C18.3973 24.9928 18.3224 24.9928 18.21 25.0302C18.1726 25.5173 18.0227 25.9669 17.9103 26.4164C17.9852 26.4164 18.0976 26.379 18.1726 26.379C18.0602 27.6527 17.6481 28.889 17.3109 30.1627C17.2734 30.1253 17.1985 30.0878 17.161 30.0503C17.161 30.0878 17.161 30.0878 17.161 30.1253C17.161 30.1628 17.161 30.1627 17.161 30.1627C17.2734 30.6123 17.5731 30.7247 17.9852 30.5374C19.9333 29.6383 21.9938 29.0388 23.8295 27.9149C24.0543 28.2147 23.9044 28.5144 23.8295 28.8141C23.2301 31.3241 22.6307 33.8342 22.0687 36.3442C22.0313 36.569 21.8065 36.8312 22.2561 36.9062C27.5009 29.4135 32.7083 21.9583 37.9532 14.4656C37.8783 14.3907 37.8408 14.3532 37.7659 14.2783C34.8812 15.4396 32.034 16.6384 28.9245 17.9122C29.4865 16.4511 29.9735 15.2523 30.3856 13.9785C30.5729 13.3791 30.8726 13.1544 31.547 13.1918C33.7573 13.2293 36.0051 13.1918 38.2155 13.2293C38.8898 13.2293 39.1146 13.042 39.2644 12.3677C39.7889 10.1199 40.3134 7.83459 40.9128 5.62425C41.2874 4.83752 41.0627 4.68766 40.3134 4.68766ZM39.6016 6.71069C39.1895 8.17177 38.8523 9.63282 38.5526 11.0939C38.4028 11.8806 38.0281 12.0679 37.2789 12.0305C35.2184 11.993 33.1204 12.0305 31.0599 11.993C30.3856 11.993 30.0859 12.2178 29.8237 12.8546C28.8121 15.2523 27.7632 17.6125 26.6018 20.2724C29.3366 19.0736 31.8092 18.0246 34.2818 16.9382C34.3567 16.9756 34.3942 17.0506 34.4691 17.088C31.4346 21.5462 28.4375 26.0418 25.403 30.4999C25.1407 30.3501 25.2157 30.0878 25.1782 29.9005C25.4404 28.5143 25.7027 27.1282 26.0024 25.5922C24.7661 26.1167 23.6797 26.5288 22.5932 27.0158C21.5068 27.4654 20.4204 27.9524 19.1466 28.5143C19.7086 26.1167 20.1956 23.9064 20.7201 21.696C21.3944 18.7739 22.0687 15.8143 22.818 12.8921C23.0053 12.1054 22.7805 11.993 22.0687 11.993C20.0083 12.0305 17.9103 11.993 15.8498 12.0305C15.1755 12.0305 14.8758 11.9555 15.1006 11.1688C15.5127 9.70773 15.8498 8.17173 16.187 6.67319C16.3369 6.03632 16.5616 5.81157 17.236 5.81157C24.4289 5.84903 31.6219 5.84903 38.8149 5.81157C39.5267 5.84903 39.8264 5.92396 39.6016 6.71069Z" fill="#B0B0BD"/>
<path d="M23.9049 27.9159C23.755 28.4404 23.268 28.6651 22.8934 28.9649C19.7839 31.1752 16.2249 31.9619 12.4786 31.7746C9.59388 31.6248 6.85905 30.8755 4.42394 29.2271C2.10121 27.6162 0.789994 25.4808 0.827458 22.5212C0.939848 18.063 0.902384 13.6049 0.827458 9.14677C0.789994 6.67419 1.76404 4.76354 3.59974 3.22755C8.58237 -1.00581 17.9482 -1.08074 23.0058 3.04023C23.5677 3.48979 24.0922 3.9768 24.5043 4.57622C23.9798 4.801 23.4928 4.72607 22.9683 4.57622C22.781 4.53876 22.5937 4.46383 22.4438 4.3889C22.5562 4.3889 22.6686 4.3889 22.781 4.3889C18.1355 0.00568978 8.17027 0.155552 3.7496 4.72608C1.38941 7.19866 1.5018 10.2706 4.12423 12.6683C6.59681 14.9536 9.66881 15.7778 12.9281 15.9651C15.8128 16.1524 18.4352 15.2908 20.9453 14.017C20.9453 13.9421 20.9453 13.9046 20.9453 13.8297C20.9453 13.8297 20.9453 13.8297 20.9453 13.7922C21.0202 13.7922 21.1326 13.8297 21.2075 13.8671C21.3199 14.4666 21.0951 14.991 20.8703 15.553C20.7954 15.5905 20.7205 15.6279 20.6456 15.6654C20.4208 15.7778 20.1585 15.8527 19.9338 15.9276C14.0895 18.0256 8.58237 17.6135 3.52482 13.7922C3.03779 13.4176 2.6257 12.968 2.06375 12.4061C2.02629 13.1179 2.02628 13.6798 2.13867 14.2043C2.6257 16.5271 4.19916 18.0256 6.18472 18.9996C10.5679 21.135 15.101 21.3223 19.6341 19.599C19.709 19.5616 19.7839 19.5616 19.8588 19.5241C19.9338 20.0861 19.8588 20.648 19.3718 21.0226C19.3344 21.0226 19.2969 21.0601 19.2594 21.0601C12.9656 22.7459 7.08384 22.2215 2.06375 17.5011C1.83897 19.6365 2.73808 21.2849 4.23662 22.6336C5.43545 23.72 6.85906 24.4318 8.43252 24.9188C11.7293 25.9303 15.0261 25.8929 18.3228 25.0687C18.3978 25.0312 18.4727 25.0312 18.5851 24.9937C18.6975 25.5182 18.4727 25.9304 18.2854 26.3799C18.2104 26.4174 18.0981 26.4174 18.0231 26.4174C16.0001 26.8295 13.9771 26.9044 11.9166 26.7546C8.957 26.5298 6.18471 25.6681 3.86199 23.7575C3.26257 23.2705 2.77555 22.671 2.13867 22.0341C1.91389 23.8324 2.32599 25.2935 3.3375 26.5672C4.19916 27.6162 5.28559 28.4029 6.52188 29.0024C9.96851 30.6882 13.565 30.9504 17.2739 30.1637V30.1263C17.2739 30.0888 17.2739 30.0888 17.2739 30.0513C17.3113 30.0888 17.3863 30.1262 17.4237 30.1637C17.4986 30.8006 17.8733 30.426 18.0981 30.3136C19.7464 29.6392 21.4323 28.8899 23.0807 28.2156C23.3055 28.0657 23.5677 27.841 23.9049 27.9159Z" fill="#B0B0BD"/>
<path d="M91.5264 24.1686C90.6272 24.2435 89.5783 24.6556 88.9414 23.4568C87.6676 21.0591 86.319 18.7364 85.0077 16.3762C84.8579 16.114 84.708 15.8892 84.221 15.7019V21.2839C84.221 21.8084 84.1835 22.3703 84.221 22.8948C84.3334 23.9063 83.9588 24.2435 82.9098 24.2435C81.7859 24.2435 81.636 23.794 81.636 22.8199C81.6735 19.0736 81.636 15.3647 81.6735 11.6184C81.6735 11.0939 81.3363 10.2697 82.2355 10.1947C83.0971 10.1198 84.1086 9.78266 84.708 10.9066C86.0193 13.3417 87.3679 15.7018 88.7166 18.0995C88.829 18.3243 88.9789 18.5116 89.0912 18.699C89.2036 18.699 89.316 18.6615 89.391 18.6615C89.391 16.2263 89.4284 13.7912 89.3535 11.3561C89.316 10.1947 89.878 10.1198 90.7771 10.1198C91.7137 10.1198 92.0508 10.3446 92.0508 11.3561C92.0134 15.1399 92.0509 18.9237 92.0134 22.7075C92.0134 23.232 92.388 24.0937 91.5264 24.1686Z" fill="#B0B0BD"/>
<path d="M168.963 23.1957C168.326 21.922 167.764 20.6107 167.09 19.3744C166.715 18.7001 166.79 18.288 167.427 17.801C169.038 16.4523 169.113 14.6166 168.551 12.8183C167.989 10.9826 166.415 10.3457 164.655 10.2334C163.306 10.121 161.92 10.2334 160.534 10.1959C159.634 10.1584 159.335 10.4956 159.335 11.3948C159.372 13.3054 159.335 15.216 159.335 17.1266C159.335 18.9998 159.372 20.873 159.335 22.7087C159.297 23.7576 159.447 24.3196 160.758 24.2821C162.07 24.2821 162.032 23.6078 161.995 22.7087C161.957 21.9594 161.957 21.2476 161.995 20.4983C162.032 19.9738 161.657 19.2246 162.557 19.0747C163.343 18.9624 164.13 18.9249 164.505 19.9364C164.842 20.8355 165.441 21.6971 165.741 22.5963C166.191 23.9449 167.015 24.357 168.401 24.2447C169.375 24.1697 169.3 23.87 168.963 23.1957ZM163.456 16.6771C161.995 16.6771 161.995 16.6771 161.995 14.0546C161.957 13.4552 161.657 12.2938 163.493 12.4812C165.404 12.6685 166.153 13.1181 166.153 14.6166C166.153 16.1526 165.441 16.6771 163.456 16.6771Z" fill="#B0B0BD"/>
<path d="M210.997 11.5822C210.922 13.4554 210.959 15.3285 210.959 17.1643C210.959 19.1873 210.922 21.2103 210.959 23.1959C210.997 24.2823 210.398 24.2448 209.648 24.2074C208.936 24.2074 208.262 24.2823 208.3 23.1959C208.337 21.9221 208.412 20.6484 208.3 19.3746C208.037 16.9769 206.164 18.5129 205.078 18.2132C204.291 17.9885 203.092 17.8011 203.205 19.4121C203.279 20.6483 203.167 21.8847 203.242 23.0835C203.317 24.2074 202.68 24.2074 201.856 24.2074C201.107 24.2074 200.545 24.2074 200.545 23.1584C200.582 19.1873 200.582 15.2162 200.545 11.2076C200.545 10.1961 201.032 10.0837 201.818 10.1212C202.605 10.1212 203.317 10.0463 203.242 11.2076C203.167 12.369 203.242 13.5678 203.205 14.7291C203.167 15.4784 203.467 15.7407 204.216 15.7781C208.262 16.0404 208.262 16.0404 208.262 11.8819C208.262 10.9828 207.925 10.0088 209.536 10.0462C210.735 10.1586 211.034 10.4958 210.997 11.5822Z" fill="#B0B0BD"/>
<path d="M155.251 19.7116C155.251 22.6712 154.839 23.308 152.516 23.9074C149.557 24.6942 146.897 23.795 145.773 21.4723C144.387 18.6251 144.424 15.628 145.81 12.8183C146.747 10.9077 148.508 10.0835 150.568 10.2333C152.591 10.3832 154.277 11.2074 154.951 13.3428C155.101 13.8298 155.588 14.5416 154.914 14.7664C154.202 14.9912 153.116 15.3283 152.666 14.4292C152.029 13.0805 151.205 12.2938 149.706 12.7059C148.17 13.0806 147.758 14.4292 147.609 15.7779C147.459 17.1266 147.421 18.5127 147.871 19.8614C148.395 21.3974 149.669 22.1467 151.205 21.8844C152.254 21.6971 152.666 21.1726 152.666 20.0862C152.666 18.9248 151.992 18.9623 151.242 19.0372C150.418 19.1121 150.268 18.6626 150.268 17.9508C150.268 17.2015 150.493 16.8269 151.28 16.9018C151.655 16.9393 152.067 16.9018 152.441 16.9018C155.251 16.8643 155.251 16.8643 155.251 19.7116Z" fill="#B0B0BD"/>
<path d="M69.6102 13.1571C68.7485 11.3214 67.2125 10.3099 65.1895 10.1975C63.3163 10.1226 61.7429 10.9093 60.7314 12.5577C59.8322 13.9813 59.4951 15.5173 59.6449 17.2032C59.6449 17.7277 59.6074 18.2896 59.6449 18.8141C59.9446 21.7737 61.9676 23.9466 64.5901 24.2088C66.9877 24.4336 69.2355 22.8602 70.0223 20.2003C70.7341 17.8026 70.6966 15.4424 69.6102 13.1571ZM67.2874 20.0878C66.8753 21.0994 66.1635 21.7362 65.0771 21.8112C63.9157 21.8486 63.0915 21.2492 62.6794 20.1628C61.9676 18.2147 61.9676 16.2291 62.6794 14.281C63.0541 13.2321 63.9157 12.5952 65.0771 12.6326C66.1635 12.6701 66.8753 13.3444 67.2874 14.3185C67.6995 15.2551 67.6621 16.2291 67.7745 17.1282C67.6995 18.1772 67.6995 19.1513 67.2874 20.0878Z" fill="#B0B0BD"/>
<path d="M183.275 22.708C182.039 18.9242 180.69 15.1779 179.454 11.4316C179.191 10.6074 178.892 10.1204 177.843 10.1204C176.794 10.1204 176.382 10.5699 176.082 11.469C174.846 15.2528 173.572 18.9992 172.223 22.7455C171.774 23.9818 172.036 24.3939 173.31 24.1691C174.284 24.3939 174.808 23.9443 174.921 23.0078C175.07 21.6216 175.782 21.2095 177.206 21.247C178.929 21.2844 180.428 21.1346 180.802 23.4948C180.99 24.806 182.413 24.2815 183.162 24.1317C184.174 23.9443 183.425 23.1576 183.275 22.708ZM178.592 18.9617C178.105 18.9617 177.618 18.9617 177.131 18.9617C176.531 18.9617 176.307 18.6995 176.494 18.1375C176.869 16.8638 177.243 15.6274 177.655 14.3537C177.768 14.3537 177.88 14.3537 177.993 14.3537C178.367 15.59 178.742 16.8637 179.191 18.1C179.304 18.6994 179.229 18.9992 178.592 18.9617Z" fill="#B0B0BD"/>
<path d="M117.751 23.083C117.751 24.3193 117.076 24.2444 116.252 24.2444C114.304 24.2069 112.319 24.2069 110.37 24.2444C109.396 24.2818 109.097 23.9072 109.134 22.9706C109.209 21.06 109.134 19.1494 109.134 17.2387C109.134 15.2157 109.172 13.2302 109.134 11.2072C109.134 10.4579 109.359 10.1582 110.146 10.1582C112.356 10.1956 114.566 10.1956 116.777 10.1582C117.788 10.1207 117.713 10.7201 117.713 11.3945C117.751 12.1437 117.601 12.5933 116.702 12.5558C115.391 12.4809 114.042 12.5558 112.731 12.5558C111.457 12.5184 111.794 13.4924 111.832 14.1293C111.869 14.7661 111.307 15.8526 112.693 15.8526C113.705 15.8526 114.754 15.89 115.765 15.8526C116.664 15.8151 116.852 16.1897 116.814 16.9765C116.777 17.6883 116.777 18.2128 115.803 18.1753C114.866 18.1004 113.929 18.2128 112.993 18.1379C112.056 18.0629 111.682 18.4001 111.719 19.3741C111.794 22.4087 111.419 21.8467 114.192 21.9217C114.866 21.9217 115.578 21.9591 116.252 21.9217C117.226 21.8093 117.751 21.9217 117.751 23.083Z" fill="#B0B0BD"/>
<path d="M141.653 23.0096C141.69 24.171 141.091 24.2459 140.191 24.2459C138.243 24.2084 136.258 24.2084 134.31 24.2459C133.373 24.2833 132.999 24.0211 133.036 23.0096C133.111 21.099 133.073 19.1883 133.073 17.2777C133.073 15.3296 133.111 13.3441 133.073 11.396C133.036 10.5343 133.261 10.1597 134.197 10.1971C136.295 10.2721 138.431 10.2346 140.529 10.1971C141.353 10.1971 141.653 10.4594 141.615 11.321C141.578 12.1078 141.578 12.6697 140.529 12.5948C139.255 12.5199 137.981 12.6323 136.707 12.5573C135.321 12.5199 135.733 13.4939 135.733 14.2057C135.733 14.8801 135.321 15.8915 136.707 15.8541C137.644 15.8166 138.581 15.8915 139.517 15.8541C140.491 15.8166 140.791 16.1538 140.791 17.1278C140.791 18.1768 140.229 18.2143 139.48 18.1768C138.88 18.1394 138.318 18.1768 137.719 18.1768C135.733 18.1768 135.846 18.1768 135.696 20.1624C135.621 21.586 136.033 22.1105 137.494 21.9606C138.431 21.8482 139.367 21.9606 140.304 21.9232C141.091 21.8482 141.615 21.8857 141.653 23.0096Z" fill="#B0B0BD"/>
<path d="M193.127 10.3466C191.478 10.0094 189.792 10.2717 188.144 10.1593C187.207 10.0844 186.983 10.4964 186.983 11.3581C187.02 13.3062 186.983 15.2918 186.983 17.2399C186.983 19.188 187.02 21.1735 186.983 23.1216C186.983 23.9458 187.245 24.1706 188.069 24.2455C189.418 24.3579 189.792 23.8334 189.68 22.5971C189.605 21.6231 189.38 20.4617 189.792 19.7125C190.354 18.7009 191.666 19.3753 192.64 19.2629C195.037 18.9632 196.648 17.4646 196.798 15.2543C196.91 12.7068 195.562 10.8711 193.127 10.3466ZM191.216 16.9402C189.156 17.1275 189.717 15.7788 189.643 14.9921C189.643 13.6059 189.193 12.2947 191.216 12.482C193.127 12.6693 194.101 13.2688 194.063 14.8422C194.101 16.3408 193.277 16.7903 191.216 16.9402Z" fill="#B0B0BD"/>
<path d="M55.8231 21.0603C55.1487 22.9709 53.6502 23.945 51.7021 24.1697C49.754 24.3945 48.1056 23.7202 46.9817 22.0718C45.9702 20.6107 45.5956 18.9623 45.7454 17.3139C45.6705 15.5531 45.9702 13.9797 46.8693 12.5561C47.9558 10.7953 49.6416 10.046 51.6272 10.2333C53.7626 10.4581 55.2986 11.582 55.9354 13.7175C56.0853 14.167 56.4599 14.9163 55.7107 15.0661C54.9989 15.216 53.875 15.6656 53.5378 14.5791C53.0508 13.1181 52.1891 12.4062 50.728 12.631C49.192 12.8558 48.705 14.1296 48.5177 15.4033C48.3304 16.9393 48.218 18.5502 48.7799 20.0488C49.1546 21.1352 49.8664 21.8095 51.0277 21.8095C52.1516 21.8095 53.0882 21.36 53.3505 20.1986C53.7251 18.7376 54.8865 19.1871 55.5983 19.3744C56.5723 19.6367 56.0478 20.4983 55.8231 21.0603Z" fill="#B0B0BD"/>
<path d="M105.687 11.2809C105.687 12.1051 105.537 12.5172 104.563 12.5546C101.753 12.6296 101.791 12.667 101.791 15.4393C101.791 17.9868 101.753 20.5343 101.828 23.0818C101.866 24.2057 101.304 24.2057 100.48 24.2432C99.6554 24.2432 99.0935 24.1683 99.1309 23.0818C99.2059 20.0473 99.1309 17.0127 99.1684 13.9782C99.2059 12.8918 98.9062 12.4048 97.7823 12.5546C97.4076 12.5921 96.9955 12.5172 96.6209 12.5546C95.7592 12.6296 95.2722 12.4423 95.2722 11.3933C95.2722 10.3818 95.6094 10.1195 96.546 10.157C97.8572 10.2319 99.2059 10.157 100.517 10.157C101.903 10.157 103.252 10.1944 104.638 10.157C105.5 10.1195 105.687 10.5316 105.687 11.2809Z" fill="#B0B0BD"/>
<path d="M129.552 23.0847C129.552 24.0213 129.177 24.2461 128.315 24.2086C126.367 24.1712 124.382 24.1712 122.434 24.2086C121.535 24.2461 121.235 23.9464 121.235 23.0473C121.272 21.0243 121.235 19.0387 121.235 17.0157C121.235 15.1425 121.272 13.3068 121.197 11.4337C121.16 10.3847 121.497 10.085 122.546 10.1224C123.52 10.1224 123.932 10.3098 123.932 11.3962C123.857 14.3933 123.97 17.3903 123.895 20.3499C123.857 21.6237 124.269 21.9983 125.468 21.8484C126.405 21.7735 127.341 21.8859 128.24 21.811C129.215 21.811 129.552 22.1107 129.552 23.0847Z" fill="#B0B0BD"/>
<path d="M75.7912 24.2447C74.9296 24.2447 74.4051 24.1323 74.4426 23.0833C74.48 19.1497 74.48 15.2535 74.4426 11.3198C74.4426 10.2334 74.967 10.1584 75.7912 10.1584C76.6529 10.1584 77.1774 10.2708 77.1399 11.3198C77.065 13.2679 77.1025 15.2535 77.1025 17.2016C77.1025 19.1497 77.065 21.1352 77.1399 23.0833C77.1774 24.1323 76.6529 24.2447 75.7912 24.2447Z" fill="#B0B0BD"/>
<path d="M22.3319 36.9069C22.2569 37.0193 22.2195 37.1692 22.1446 37.2816C21.8074 37.319 21.8823 37.0942 21.9198 36.9069C21.9947 36.7196 22.0696 36.5323 22.1446 36.345C22.2195 36.5323 22.1446 36.7571 22.3319 36.9069Z" fill="#B0B0BD"/>
<path d="M22.1819 37.3186C22.107 37.4684 22.0321 37.6558 21.8822 37.5059C21.7324 37.356 21.8073 37.0938 21.9571 36.9065C21.9946 37.0563 21.9946 37.2437 22.1819 37.3186Z" fill="#B0B0BD"/>
<path d="M25.4046 30.5401C24.9167 30.5026 25.1419 30.1649 25.1794 29.9397C25.2169 30.1649 25.1419 30.39 25.4046 30.5401Z" fill="#B0B0BD"/>
<path d="M22.7813 4.38794C22.6689 4.38794 22.5565 4.38794 22.4441 4.38794C22.5939 4.46287 22.7813 4.53779 22.9686 4.57526C22.8936 4.50033 22.8187 4.4254 22.7813 4.38794ZM20.9456 13.8287C20.9456 13.9037 20.9456 13.9786 20.9456 14.016L21.2078 13.9036C21.0954 13.8662 21.0205 13.8287 20.9456 13.8287Z" fill="#B0B0BD"/>
<path d="M17.2371 30.05C17.2371 30.0878 17.2371 30.0878 17.2371 30.1256C17.2371 30.1633 17.2371 30.1633 17.2371 30.1633C17.2748 30.1633 17.3503 30.1256 17.3881 30.1256C17.3503 30.0878 17.3126 30.05 17.2371 30.05Z" fill="#B0B0BD"/>
<path d="M25.4032 30.5375C25.3657 30.7249 25.2534 30.9122 25.0286 30.8747C24.6914 30.7998 24.9537 30.575 24.9911 30.4251C25.0286 30.2378 25.1035 30.088 25.1784 29.9006C25.2159 30.1629 25.141 30.3877 25.4032 30.5375Z" fill="#B0B0BD"/>
</svg>
