<svg width="175" height="32" viewBox="0 0 175 32" fill="none" xmlns="http://www.w3.org/2000/svg">
<path d="M15.623 0.496704C7.15042 0.496704 0.272644 7.34126 0.272644 15.7807C0.272644 24.1868 7.15042 31.0646 15.5566 31.0646C24.0624 31.0646 30.907 24.2533 30.8738 15.7474C30.8405 7.34126 24.0624 0.496704 15.623 0.496704ZM14.0282 21.562C16.5534 22.293 19.3444 21.2962 20.6734 19.0368C21.1386 18.2394 21.6702 17.9736 22.534 18.04C23.3979 18.1065 24.295 18.1065 25.1921 18.04C26.1889 17.9404 26.1889 18.3723 25.9231 19.1365C24.0292 24.951 17.5834 28.0078 11.8353 25.8149C7.28332 24.0871 4.35944 19.3358 4.9575 14.6177C5.62202 9.36804 9.50946 5.54705 14.7592 5.01543C19.4773 4.51704 24.1953 7.54062 25.8234 12.0926C26.3218 13.4548 26.3218 13.4548 24.8931 13.4548C24.4612 13.4548 24.0292 13.4548 23.6305 13.4548C23.4311 13.4548 23.1986 13.4216 22.9992 13.4548C21.8695 13.621 21.205 13.2555 20.5405 12.2255C19.145 10.0326 16.2543 9.20189 13.7624 10.0325C11.2704 10.8964 9.6756 13.2223 9.74205 15.9136C9.77527 18.5716 11.5362 20.831 14.0282 21.562Z" fill="#B0B0BD"/>
<path d="M118.392 12.5248C115.534 10.0328 112.278 9.80028 109.089 12.1593C108.258 12.7906 108.324 12.1261 108.324 11.5945C108.324 10.0661 108.191 8.53768 108.358 7.04251C108.557 5.21508 107.926 4.71671 106.131 4.81639C104.537 4.88284 103.639 4.91607 103.772 6.94286C103.972 9.96642 103.839 12.99 103.839 16.0135C103.839 19.1035 103.806 22.2268 103.872 25.3168C103.905 26.0145 103.208 27.3768 104.703 27.2771C105.832 27.1775 107.56 28.4068 108.025 26.1474C108.258 25.0178 108.69 25.7488 109.122 26.081C113.474 29.1378 119.056 27.2439 120.518 22.1271C121.515 18.6052 121.316 15.0832 118.392 12.5248ZM112.245 23.8216C109.786 23.7884 108.225 21.8281 108.291 18.9042C108.358 16.08 109.952 14.3523 112.411 14.3855C114.87 14.4519 116.498 16.4122 116.398 19.3029C116.299 22.0607 114.637 23.8549 112.245 23.8216Z" fill="#B0B0BD"/>
<path d="M139.689 24.0545C137.363 22.8584 138.526 20.8316 138.194 19.3364C138.194 16.5454 138.593 13.7877 136.001 11.927C133.21 9.93348 127.562 10.2325 125.003 12.5251C124.272 13.1564 123.774 13.9538 123.475 14.8509C123.342 15.2496 123.209 15.9142 123.774 15.8809C125.236 15.748 126.797 16.6119 128.126 15.017C129.588 13.2893 132.712 13.6548 133.509 15.4158C133.941 16.4125 134.041 17.2432 132.479 17.1767C130.685 17.1103 128.857 17.0771 127.096 17.5755C124.438 18.3064 122.976 19.9345 122.877 22.3932C122.777 24.42 123.574 25.9484 125.402 26.779C127.993 27.9419 130.618 28.0749 132.977 26.2142C133.908 25.4832 134.173 25.1178 135.037 26.3803C136.034 27.8423 138.061 27.7426 139.423 27.1445C140.354 26.7458 140.088 24.2871 139.689 24.0545ZM129.921 24.2539C128.691 24.2206 127.362 23.8884 127.462 22.4264C127.628 19.9013 129.721 20.3 131.515 20.1671C132.08 20.6987 133.609 19.3032 133.675 21.0974C133.742 22.8252 131.914 24.2871 129.921 24.2539Z" fill="#B0B0BD"/>
<path d="M164.278 20.1004C167.301 20.2001 170.325 20.1004 173.348 20.1336C174.312 20.1668 174.844 19.9675 174.81 18.871C174.744 15.9472 173.847 13.4884 171.255 11.8936C168.198 9.99971 163.547 10.2655 160.855 12.4252C158.197 14.5849 157.201 18.7049 158.463 22.3265C159.626 25.6491 162.55 27.5098 166.603 27.543C170.192 27.5762 173.083 25.8485 174.146 23.1572C174.544 22.1604 174.511 21.6952 173.282 21.7617C171.787 21.8614 170.358 21.4959 169.129 23.1572C167.7 25.0178 164.078 24.1872 163.082 22.0607C162.55 20.8646 162.45 20.0339 164.278 20.1004ZM163.68 15.1829C164.743 13.9868 166.138 13.8207 167.633 14.1529C168.896 14.452 170.125 15.3491 169.993 16.5452C169.86 17.7746 168.398 16.9107 167.534 17.1433C167.202 17.243 166.836 17.1433 166.471 17.1433C165.839 17.1433 165.175 17.1765 164.543 17.1433C164.012 17.11 163.281 17.4755 162.982 16.8442C162.683 16.2129 163.248 15.6481 163.68 15.1829Z" fill="#B0B0BD"/>
<path d="M65.9612 10.6305C60.6451 10.6305 57.1231 14.0196 57.1896 19.2028C57.2228 24.2532 60.7448 27.5758 65.9612 27.5425C71.2442 27.5093 74.6 24.2531 74.6 19.1031C74.6 13.9863 71.2109 10.6305 65.9612 10.6305ZM65.9612 23.8212C63.4693 23.8544 61.8412 21.9606 61.8412 19.0699C61.8744 16.146 63.4693 14.3518 65.9945 14.385C68.42 14.4183 69.9816 16.2457 70.0148 19.0034C70.0813 21.8941 68.4532 23.788 65.9612 23.8212Z" fill="#B0B0BD"/>
<path d="M100.881 17.2438C100.615 11.3629 95.0996 8.63832 90.2154 11.9277C89.4512 12.4261 89.3183 12.5922 88.8531 11.5954C88.1554 10.0338 86.5605 10.9309 85.4308 10.9309C84.3344 10.9309 84.8992 12.0606 84.866 12.6586C84.7995 14.7519 84.8328 16.8451 84.8328 18.9384C84.8328 21.1645 84.9657 23.4239 84.7995 25.65C84.6666 27.3777 85.4641 27.5771 86.8263 27.411C87.956 27.2781 89.5508 28.0423 89.3847 25.7165C89.2186 23.291 89.2518 20.8323 89.4179 18.3735C89.5841 15.649 90.9796 14.32 93.3054 14.4529C95.3986 14.5525 96.3622 15.7819 96.4286 18.5397C96.4951 21.0648 96.4951 23.59 96.4286 26.1152C96.3622 28.0755 97.7909 27.3778 98.688 27.3778C99.5519 27.3445 101.014 28.1419 100.981 26.1484C100.914 23.158 101.047 20.201 100.881 17.2438Z" fill="#B0B0BD"/>
<path d="M153.179 17.9746C151.551 17.3765 149.79 17.31 148.096 17.011C147.066 16.8449 145.404 17.011 145.571 15.3497C145.737 13.7881 147.298 13.8545 148.528 13.8213C149.392 13.7881 150.488 13.8878 150.887 14.652C151.751 16.2468 153.113 15.8149 154.409 15.9146C155.97 16.0475 156.17 15.4161 155.538 14.1868C154.043 11.2297 151.319 10.7645 148.428 10.5984C147.332 10.5652 146.268 10.6648 145.205 11.0303C142.547 11.8942 141.052 13.7549 141.118 16.2136C141.185 18.4065 142.447 19.6691 145.404 20.3004C147.032 20.6659 148.694 20.7988 150.322 21.0978C151.053 21.2307 151.717 21.5962 151.717 22.4933C151.717 23.3239 151.219 23.8888 150.455 24.0549C148.494 24.4869 146.634 24.6198 145.238 22.593C144.142 21.0313 142.281 21.6626 141.151 22.0946C140.221 22.4933 141.218 23.9885 141.783 24.7859C144.341 28.3078 152.216 28.5072 155.04 25.1846C157.233 22.6927 156.303 19.1375 153.179 17.9746Z" fill="#B0B0BD"/>
<path d="M54.8967 21.164C53.2354 21.2969 51.2419 20.0343 50.0125 22.5263C49.1818 24.1876 46.5902 24.254 45.0618 22.9914C43.1015 21.3301 43.0018 17.1437 44.9289 15.3495C46.3576 13.9872 48.9493 13.9208 49.9128 15.5488C50.7435 16.9443 51.6738 17.2434 52.8367 17.044C55.6941 17.044 55.7938 16.8778 54.6309 14.5188C53.8335 12.9572 52.6041 11.894 51.0093 11.2627C47.587 9.90041 43.2676 10.7311 40.975 13.223C38.7157 15.6817 38.2173 20.134 39.8121 23.3902C41.2741 26.3473 44.4305 27.8425 48.4177 27.5102C51.6738 27.2112 54.2654 25.284 55.0961 22.493C55.229 22.0279 55.7938 21.0975 54.8967 21.164Z" fill="#B0B0BD"/>
<path d="M79.5176 10.8618C78.5873 10.9283 77.0589 9.99795 77.0589 12.1576C77.1254 16.776 77.1254 21.3945 77.0589 26.0129C77.0257 27.94 78.3547 27.3752 79.285 27.3419C80.2154 27.2755 81.777 28.1726 81.7438 26.0461C81.6773 23.7535 81.7105 21.4277 81.7105 19.1351C81.7105 16.8425 81.6441 14.5167 81.7438 12.2241C81.8434 10.1973 80.4479 10.7954 79.5176 10.8618Z" fill="#B0B0BD"/>
<path d="M79.3168 3.95276C77.8217 4.05244 76.8249 4.88308 76.8249 6.47793C76.8249 8.07277 77.7884 9.00309 79.4165 9.00309C81.0114 9.00309 82.0414 8.13922 82.0081 6.51114C82.0081 4.9163 81.0446 4.05244 79.3168 3.95276Z" fill="#B0B0BD"/>
</svg>
