<svg width="40" height="41" viewBox="0 0 40 41" fill="none" xmlns="http://www.w3.org/2000/svg">
<path d="M34.8333 3.93896H5.16666C4.68043 3.93896 4.21412 4.13212 3.8703 4.47594C3.52648 4.81975 3.33333 5.28607 3.33333 5.7723V35.439C3.33333 35.6797 3.38075 35.9181 3.47288 36.1406C3.56502 36.363 3.70006 36.5651 3.8703 36.7353C4.04054 36.9056 4.24265 37.0406 4.46508 37.1327C4.68751 37.2249 4.9259 37.2723 5.16666 37.2723H21.1333V24.3556H16.8V19.3556H21.1333V15.6056C21.0436 14.7252 21.1475 13.8358 21.4379 12.9999C21.7282 12.1639 22.1979 11.4015 22.8141 10.7663C23.4303 10.1311 24.178 9.63837 25.0047 9.3227C25.8315 9.00702 26.7173 8.87605 27.6 8.93896C28.8972 8.93098 30.1938 8.99776 31.4833 9.13897V13.639H28.8333C26.7333 13.639 26.3333 14.639 26.3333 16.089V19.3056H31.3333L30.6833 24.3056H26.3333V37.2723H34.8333C35.0741 37.2723 35.3125 37.2249 35.5349 37.1327C35.7573 37.0406 35.9595 36.9056 36.1297 36.7353C36.2999 36.5651 36.435 36.363 36.5271 36.1406C36.6192 35.9181 36.6667 35.6797 36.6667 35.439V5.7723C36.6667 5.53154 36.6192 5.29314 36.5271 5.07071C36.435 4.84828 36.2999 4.64618 36.1297 4.47594C35.9595 4.3057 35.7573 4.17065 35.5349 4.07852C35.3125 3.98639 35.0741 3.93896 34.8333 3.93896Z" fill="#7D7E81"/>
</svg>
