<svg width="34" height="28" viewBox="0 0 34 28" fill="none" xmlns="http://www.w3.org/2000/svg">
<path d="M33.6667 3.272C32.4139 3.81549 31.089 4.17477 29.7333 4.33866C31.1636 3.4842 32.2355 2.13997 32.75 0.55533C31.4059 1.35544 29.9346 1.91916 28.4 2.222C27.3742 1.10962 26.0083 0.369157 24.5163 0.116749C23.0244 -0.135659 21.4909 0.114261 20.1563 0.827312C18.8217 1.54036 17.7616 2.67621 17.1421 4.05672C16.5226 5.43723 16.3788 6.98431 16.7333 8.45533C14.0157 8.31787 11.3574 7.61025 8.93109 6.37843C6.50478 5.14661 4.36474 3.41815 2.65 1.30533C2.04856 2.35561 1.73253 3.54503 1.73333 4.75533C1.7312 5.8793 2.00703 6.98636 2.53626 7.97794C3.06549 8.96952 3.8317 9.81485 4.76667 10.4387C3.67996 10.4091 2.61647 10.1175 1.66667 9.58866V9.672C1.67481 11.2468 2.22666 12.7705 3.22886 13.9853C4.23106 15.2001 5.62209 16.0314 7.16667 16.3387C6.57209 16.5196 5.95479 16.615 5.33333 16.622C4.90315 16.617 4.47404 16.578 4.05 16.5053C4.48985 17.86 5.34104 19.0439 6.48512 19.8923C7.62921 20.7406 9.00929 21.2112 10.4333 21.2387C8.02867 23.1308 5.0598 24.1634 2 24.172C1.44289 24.1738 0.886225 24.1404 0.333332 24.072C3.45738 26.0891 7.09802 27.1599 10.8167 27.1553C13.3828 27.182 15.9286 26.697 18.3052 25.7288C20.6818 24.7606 22.8417 23.3285 24.6587 21.5162C26.4756 19.7038 27.9133 17.5476 28.8876 15.1735C29.8619 12.7994 30.3534 10.2549 30.3333 7.68866C30.3333 7.40533 30.3333 7.10533 30.3333 6.80533C31.6412 5.83001 32.7691 4.63437 33.6667 3.272Z" fill="#7D7E81"/>
</svg>
