<svg width="34" height="35" viewBox="0 0 34 35" fill="none" xmlns="http://www.w3.org/2000/svg">
<path d="M16.9905 0.938965C13.6942 0.938965 10.4718 1.91645 7.73103 3.7478C4.99021 5.57916 2.854 8.18214 1.59254 11.2276C0.331081 14.273 0.00102505 17.6241 0.644112 20.8571C1.2872 24.0902 2.87455 27.0599 5.20542 29.3907C7.5363 31.7216 10.506 33.309 13.739 33.9521C16.972 34.5951 20.3232 34.2651 23.3686 33.0036C26.414 31.7422 29.017 29.606 30.8484 26.8651C32.6797 24.1243 33.6572 20.902 33.6572 17.6056C33.6574 15.4169 33.2264 13.2495 32.3889 11.2274C31.5514 9.20518 30.3237 7.36779 28.7761 5.82011C27.2284 4.27243 25.391 3.04478 23.3688 2.20727C21.3466 1.36976 19.1793 0.938783 16.9905 0.938965ZM22.2897 26.1931C22.2273 26.3486 22.1324 26.489 22.0113 26.6049C21.8902 26.7208 21.7458 26.8094 21.5876 26.8649C21.4295 26.9204 21.2613 26.9414 21.0944 26.9266C20.9274 26.9118 20.7656 26.8614 20.6197 26.7789L16.0953 23.2633L13.1914 25.9423C13.124 25.9921 13.0452 26.0241 12.9622 26.0355C12.8792 26.0468 12.7947 26.0371 12.7164 26.0072L13.2731 21.0264L13.2909 21.0406L13.3023 20.9422C13.3023 20.9422 21.4439 13.5297 21.7756 13.2139C22.1114 12.8989 22.0006 12.8306 22.0006 12.8306C22.0197 12.4463 21.3981 12.8306 21.3981 12.8306L10.6105 19.7706L6.11805 18.2406C6.11805 18.2406 5.42805 17.9931 5.36305 17.449C5.29472 16.909 6.14053 16.6156 6.14053 16.6156L24.0022 9.51978C24.0022 9.51978 25.4705 8.86558 25.4705 9.94897L22.2897 26.1931Z" fill="#7D7E81"/>
</svg>
