<svg width="738" height="738" viewBox="0 0 738 738" fill="none" xmlns="http://www.w3.org/2000/svg">
<path d="M368.915 368.977L20.9393 255.86C70.9252 102.051 207.319 3 368.999 3V368.977H368.915Z" fill="#EEA8F2" stroke="#010029" stroke-width="4.18642" stroke-miterlimit="10"/>
<path d="M368.915 368.977L20.9397 482.094C-4.01139 405.231 -4.01139 332.806 20.9397 255.943L368.915 368.977Z" fill="#E785EC" stroke="#010029" stroke-width="4.18642" stroke-miterlimit="10"/>
<path d="M368.915 368.978L153.816 665.041C88.4245 617.484 45.8904 558.957 20.9393 482.095L368.915 368.978Z" fill="#0044A4" stroke="#010029" stroke-width="4.18642" stroke-miterlimit="10"/>
<path d="M368.915 368.978L255.882 717.037C217.45 704.561 186.554 688.82 153.9 665.041L368.915 368.978Z" fill="#2B7CEE" stroke="#010029" stroke-width="4.18642" stroke-miterlimit="10"/>
<path d="M368.915 368.978L482.032 717.037C405.169 741.988 332.744 741.988 255.881 717.037L368.915 368.978Z" fill="#2B2B8B" stroke="#010029" stroke-width="4.18642" stroke-miterlimit="10"/>
<path d="M368.915 368.978L716.974 255.86C779.436 448.101 674.273 654.492 482.032 716.953L368.915 368.978Z" fill="#000073" stroke="#010029" stroke-width="4.18642" stroke-miterlimit="10"/>
<path d="M368.915 368.977L482.032 20.9175C597.326 58.4278 679.547 140.565 716.974 255.86L368.915 368.977Z" fill="#961F9C" stroke="#010029" stroke-width="4.18642" stroke-miterlimit="10"/>
<path d="M368.915 368.977V3C409.356 3 443.517 8.44235 482.032 20.9179L368.915 368.977Z" fill="#D62CDF" stroke="#010029" stroke-width="4.18642" stroke-miterlimit="10"/>
</svg>
